<?xml version="1.0" encoding="utf-8"?>
<!-- Generator: Adobe Illustrator 21.1.0, SVG Export Plug-In . SVG Version: 6.00 Build 0)  -->
<svg version="1.1" id="Слой_1" xmlns="http://www.w3.org/2000/svg" xmlns:xlink="http://www.w3.org/1999/xlink" x="0px" y="0px"
	 viewBox="0 0 79.9 81.6" style="enable-background:new 0 0 79.9 81.6;" xml:space="preserve">
<path d="M79.9,51.2c0-2.5-1.3-4.7-3.2-6c2-1.5,3.2-3.8,3.2-6.5c0-4.5-3.6-8.1-8.1-8.1H57.9c-3.7,0-4.1-0.7-4.1-0.8
	c0,0-0.4-0.9,2.4-3.8c6.6-6.9,6.4-16.1,3.5-21.7c-1.6-3.1-5-4.9-8.3-4.3c-2.8,0.5-4.7,2.6-5.1,5.4c-0.6,5.1-4.1,10.4-7.1,13.2
	c-0.5,0.4-1,0.9-1.7,1.5c-3.8,3.5-10.3,9.3-13.4,14.6c-2.3,3.8-6.3,4.3-8.3,4.4v-0.4c0-2.1-1.7-3.7-3.7-3.7H3.7
	c-2.1,0-3.7,1.7-3.7,3.7v38.5C0,79.3,1.7,81,3.7,81h8.2c2,0,3.6-1.5,3.7-3.4c0.7,0.2,1.5,0.7,2.2,1.5c1.5,1.7,2.7,2.6,3.7,2.6
	c0,0,0.1,0,0.1,0h47.5c4,0,7.2-3.2,7.2-7.2c0-1.9-0.7-3.6-1.9-4.9c2.6-1.1,4.5-3.7,4.5-6.7c0-2.2-1-4.1-2.5-5.4
	C78.5,56.1,79.9,53.8,79.9,51.2z M12.8,77.3c0,0.5-0.4,0.9-0.9,0.9H3.7c-0.5,0-0.9-0.4-0.9-0.9V38.8c0-0.5,0.4-0.9,0.9-0.9h8.2
	c0.5,0,0.9,0.4,0.9,0.9V77.3z M72.7,55.6L72.7,55.6c-0.3,0-0.6,0-1,0h-5.9v2.8h5.9c2.4,0,4.4,2,4.4,4.4c0,2.4-2,4.4-4.4,4.4h-7.3V70
	h4.8c2.4,0,4.4,2,4.4,4.4s-2,4.4-4.4,4.4H21.7c-0.2-0.1-0.7-0.4-1.7-1.6c-1.4-1.6-3.1-2.3-4.3-2.5V42c2.6,0,7.8-0.8,10.8-5.7
	c2.9-4.9,9.2-10.6,12.9-14c0.7-0.6,1.2-1.1,1.7-1.6c3.5-3.2,7.3-9.1,8-14.9c0.3-2.2,1.9-2.9,2.8-3c1.7-0.3,4.1,0.4,5.3,2.8
	c2.6,4.9,2.3,12.9-3.1,18.5c-1.7,1.8-3.9,4.5-2.9,6.8c1,2.2,4.1,2.5,6.7,2.5h13.9c2.9,0,5.3,2.4,5.3,5.3c0,2.9-2.4,5.3-5.3,5.3h-4.4
	v2.8h4.4c0.3,0,0.6,0,0.9,0v0c2.4,0,4.4,2,4.4,4.4S75.1,55.6,72.7,55.6z"/>
</svg>
