<?xml version="1.0" encoding="utf-8"?>
<!-- Generator: Adobe Illustrator 21.1.0, SVG Export Plug-In . SVG Version: 6.00 Build 0)  -->
<svg version="1.1" id="Слой_1" xmlns="http://www.w3.org/2000/svg" xmlns:xlink="http://www.w3.org/1999/xlink" x="0px" y="0px"
	 viewBox="0 0 807 693.5" style="enable-background:new 0 0 807 693.5;" xml:space="preserve">
<style type="text/css">
	.st0{fill:#FFFFFF;}
	.st1{fill:#145081;}
	.st2{fill:#1C1C1C;}
</style>
<rect id="XMLID_12_" x="177.5" y="177.7" transform="matrix(-1.836970e-16 1 -1 -1.836970e-16 386.3482 -28.3359)" class="st0" width="59.6" height="2.6"/>
<rect id="XMLID_11_" x="257.4" y="218" transform="matrix(-0.866 0.5 -0.5 -0.866 665.3346 260.2322)" class="st0" width="80.8" height="2.6"/>
<rect id="XMLID_14_" x="70.3" y="324" transform="matrix(-0.866 0.5 -0.5 -0.866 375.5096 550.0571)" class="st0" width="87.5" height="2.6"/>
<rect id="XMLID_13_" x="66.2" y="215.3" transform="matrix(0.866 0.5 -0.5 0.866 123.2983 -27.0198)" class="st0" width="91.7" height="2.6"/>
<polygon class="st1" points="330.7,159.5 366,139.1 401.2,159.5 401.2,200.1 366,220.4 330.7,200.1 "/>
<polygon class="st1" points="3.9,154.1 39.1,133.8 74.3,154.1 74.3,194.8 39.1,215.1 3.9,194.8 "/>
<polygon class="st1" points="11.4,343.8 46.6,323.5 81.8,343.8 81.8,384.5 46.6,404.8 11.4,384.5 "/>
<polygon class="st1" points="172.1,88.8 207.3,68.5 242.6,88.8 242.6,129.5 207.3,149.8 172.1,129.5 "/>
<g>
	<path class="st2" d="M313.4,243.3H307v-8h1v7.1h4.7v-7.1h1v7.1h0.7v2.4h-1V243.3z"/>
	<path class="st2" d="M315.3,240.4c0-1.7,1.2-3,2.9-3c1.8,0,2.8,1.4,2.8,3.1v0.2h-4.7c0.1,1.1,0.8,2,2.1,2c0.7,0,1.3-0.3,1.8-0.7
		l0.4,0.6c-0.6,0.6-1.4,0.9-2.3,0.9C316.6,243.4,315.3,242.2,315.3,240.4z M318.2,238.1c-1.2,0-1.8,1-1.9,1.9h3.8
		C320.1,239.2,319.5,238.1,318.2,238.1z"/>
	<path class="st2" d="M322.4,243.3v-5.8h0.9v2.4h3v-2.4h0.9v5.8h-0.9v-2.6h-3v2.6H322.4z"/>
	<path class="st2" d="M330.1,243.3v-5h-1.7v-0.8h4.3v0.8H331v5H330.1z"/>
	<path class="st2" d="M334.8,242.4v3.1h-0.9v-8h0.9v0.9c0.4-0.6,1.1-1,2-1c1.5,0,2.6,1.2,2.6,3c0,1.9-1.1,3-2.6,3
		C335.9,243.4,335.2,243.1,334.8,242.4z M338.4,240.4c0-1.3-0.7-2.2-1.9-2.2c-0.7,0-1.4,0.4-1.7,0.9v2.6c0.3,0.5,1,0.9,1.7,0.9
		C337.7,242.6,338.4,241.7,338.4,240.4z"/>
	<path class="st2" d="M344.4,243.3v-0.7c-0.5,0.5-1.1,0.8-1.9,0.8c-1,0-2-0.7-2-1.9c0-1.3,1-1.9,2-1.9c0.8,0,1.5,0.3,1.9,0.8v-1
		c0-0.8-0.6-1.2-1.5-1.2c-0.7,0-1.3,0.3-1.8,0.8l-0.4-0.6c0.6-0.6,1.4-1,2.3-1c1.2,0,2.2,0.6,2.2,2v4H344.4z M344.4,242.1V241
		c-0.3-0.5-1-0.7-1.6-0.7c-0.8,0-1.4,0.5-1.4,1.3c0,0.7,0.6,1.3,1.4,1.3C343.4,242.8,344,242.5,344.4,242.1z"/>
	<path class="st2" d="M346.4,242.7c0.5,0,0.9-0.6,1.1-2.3l0.4-2.9h4v5.8H351v-5h-2.3l-0.3,2.2c-0.3,2.2-0.9,3-2,3V242.7z"/>
	<path class="st2" d="M354.6,237.5v2.2h2.2c1.2,0,1.8,0.8,1.8,1.8c0,1-0.6,1.8-1.8,1.8h-3.1v-5.8H354.6z M354.6,240.5v2h2.1
		c0.6,0,1-0.4,1-1c0-0.6-0.3-1-1-1H354.6z"/>
	<path class="st2" d="M360,243.3v-5.8h0.9v2.4h3v-2.4h0.9v5.8h-0.9v-2.6h-3v2.6H360z"/>
	<path class="st2" d="M367.5,237.5v2.2h2.2c1.2,0,1.8,0.8,1.8,1.8c0,1-0.6,1.8-1.8,1.8h-3.1v-5.8H367.5z M367.5,240.5v2h2.1
		c0.6,0,1-0.4,1-1c0-0.6-0.3-1-1-1H367.5z M372.4,243.3v-5.8h0.9v5.8H372.4z"/>
	<path class="st2" d="M375.1,243.3v-5.8h0.9v4.4l3-4.4h0.9v5.8H379v-4.5l-3.1,4.5H375.1z M377.5,236.8c-0.9,0-1.6-0.4-2.1-1.1
		l0.4-0.4c0.4,0.5,1,0.9,1.7,0.9c0.7,0,1.3-0.3,1.7-0.9l0.4,0.4C379.2,236.4,378.4,236.8,377.5,236.8z"/>
	<path class="st2" d="M388.8,243.3v-5h-3v5h-0.9v-5.8h4.8v5.8H388.8z"/>
	<path class="st2" d="M391.1,240.4c0-1.7,1.1-3,2.9-3c1.8,0,2.9,1.4,2.9,3s-1.1,3-2.9,3C392.2,243.4,391.1,242.1,391.1,240.4z
		 M395.9,240.4c0-1.2-0.7-2.2-1.9-2.2s-1.9,1.1-1.9,2.2c0,1.2,0.7,2.2,1.9,2.2S395.9,241.6,395.9,240.4z"/>
	<path class="st2" d="M398,240.4c0-1.7,1.2-3,2.9-3c1.1,0,1.7,0.4,2.1,1l-0.6,0.6c-0.4-0.5-0.9-0.8-1.5-0.8c-1.2,0-2,0.9-2,2.2
		s0.8,2.2,2,2.2c0.6,0,1.1-0.2,1.5-0.8l0.6,0.6c-0.4,0.6-1.1,1-2.1,1C399.2,243.4,398,242.1,398,240.4z"/>
	<path class="st2" d="M405.3,243.3v-5h-1.7v-0.8h4.3v0.8h-1.7v5H405.3z"/>
	<path class="st2" d="M411.9,239.3c0-2.5,1.8-4.1,4.1-4.1c1.4,0,2.4,0.7,3,1.6l-0.8,0.5c-0.5-0.7-1.3-1.2-2.2-1.2
		c-1.8,0-3.1,1.3-3.1,3.3c0,1.9,1.3,3.3,3.1,3.3c0.9,0,1.7-0.5,2.2-1.2l0.9,0.5c-0.7,0.9-1.6,1.6-3,1.6
		C413.7,243.4,411.9,241.7,411.9,239.3z"/>
	<path class="st2" d="M425.5,235.3v0.9h-4.2v2.3h2.2c1.6,0,2.5,1.1,2.5,2.4s-0.9,2.4-2.5,2.4h-3.2v-8H425.5z M421.3,239.3v3h2.1
		c0.9,0,1.6-0.6,1.6-1.5s-0.6-1.5-1.6-1.5H421.3z"/>
</g>
<g>
	<path class="st2" d="M125.6,357.5h-7.5v-9.4h1.2v8.3h5.5v-8.3h1.2v8.3h0.9v2.8h-1.2V357.5z"/>
	<path class="st2" d="M127.8,354.1c0-2,1.4-3.6,3.3-3.6c2,0,3.3,1.6,3.3,3.6v0.3h-5.5c0.1,1.3,1,2.3,2.4,2.3c0.8,0,1.6-0.3,2.1-0.9
		l0.5,0.7c-0.7,0.7-1.6,1-2.7,1C129.3,357.6,127.8,356.2,127.8,354.1z M131.1,351.4c-1.4,0-2.2,1.2-2.2,2.3h4.5
		C133.4,352.6,132.7,351.4,131.1,351.4z"/>
	<path class="st2" d="M136.1,357.5v-6.8h1.1v2.8h3.5v-2.8h1.1v6.8h-1.1v-3h-3.5v3H136.1z"/>
	<path class="st2" d="M145.1,357.5v-5.9h-2v-0.9h5v0.9h-2v5.9H145.1z"/>
	<path class="st2" d="M150.6,356.4v3.6h-1.1v-9.4h1.1v1c0.5-0.7,1.3-1.2,2.3-1.2c1.8,0,3,1.3,3,3.6c0,2.2-1.2,3.6-3,3.6
		C151.9,357.6,151.1,357.2,150.6,356.4z M154.8,354.1c0-1.5-0.8-2.6-2.2-2.6c-0.8,0-1.7,0.5-2,1.1v3.1c0.4,0.6,1.2,1.1,2,1.1
		C153.9,356.7,154.8,355.6,154.8,354.1z"/>
	<path class="st2" d="M161.8,357.5v-0.8c-0.6,0.6-1.3,0.9-2.2,0.9c-1.2,0-2.4-0.8-2.4-2.2c0-1.5,1.2-2.2,2.4-2.2
		c0.9,0,1.7,0.3,2.2,0.9v-1.2c0-0.9-0.7-1.4-1.7-1.4c-0.8,0-1.5,0.3-2.1,0.9l-0.5-0.7c0.7-0.8,1.6-1.1,2.7-1.1
		c1.4,0,2.6,0.6,2.6,2.3v4.7H161.8z M161.8,356v-1.3c-0.4-0.6-1.1-0.8-1.9-0.8c-1,0-1.7,0.6-1.7,1.5c0,0.9,0.7,1.5,1.7,1.5
		C160.7,356.9,161.4,356.6,161.8,356z"/>
	<path class="st2" d="M164.1,356.8c0.6,0,1-0.7,1.3-2.7l0.4-3.3h4.7v6.8h-1.1v-5.9h-2.7l-0.3,2.5c-0.3,2.5-1,3.5-2.3,3.5V356.8z"/>
	<path class="st2" d="M173.7,350.7v2.6h2.5c1.4,0,2.1,1,2.1,2.1c0,1.1-0.7,2.1-2.1,2.1h-3.6v-6.8H173.7z M173.7,354.2v2.3h2.4
		c0.8,0,1.2-0.5,1.2-1.2c0-0.7-0.4-1.2-1.2-1.2H173.7z"/>
	<path class="st2" d="M180,357.5v-6.8h1.1v2.8h3.5v-2.8h1.1v6.8h-1.1v-3h-3.5v3H180z"/>
	<path class="st2" d="M192,357.5v-0.8c-0.6,0.6-1.3,0.9-2.2,0.9c-1.2,0-2.4-0.8-2.4-2.2c0-1.5,1.2-2.2,2.4-2.2
		c0.9,0,1.7,0.3,2.2,0.9v-1.2c0-0.9-0.7-1.4-1.7-1.4c-0.8,0-1.5,0.3-2.1,0.9l-0.5-0.7c0.7-0.8,1.6-1.1,2.7-1.1
		c1.4,0,2.6,0.6,2.6,2.3v4.7H192z M192,356v-1.3c-0.4-0.6-1.1-0.8-1.9-0.8c-1,0-1.7,0.6-1.7,1.5c0,0.9,0.7,1.5,1.7,1.5
		C190.9,356.9,191.6,356.6,192,356z"/>
	<path class="st2" d="M195,357.5l1.8-2.7c-1-0.1-1.7-0.9-1.7-2c0-1.2,0.8-2.1,2.1-2.1h3.6v6.8h-1.1v-2.6h-1.9l-1.7,2.6H195z
		 M199.7,353.9v-2.3h-2.4c-0.7,0-1.2,0.5-1.2,1.2s0.4,1.2,1.2,1.2H199.7z"/>
	<path class="st2" d="M206.1,354.1c0-2,1.4-3.6,3.4-3.6c1.2,0,2,0.5,2.5,1.2l-0.7,0.6c-0.4-0.6-1-0.9-1.7-0.9
		c-1.4,0-2.3,1.1-2.3,2.6s0.9,2.6,2.3,2.6c0.7,0,1.3-0.3,1.7-0.9l0.7,0.6c-0.5,0.7-1.2,1.2-2.5,1.2
		C207.5,357.6,206.1,356.1,206.1,354.1z"/>
	<path class="st2" d="M214.7,357.5v-5.9h-2v-0.9h5v0.9h-2v5.9H214.7z"/>
	<path class="st2" d="M223.3,357.5v-0.8c-0.6,0.6-1.3,0.9-2.2,0.9c-1.2,0-2.4-0.8-2.4-2.2c0-1.5,1.2-2.2,2.4-2.2
		c0.9,0,1.7,0.3,2.2,0.9v-1.2c0-0.9-0.7-1.4-1.7-1.4c-0.8,0-1.5,0.3-2.1,0.9l-0.5-0.7c0.7-0.8,1.6-1.1,2.7-1.1
		c1.4,0,2.6,0.6,2.6,2.3v4.7H223.3z M223.3,356v-1.3c-0.4-0.6-1.1-0.8-1.9-0.8c-1,0-1.7,0.6-1.7,1.5c0,0.9,0.7,1.5,1.7,1.5
		C222.2,356.9,222.9,356.6,223.3,356z"/>
	<path class="st2" d="M226.5,357.5v-6.8h1.1v2.8h3.5v-2.8h1.1v6.8h-1.1v-3h-3.5v3H226.5z"/>
	<path class="st2" d="M239.6,357.5h-5.4v-6.8h1.1v5.9h3.5v-5.9h1.1v5.9h0.8v2.7h-1.1V357.5z"/>
	<path class="st2" d="M242.1,357.5v-6.8h1.1v5.2l3.6-5.2h1v6.8h-1.1v-5.3l-3.6,5.3H242.1z"/>
	<path class="st2" d="M249.6,357.5l1.8-2.7c-1-0.1-1.7-0.9-1.7-2c0-1.2,0.8-2.1,2.1-2.1h3.6v6.8h-1.1v-2.6h-1.9l-1.7,2.6H249.6z
		 M254.4,353.9v-2.3H252c-0.7,0-1.2,0.5-1.2,1.2s0.4,1.2,1.2,1.2H254.4z"/>
	<path class="st2" d="M260.8,352.8c0-2.9,2.1-4.8,4.8-4.8c1.7,0,2.8,0.8,3.6,1.9l-1,0.5c-0.5-0.8-1.5-1.4-2.6-1.4
		c-2,0-3.6,1.6-3.6,3.8c0,2.2,1.6,3.8,3.6,3.8c1.1,0,2-0.6,2.6-1.4l1,0.5c-0.8,1.1-1.9,1.9-3.6,1.9
		C263,357.6,260.8,355.7,260.8,352.8z"/>
	<path class="st2" d="M276.4,357.5l-3.6-4.2l-0.9,1.1v3.1h-1.2v-9.4h1.2v4.8l4.1-4.8h1.5l-3.9,4.4l4.2,4.9H276.4z"/>
	<path class="st2" d="M278.3,356.9l0.5-0.9c0.3,0.4,0.8,0.6,1.3,0.6c0.7,0,1.1-0.4,1.6-1.3l0.2-0.3l-3.6-6.8h1.3l2.9,5.8l2.9-5.8
		h1.3l-4.1,7.7c-0.6,1.1-1.2,1.8-2.5,1.8C279.3,357.6,278.6,357.3,278.3,356.9z"/>
	<path class="st2" d="M287.3,356.5c1.1-0.1,1.8-0.5,2.1-3.7l0.6-4.7h5.7v8.3h0.9v2.8h-1.2v-1.7h-7v1.7h-1.2V356.5z M289.2,356.4h5.4
		v-7.3h-3.5l-0.5,3.7C290.3,354.9,289.8,355.9,289.2,356.4z"/>
</g>
<g>
	<path class="st2" d="M257.9,104v0.9h-4.2v2.3h2.2c1.6,0,2.5,1.1,2.5,2.4s-0.9,2.4-2.5,2.4h-3.2v-8H257.9z M253.7,108v3h2.1
		c0.9,0,1.6-0.6,1.6-1.5s-0.6-1.5-1.6-1.5H253.7z"/>
	<path class="st2" d="M261.7,109.4h-1.1v2.6h-0.9v-5.8h0.9v2.4h1.1c0.2-1.5,1.2-2.6,2.8-2.6c1.8,0,2.9,1.4,2.9,3s-1.1,3-2.9,3
		C262.9,112.1,261.9,110.9,261.7,109.4z M266.5,109.1c0-1.2-0.7-2.2-1.9-2.2c-1.2,0-1.9,1.1-1.9,2.2c0,1.2,0.7,2.2,1.9,2.2
		C265.8,111.3,266.5,110.3,266.5,109.1z"/>
	<path class="st2" d="M269.8,111.1v3.1h-0.9v-8h0.9v0.9c0.4-0.6,1.1-1,2-1c1.5,0,2.6,1.2,2.6,3c0,1.9-1.1,3-2.6,3
		C271,112.1,270.3,111.7,269.8,111.1z M273.4,109.1c0-1.3-0.7-2.2-1.9-2.2c-0.7,0-1.4,0.4-1.7,0.9v2.6c0.3,0.5,1,0.9,1.7,0.9
		C272.7,111.3,273.4,110.4,273.4,109.1z"/>
	<path class="st2" d="M275.5,109.1c0-1.7,1.1-3,2.9-3c1.8,0,2.9,1.4,2.9,3s-1.1,3-2.9,3C276.6,112.1,275.5,110.8,275.5,109.1z
		 M280.2,109.1c0-1.2-0.7-2.2-1.9-2.2s-1.9,1.1-1.9,2.2c0,1.2,0.7,2.2,1.9,2.2S280.2,110.3,280.2,109.1z"/>
	<path class="st2" d="M289.7,112v-5h-3v5h-0.9v-5.8h4.8v5.8H289.7z"/>
	<path class="st2" d="M293.3,111.1v3.1h-0.9v-8h0.9v0.9c0.4-0.6,1.1-1,2-1c1.5,0,2.6,1.2,2.6,3c0,1.9-1.1,3-2.6,3
		C294.4,112.1,293.7,111.7,293.3,111.1z M296.9,109.1c0-1.3-0.7-2.2-1.9-2.2c-0.7,0-1.4,0.4-1.7,0.9v2.6c0.3,0.5,1,0.9,1.7,0.9
		C296.2,111.3,296.9,110.4,296.9,109.1z"/>
	<path class="st2" d="M298.9,109.1c0-1.7,1.1-3,2.9-3c1.8,0,2.9,1.4,2.9,3s-1.1,3-2.9,3C300,112.1,298.9,110.8,298.9,109.1z
		 M303.7,109.1c0-1.2-0.7-2.2-1.9-2.2s-1.9,1.1-1.9,2.2c0,1.2,0.7,2.2,1.9,2.2S303.7,110.3,303.7,109.1z"/>
	<path class="st2" d="M310,112v-5h-3v5h-0.9v-5.8h4.8v5.8H310z"/>
	<path class="st2" d="M312.6,113.4c0.1,0.1,0.3,0.1,0.5,0.1c0.4,0,0.7-0.1,0.9-0.6l0.4-0.9l-2.4-5.9h1l1.9,4.7l1.9-4.7h1l-2.9,7
		c-0.3,0.8-0.9,1.2-1.7,1.2c-0.2,0-0.5,0-0.7-0.1L312.6,113.4z"/>
	<path class="st2" d="M318.3,109.1c0-1.7,1.2-3,2.9-3c1.1,0,1.7,0.4,2.1,1l-0.6,0.6c-0.4-0.5-0.9-0.8-1.5-0.8c-1.2,0-2,0.9-2,2.2
		s0.8,2.2,2,2.2c0.6,0,1.1-0.2,1.5-0.8l0.6,0.6c-0.4,0.6-1.1,1-2.1,1C319.4,112.1,318.3,110.8,318.3,109.1z"/>
	<path class="st2" d="M328.5,112l-2.1-2.6l-1,0.9v1.7h-0.9v-5.8h0.9v3.1l3-3.1h1.1l-2.6,2.6l2.6,3.2H328.5z"/>
	<path class="st2" d="M330.4,109.1c0-1.7,1.1-3,2.9-3c1.8,0,2.9,1.4,2.9,3s-1.1,3-2.9,3C331.5,112.1,330.4,110.8,330.4,109.1z
		 M335.2,109.1c0-1.2-0.7-2.2-1.9-2.2s-1.9,1.1-1.9,2.2c0,1.2,0.7,2.2,1.9,2.2S335.2,110.3,335.2,109.1z"/>
	<path class="st2" d="M337.6,112v-5.8h3.2c1,0,1.6,0.6,1.6,1.5c0,0.7-0.4,1.2-0.9,1.3c0.6,0.1,1.1,0.8,1.1,1.4
		c0,0.9-0.6,1.6-1.7,1.6H337.6z M341.5,107.8c0-0.5-0.3-0.8-0.9-0.8h-2.1v1.6h2.1C341.2,108.6,341.5,108.3,341.5,107.8z
		 M341.6,110.3c0-0.5-0.3-0.9-0.9-0.9h-2.2v1.8h2.2C341.2,111.2,341.6,110.8,341.6,110.3z"/>
</g>
<rect id="XMLID_24_" x="242.3" y="324.7" transform="matrix(0.866 0.5 -0.5 0.866 203.3733 -107.0748)" class="st0" width="118.4" height="2.6"/>
<g>
	<path class="st2" d="M10.2,224.1v0.9H6v2.3h2.2c1.6,0,2.5,1.1,2.5,2.4c0,1.3-0.9,2.4-2.5,2.4H5v-8H10.2z M6,228.2v3h2.1
		c0.9,0,1.6-0.6,1.6-1.5s-0.6-1.5-1.6-1.5H6z"/>
	<path class="st2" d="M11.9,233.6c0.1,0.1,0.3,0.1,0.5,0.1c0.4,0,0.7-0.1,0.9-0.6l0.4-0.9l-2.4-5.9h1l1.9,4.7l1.9-4.7h1l-2.9,7
		c-0.3,0.8-0.9,1.2-1.7,1.2c-0.2,0-0.5,0-0.7-0.1L11.9,233.6z"/>
	<path class="st2" d="M21.7,232.1l-1.7-2.4l-1.7,2.4h-1l2.2-3l-2.1-2.8h1l1.6,2.2l1.6-2.2h1l-2.1,2.8l2.2,3H21.7z"/>
	<path class="st2" d="M27.8,227.1h-3.2v5h-0.9v-5.8h4.1V227.1z"/>
	<path class="st2" d="M32.6,232.1v-0.7c-0.5,0.5-1.1,0.8-1.9,0.8c-1,0-2-0.7-2-1.9c0-1.3,1-1.9,2-1.9c0.8,0,1.5,0.3,1.9,0.8v-1
		c0-0.8-0.6-1.2-1.5-1.2c-0.7,0-1.3,0.3-1.8,0.8l-0.4-0.6c0.6-0.6,1.4-1,2.3-1c1.2,0,2.2,0.6,2.2,2v4H32.6z M32.6,230.9v-1.1
		c-0.3-0.5-1-0.7-1.6-0.7c-0.8,0-1.4,0.5-1.4,1.3c0,0.7,0.6,1.3,1.4,1.3C31.6,231.6,32.3,231.4,32.6,230.9z"/>
	<path class="st2" d="M34.6,231.5c0.5,0,0.9-0.6,1.1-2.3l0.4-2.9h4v5.8h-0.9v-5h-2.3l-0.3,2.2c-0.3,2.2-0.9,3-2,3V231.5z"/>
	<path class="st2" d="M43,232.1v-5h-1.7v-0.8h4.3v0.8h-1.7v5H43z"/>
	<path class="st2" d="M46.4,229.2c0-1.7,1.2-3,2.9-3c1.8,0,2.8,1.4,2.8,3.1v0.2h-4.7c0.1,1.1,0.8,2,2.1,2c0.7,0,1.3-0.3,1.8-0.7
		l0.4,0.6c-0.6,0.6-1.4,0.9-2.3,0.9C47.7,232.3,46.4,231.1,46.4,229.2z M49.3,227c-1.2,0-1.8,1-1.9,1.9h3.8
		C51.2,228,50.6,227,49.3,227z"/>
	<path class="st2" d="M54.4,231.3v3.1h-0.9v-8h0.9v0.9c0.4-0.6,1.1-1,2-1c1.5,0,2.6,1.2,2.6,3c0,1.9-1.1,3-2.6,3
		C55.6,232.3,54.9,231.9,54.4,231.3z M58,229.2c0-1.3-0.7-2.2-1.9-2.2c-0.7,0-1.4,0.4-1.7,0.9v2.6c0.3,0.5,1,0.9,1.7,0.9
		C57.3,231.5,58,230.5,58,229.2z"/>
	<path class="st2" d="M60.4,232.1v-5.8h0.9v4.4l3-4.4h0.9v5.8h-0.9v-4.5l-3.1,4.5H60.4z"/>
	<path class="st2" d="M66.8,232.1l1.5-2.3c-0.9-0.1-1.5-0.8-1.5-1.7c0-1,0.7-1.8,1.8-1.8h3.1v5.8h-0.9v-2.2h-1.6l-1.4,2.2H66.8z
		 M70.9,229.1v-2h-2.1c-0.6,0-1,0.4-1,1c0,0.6,0.3,1,1,1H70.9z"/>
	<path class="st2" d="M73.8,233.7l-0.4-0.4c0.4-0.3,0.7-0.7,0.8-1.1c0,0-0.1,0-0.2,0c-0.3,0-0.6-0.3-0.6-0.6c0-0.3,0.3-0.6,0.6-0.6
		c0.4,0,0.8,0.3,0.8,0.9C74.8,232.6,74.3,233.3,73.8,233.7z"/>
	<path class="st2" d="M2.6,241.1c0-1.7,1.1-3,2.9-3c1.8,0,2.9,1.4,2.9,3c0,1.7-1.1,3-2.9,3C3.7,244.2,2.6,242.8,2.6,241.1z
		 M7.3,241.1c0-1.2-0.7-2.2-1.9-2.2s-1.9,1.1-1.9,2.2c0,1.2,0.7,2.2,1.9,2.2S7.3,242.3,7.3,241.1z"/>
	<path class="st2" d="M10.8,244v-5H9.1v-0.8h4.3v0.8h-1.7v5H10.8z"/>
	<path class="st2" d="M13.9,243.3c0.5-0.1,0.9-0.5,1.1-2.2l0.4-2.9h4v5h0.7v2.3h-0.9V244h-4.4v1.5h-0.9V243.3z M15.9,241.2
		c-0.1,1.1-0.4,1.7-0.8,2h3.4V239h-2.3L15.9,241.2z"/>
	<path class="st2" d="M21,241.1c0-1.7,1.2-3,2.9-3c1.8,0,2.8,1.4,2.8,3.1v0.2h-4.7c0.1,1.1,0.8,2,2.1,2c0.7,0,1.3-0.3,1.8-0.7
		l0.4,0.6c-0.6,0.6-1.4,0.9-2.3,0.9C22.2,244.2,21,242.9,21,241.1z M23.8,238.8c-1.2,0-1.8,1-1.9,1.9h3.8
		C25.7,239.9,25.1,238.8,23.8,238.8z"/>
	<path class="st2" d="M27.4,243.4c0.5,0,0.9-0.6,1.1-2.3l0.4-2.9h4v5.8H32v-5h-2.3l-0.3,2.2c-0.3,2.2-0.9,3-2,3V243.4z"/>
	<path class="st2" d="M41.7,244l-2.1-2.6l-1,0.9v1.7h-0.9v-5.8h0.9v3.1l3-3.1h1.1l-2.6,2.6l2.6,3.2H41.7z"/>
	<path class="st2" d="M47.6,244v-0.7c-0.5,0.5-1.1,0.8-1.9,0.8c-1,0-2-0.7-2-1.9c0-1.3,1-1.9,2-1.9c0.8,0,1.5,0.3,1.9,0.8v-1
		c0-0.8-0.6-1.2-1.5-1.2c-0.7,0-1.3,0.3-1.8,0.8l-0.4-0.6c0.6-0.6,1.4-1,2.3-1c1.2,0,2.2,0.6,2.2,2v4H47.6z M47.6,242.8v-1.1
		c-0.3-0.5-1-0.7-1.6-0.7c-0.8,0-1.4,0.5-1.4,1.3c0,0.7,0.6,1.3,1.4,1.3C46.6,243.5,47.2,243.3,47.6,242.8z"/>
	<path class="st2" d="M49.6,243.3c0.5-0.1,0.9-0.5,1.1-2.2l0.4-2.9h4v5h0.7v2.3h-0.9V244h-4.4v1.5h-0.9V243.3z M51.6,241.2
		c-0.1,1.1-0.4,1.7-0.8,2h3.4V239h-2.3L51.6,241.2z"/>
	<path class="st2" d="M57.9,243.1v3.1H57v-8h0.9v0.9c0.4-0.6,1.1-1,2-1c1.5,0,2.6,1.2,2.6,3c0,1.9-1.1,3-2.6,3
		C59.1,244.2,58.4,243.8,57.9,243.1z M61.5,241.1c0-1.3-0.7-2.2-1.9-2.2c-0.7,0-1.4,0.4-1.7,0.9v2.6c0.3,0.5,1,0.9,1.7,0.9
		C60.8,243.4,61.5,242.4,61.5,241.1z"/>
	<path class="st2" d="M63.5,241.1c0-1.7,1.1-3,2.9-3c1.8,0,2.9,1.4,2.9,3c0,1.7-1.1,3-2.9,3C64.7,244.2,63.5,242.8,63.5,241.1z
		 M68.3,241.1c0-1.2-0.7-2.2-1.9-2.2s-1.9,1.1-1.9,2.2c0,1.2,0.7,2.2,1.9,2.2S68.3,242.3,68.3,241.1z"/>
	<path class="st2" d="M70.7,244v-5.8h3.2c1,0,1.6,0.6,1.6,1.5c0,0.7-0.4,1.2-0.9,1.3c0.6,0.1,1.1,0.8,1.1,1.4c0,0.9-0.6,1.6-1.7,1.6
		H70.7z M74.6,239.9c0-0.5-0.3-0.8-0.9-0.8h-2.1v1.6h2.1C74.3,240.7,74.6,240.3,74.6,239.9z M74.8,242.3c0-0.5-0.3-0.9-0.9-0.9h-2.2
		v1.8h2.2C74.4,243.2,74.8,242.9,74.8,242.3z"/>
</g>
<g>
	<polygon class="st1" points="150.5,238.7 207.3,205.9 264.2,238.7 264.2,304.3 207.3,337.1 150.5,304.3 	"/>
	<path class="st0" d="M226.7,257.7c-0.9-3.3-7.6-6.6-19.3-6.6c-11.7,0-18.4,3.3-19.3,6.6c-0.1,0.1-0.1,0.2-0.1,0.4v0.4v8.9v0.4v0.4
		v8.6v0.4v0.4v9.3c0,0.1,0,0.2,0.1,0.4c0.9,3.8,9.1,6.7,19.4,6.7c10.2,0,18.4-2.8,19.4-6.6c0.1-0.1,0.1-0.2,0.1-0.4v-9.3v-0.4v-0.4
		v-8.6v-0.4v-0.4v-8.9v-0.4C226.8,258,226.7,257.8,226.7,257.7z M225.2,277.5c0,0.1-0.1,0.2-0.1,0.3c0,0.1-0.1,0.2-0.1,0.2
		c-0.1,0.1-0.1,0.2-0.2,0.3c-0.1,0.1-0.1,0.1-0.2,0.2c-0.1,0.1-0.2,0.2-0.3,0.3c-0.1,0.1-0.1,0.1-0.2,0.2c-0.1,0.1-0.3,0.2-0.4,0.3
		c-0.1,0-0.1,0.1-0.2,0.1c-0.2,0.1-0.4,0.2-0.6,0.4c-0.1,0-0.1,0.1-0.2,0.1c-0.2,0.1-0.5,0.3-0.7,0.4c0,0-0.1,0-0.1,0
		c-0.3,0.1-0.6,0.3-0.9,0.4c0,0,0,0,0,0c-1.8,0.7-4,1.3-6.7,1.7c0,0,0,0,0,0c-0.5,0.1-1,0.1-1.6,0.2c-0.1,0-0.2,0-0.3,0
		c-0.5,0-0.9,0.1-1.4,0.1c-0.2,0-0.5,0-0.7,0c-0.4,0-0.7,0-1.1,0.1c-0.6,0-1.2,0-1.9,0c-0.6,0-1.3,0-1.9,0c-0.4,0-0.7,0-1.1-0.1
		c-0.2,0-0.5,0-0.7,0c-0.5,0-1-0.1-1.4-0.1c-0.1,0-0.2,0-0.3,0c-0.5-0.1-1.1-0.1-1.6-0.2c0,0,0,0,0,0c-2.6-0.4-4.9-1-6.7-1.7
		c0,0,0,0,0,0c-0.3-0.1-0.6-0.3-0.9-0.4c0,0-0.1,0-0.1,0c-0.3-0.1-0.5-0.3-0.7-0.4c-0.1,0-0.1-0.1-0.2-0.1c-0.2-0.1-0.4-0.2-0.6-0.4
		c-0.1,0-0.1-0.1-0.2-0.1c-0.1-0.1-0.3-0.2-0.4-0.3c-0.1-0.1-0.1-0.1-0.2-0.2c-0.1-0.1-0.2-0.2-0.3-0.3c-0.1-0.1-0.1-0.1-0.2-0.2
		c-0.1-0.1-0.1-0.2-0.2-0.3c0-0.1-0.1-0.2-0.1-0.2c0-0.1-0.1-0.2-0.1-0.3c0-0.1-0.1-0.2-0.1-0.4c0-0.1,0-0.2,0-0.3
		c0-0.1,0-0.2,0-0.3v-5.8c0,0,0,0,0.1,0.1c0.2,0.1,0.3,0.3,0.5,0.4c2.9,2.2,8.8,3.9,17.3,3.9c8.5,0,14.3-1.7,17.3-3.9
		c0.2-0.2,0.4-0.3,0.6-0.5l0,0v5.8c0,0.1,0,0.2,0,0.3c0,0.1,0,0.2,0,0.3C225.2,277.3,225.2,277.4,225.2,277.5z M225.2,261.4v5.8
		c0,0.1,0,0.2,0,0.3c0,0.1,0,0.2,0,0.3c0,0.1,0,0.3-0.1,0.4c0,0.1-0.1,0.2-0.1,0.3c0,0.1-0.1,0.2-0.1,0.2c-0.1,0.1-0.1,0.2-0.2,0.3
		c-0.1,0.1-0.1,0.1-0.2,0.2c-0.1,0.1-0.2,0.2-0.3,0.3c-0.1,0.1-0.1,0.1-0.2,0.2c-0.1,0.1-0.3,0.2-0.4,0.3c-0.1,0-0.1,0.1-0.2,0.1
		c-0.2,0.1-0.4,0.2-0.6,0.4c-0.1,0-0.1,0.1-0.2,0.1c-0.2,0.1-0.5,0.3-0.7,0.4c0,0-0.1,0-0.1,0c-0.3,0.1-0.6,0.3-0.9,0.4c0,0,0,0,0,0
		c-1.8,0.7-4,1.3-6.7,1.7c0,0,0,0,0,0c-0.5,0.1-1,0.1-1.6,0.2c-0.1,0-0.2,0-0.3,0c-0.5,0-0.9,0.1-1.4,0.1c-0.2,0-0.5,0-0.7,0
		c-0.4,0-0.7,0-1.1,0.1c-0.6,0-1.2,0-1.9,0c-0.6,0-1.3,0-1.9,0c-0.4,0-0.7,0-1.1-0.1c-0.2,0-0.5,0-0.7,0c-0.5,0-1-0.1-1.4-0.1
		c-0.1,0-0.2,0-0.3,0c-0.5-0.1-1.1-0.1-1.6-0.2c0,0,0,0,0,0c-2.6-0.4-4.9-1-6.7-1.7c0,0,0,0,0,0c-0.3-0.1-0.6-0.3-0.9-0.4
		c0,0-0.1,0-0.1,0c-0.3-0.1-0.5-0.3-0.7-0.4c-0.1,0-0.1-0.1-0.2-0.1c-0.2-0.1-0.4-0.2-0.6-0.4c-0.1,0-0.1-0.1-0.2-0.1
		c-0.1-0.1-0.3-0.2-0.4-0.3c-0.1-0.1-0.1-0.1-0.2-0.2c-0.1-0.1-0.2-0.2-0.3-0.3c-0.1-0.1-0.1-0.1-0.2-0.2c-0.1-0.1-0.1-0.2-0.2-0.3
		c0-0.1-0.1-0.2-0.1-0.2c0-0.1-0.1-0.2-0.1-0.3c0-0.1-0.1-0.2-0.1-0.4c0-0.1,0-0.2,0-0.3c0-0.1,0-0.2,0-0.3v-5.8
		c0.1,0.1,0.2,0.2,0.3,0.3c0.1,0,0.1,0.1,0.2,0.1c0.2,0.2,0.5,0.4,0.8,0.5c0.1,0,0.1,0.1,0.2,0.1c0.2,0.1,0.5,0.3,0.7,0.4
		c0.1,0.1,0.2,0.1,0.3,0.2c0.3,0.1,0.6,0.3,0.9,0.4c0.1,0,0.1,0,0.2,0.1c0.4,0.2,0.8,0.3,1.2,0.4c0.1,0,0.2,0.1,0.3,0.1
		c0.3,0.1,0.7,0.2,1,0.3c0.1,0,0.2,0.1,0.4,0.1c0.5,0.1,0.9,0.2,1.4,0.4c0.1,0,0.1,0,0.2,0c0.4,0.1,0.9,0.2,1.4,0.3
		c0.2,0,0.3,0.1,0.5,0.1c0.4,0.1,0.9,0.1,1.4,0.2c0.1,0,0.2,0,0.4,0c0.6,0.1,1.2,0.1,1.8,0.2c0.2,0,0.3,0,0.5,0c0.5,0,1,0.1,1.5,0.1
		c0.2,0,0.4,0,0.6,0c0.7,0,1.4,0,2.1,0c0.7,0,1.4,0,2.1,0c0.2,0,0.4,0,0.6,0c0.5,0,1-0.1,1.5-0.1c0.2,0,0.3,0,0.5,0
		c0.6-0.1,1.2-0.1,1.8-0.2c0.1,0,0.2,0,0.4,0c0.5-0.1,0.9-0.1,1.4-0.2c0.2,0,0.3-0.1,0.5-0.1c0.5-0.1,0.9-0.2,1.4-0.3
		c0.1,0,0.1,0,0.2,0c0.5-0.1,1-0.2,1.4-0.4c0.1,0,0.2-0.1,0.4-0.1c0.3-0.1,0.7-0.2,1-0.3c0.1,0,0.2-0.1,0.3-0.1
		c0.4-0.1,0.8-0.3,1.2-0.4c0.1,0,0.1,0,0.2-0.1c0.3-0.1,0.6-0.3,0.9-0.4c0.1,0,0.2-0.1,0.3-0.2c0.3-0.1,0.5-0.3,0.7-0.4
		c0.1,0,0.1-0.1,0.2-0.1c0.3-0.2,0.5-0.4,0.8-0.5c0.1,0,0.1-0.1,0.2-0.1C225,261.6,225.1,261.5,225.2,261.4z M207.3,252.7
		c10.5,0,17.9,3.1,17.9,5.8s-7.3,5.8-17.9,5.8s-17.9-3.1-17.9-5.8S196.8,252.7,207.3,252.7z M225.2,286.7c0,0,0,0.1,0,0.1
		c-0.4,2.7-7.7,5.6-17.9,5.6c-10.1,0-17.4-2.9-17.9-5.6c0,0,0-0.1,0-0.1v-6.5c0,0,0,0,0.1,0.1c0.2,0.1,0.3,0.3,0.5,0.4
		c2.9,2.2,8.8,3.9,17.3,3.9c8.5,0,14.3-1.7,17.3-3.9c0.2-0.2,0.4-0.3,0.6-0.5l0,0V286.7z"/>
</g>
<rect id="XMLID_23_" x="377.8" y="447.6" transform="matrix(-1.836970e-16 1 -1 -1.836970e-16 845.1372 52.6352)" class="st0" width="36.9" height="2.6"/>
<rect id="XMLID_22_" x="246.9" y="431.5" transform="matrix(-0.866 0.5 -0.5 -0.866 787.5674 654.5167)" class="st0" width="118.4" height="2.6"/>
<rect id="XMLID_21_" x="428.9" y="338.5" transform="matrix(-0.866 0.5 -0.5 -0.866 1041.4915 400.5926)" class="st0" width="76.4" height="2.6"/>
<rect id="XMLID_19_" x="564.9" y="269.6" transform="matrix(-0.866 0.5 -0.5 -0.866 1229.9301 212.154)" class="st0" width="43.3" height="2.6"/>
<rect id="XMLID_18_" x="427.3" y="431.5" transform="matrix(0.866 0.5 -0.5 0.866 281.5627 -185.2617)" class="st0" width="118.4" height="2.6"/>
<rect id="XMLID_16_" x="563.7" y="331.8" transform="matrix(0.866 0.5 -0.5 0.866 245.5033 -250.0363)" class="st0" width="51.3" height="2.6"/>
<polygon class="st1" points="351.9,355 396.3,329.3 440.6,355 440.6,406.2 396.3,431.8 351.9,406.2 "/>
<polygon class="st1" points="363.7,485.2 396.3,466.4 428.8,485.2 428.8,522.8 396.3,541.6 363.7,522.8 "/>
<polygon class="st1" points="191.7,461.2 224.2,442.4 256.8,461.2 256.8,498.8 224.2,517.6 191.7,498.8 "/>
<polygon class="st1" points="535.7,461.2 568.3,442.4 600.9,461.2 600.9,498.8 568.3,517.6 535.7,498.8 "/>
<polygon class="st1" points="499.1,281.1 534.3,260.7 569.5,281.1 569.5,321.7 534.3,342.1 499.1,321.7 "/>
<rect x="602.2" y="225.2" class="st1" width="172.7" height="37"/>
<rect x="609.2" y="344.2" class="st1" width="193.4" height="37"/>
<g>
	<path class="st2" d="M589.7,305v-6.6L587,305h-0.4l-2.7-6.6v6.6h-1v-8h1.4l2.5,6l2.5-6h1.4v8H589.7z"/>
	<path class="st2" d="M592.2,302.1c0-1.7,1.1-3,2.9-3c1.8,0,2.9,1.4,2.9,3c0,1.7-1.1,3-2.9,3C593.3,305.1,592.2,303.8,592.2,302.1z
		 M597,302.1c0-1.2-0.7-2.2-1.9-2.2s-1.9,1.1-1.9,2.2c0,1.2,0.7,2.2,1.9,2.2S597,303.3,597,302.1z"/>
	<path class="st2" d="M598.8,304.2c0.5-0.1,0.9-0.5,1.1-2.2l0.4-2.9h4v5h0.7v2.3H604V305h-4.4v1.5h-0.9V304.2z M600.8,302.2
		c-0.1,1.1-0.4,1.7-0.8,2h3.4V300H601L600.8,302.2z"/>
	<path class="st2" d="M606,306.4c0.1,0.1,0.3,0.1,0.5,0.1c0.4,0,0.7-0.1,0.9-0.6l0.4-0.9l-2.4-5.9h1l1.9,4.7l1.9-4.7h1l-2.9,7
		c-0.3,0.8-0.9,1.2-1.7,1.2c-0.2,0-0.5,0-0.7-0.1L606,306.4z"/>
	<path class="st2" d="M611.4,304.4c0.5,0,0.9-0.6,1.1-2.3l0.4-2.9h4v5.8H616v-5h-2.3l-0.3,2.2c-0.3,2.2-0.9,3-2,3V304.4z"/>
	<path class="st2" d="M619.6,299.2v2.2h2.2c1.2,0,1.8,0.8,1.8,1.8c0,1-0.6,1.8-1.8,1.8h-3.1v-5.8H619.6z M619.6,302.2v2h2.1
		c0.6,0,1-0.4,1-1c0-0.6-0.3-1-1-1H619.6z"/>
	<path class="st2" d="M628,305v-5.8h3.2c1,0,1.6,0.6,1.6,1.5c0,0.7-0.4,1.2-0.9,1.3c0.6,0.1,1.1,0.8,1.1,1.4c0,0.9-0.6,1.6-1.7,1.6
		H628z M631.9,300.8c0-0.5-0.3-0.8-0.9-0.8h-2.1v1.6h2.1C631.6,301.6,631.9,301.3,631.9,300.8z M632,303.3c0-0.5-0.3-0.9-0.9-0.9
		h-2.2v1.8h2.2C631.7,304.2,632,303.9,632,303.3z"/>
	<path class="st2" d="M638.4,305l-1.7-2.4L635,305h-1l2.2-3l-2.1-2.8h1l1.6,2.2l1.6-2.2h1l-2.1,2.8l2.2,3H638.4z"/>
	<path class="st2" d="M640.2,302.1c0-1.7,1.1-3,2.9-3c1.8,0,2.9,1.4,2.9,3c0,1.7-1.1,3-2.9,3C641.3,305.1,640.2,303.8,640.2,302.1z
		 M645,302.1c0-1.2-0.7-2.2-1.9-2.2s-1.9,1.1-1.9,2.2c0,1.2,0.7,2.2,1.9,2.2S645,303.3,645,302.1z"/>
	<path class="st2" d="M646.7,304.2c0.5-0.1,0.9-0.5,1.1-2.2l0.4-2.9h4v5h0.7v2.3H652V305h-4.4v1.5h-0.9V304.2z M648.7,302.2
		c-0.1,1.1-0.4,1.7-0.8,2h3.4V300H649L648.7,302.2z"/>
	<path class="st2" d="M653.8,302.1c0-1.7,1.1-3,2.9-3c1.8,0,2.9,1.4,2.9,3c0,1.7-1.1,3-2.9,3C654.9,305.1,653.8,303.8,653.8,302.1z
		 M658.6,302.1c0-1.2-0.7-2.2-1.9-2.2s-1.9,1.1-1.9,2.2c0,1.2,0.7,2.2,1.9,2.2S658.6,303.3,658.6,302.1z"/>
	<path class="st2" d="M661,305v-5.8h3.2c1,0,1.6,0.6,1.6,1.5c0,0.7-0.4,1.2-0.9,1.3c0.6,0.1,1.1,0.8,1.1,1.4c0,0.9-0.6,1.6-1.7,1.6
		H661z M664.9,300.8c0-0.5-0.3-0.8-0.9-0.8h-2.1v1.6h2.1C664.6,301.6,664.9,301.3,664.9,300.8z M665,303.3c0-0.5-0.3-0.9-0.9-0.9
		h-2.2v1.8h2.2C664.6,304.2,665,303.9,665,303.3z"/>
	<path class="st2" d="M666.7,305.2l2.8-8.5h0.7l-2.8,8.5H666.7z"/>
	<path class="st2" d="M671.2,305v-5.8h3.2c1,0,1.6,0.6,1.6,1.5c0,0.7-0.4,1.2-0.9,1.3c0.6,0.1,1.1,0.8,1.1,1.4
		c0,0.9-0.6,1.6-1.7,1.6H671.2z M675.1,300.8c0-0.5-0.3-0.8-0.9-0.8h-2.1v1.6h2.1C674.8,301.6,675.1,301.3,675.1,300.8z
		 M675.2,303.3c0-0.5-0.3-0.9-0.9-0.9h-2.2v1.8h2.2C674.8,304.2,675.2,303.9,675.2,303.3z"/>
	<path class="st2" d="M678.7,299.2v2.2h2.2c1.2,0,1.8,0.8,1.8,1.8c0,1-0.6,1.8-1.8,1.8h-3.1v-5.8H678.7z M678.7,302.2v2h2.1
		c0.6,0,1-0.4,1-1c0-0.6-0.3-1-1-1H678.7z M683.7,305v-5.8h0.9v5.8H683.7z"/>
	<path class="st2" d="M690.1,305l-1.7-2.4l-1.7,2.4h-1l2.2-3l-2.1-2.8h1l1.6,2.2l1.6-2.2h1l-2.1,2.8l2.2,3H690.1z"/>
	<path class="st2" d="M691.9,302.1c0-1.7,1.1-3,2.9-3c1.8,0,2.9,1.4,2.9,3c0,1.7-1.1,3-2.9,3C693,305.1,691.9,303.8,691.9,302.1z
		 M696.6,302.1c0-1.2-0.7-2.2-1.9-2.2s-1.9,1.1-1.9,2.2c0,1.2,0.7,2.2,1.9,2.2S696.6,303.3,696.6,302.1z"/>
	<path class="st2" d="M698.4,304.2c0.5-0.1,0.9-0.5,1.1-2.2l0.4-2.9h4v5h0.7v2.3h-0.9V305h-4.4v1.5h-0.9V304.2z M700.4,302.2
		c-0.1,1.1-0.4,1.7-0.8,2h3.4V300h-2.3L700.4,302.2z"/>
	<path class="st2" d="M705.5,302.1c0-1.7,1.1-3,2.9-3c1.8,0,2.9,1.4,2.9,3c0,1.7-1.1,3-2.9,3C706.6,305.1,705.5,303.8,705.5,302.1z
		 M710.2,302.1c0-1.2-0.7-2.2-1.9-2.2s-1.9,1.1-1.9,2.2c0,1.2,0.7,2.2,1.9,2.2S710.2,303.3,710.2,302.1z"/>
	<path class="st2" d="M712.7,305v-5.8h3.2c1,0,1.6,0.6,1.6,1.5c0,0.7-0.4,1.2-0.9,1.3c0.6,0.1,1.1,0.8,1.1,1.4
		c0,0.9-0.6,1.6-1.7,1.6H712.7z M716.6,300.8c0-0.5-0.3-0.8-0.9-0.8h-2.1v1.6h2.1C716.3,301.6,716.6,301.3,716.6,300.8z
		 M716.7,303.3c0-0.5-0.3-0.9-0.9-0.9h-2.2v1.8h2.2C716.3,304.2,716.7,303.9,716.7,303.3z"/>
</g>
<g>
	<path class="st2" d="M454.3,377.8h-6.4v-8h1v7.1h4.7v-7.1h1v7.1h0.7v2.4h-1V377.8z"/>
	<path class="st2" d="M456.2,374.9c0-1.7,1.2-3,2.9-3c1.8,0,2.8,1.4,2.8,3.1v0.2h-4.7c0.1,1.1,0.8,2,2.1,2c0.7,0,1.3-0.3,1.8-0.7
		l0.4,0.6c-0.6,0.6-1.4,0.9-2.3,0.9C457.4,377.9,456.2,376.7,456.2,374.9z M459,372.6c-1.2,0-1.8,1-1.9,1.9h3.8
		C460.9,373.7,460.3,372.6,459,372.6z"/>
	<path class="st2" d="M463.3,377.8V372h0.9v2.4h3V372h0.9v5.8h-0.9v-2.6h-3v2.6H463.3z"/>
	<path class="st2" d="M470.9,377.8v-5h-1.7V372h4.3v0.8h-1.7v5H470.9z"/>
	<path class="st2" d="M475.6,376.9v3.1h-0.9v-8h0.9v0.9c0.4-0.6,1.1-1,2-1c1.5,0,2.6,1.2,2.6,3c0,1.9-1.1,3-2.6,3
		C476.8,377.9,476.1,377.6,475.6,376.9z M479.2,374.9c0-1.3-0.7-2.2-1.9-2.2c-0.7,0-1.4,0.4-1.7,0.9v2.6c0.3,0.5,1,0.9,1.7,0.9
		C478.5,377.1,479.2,376.2,479.2,374.9z"/>
	<path class="st2" d="M485.2,377.8v-0.7c-0.5,0.5-1.1,0.8-1.9,0.8c-1,0-2-0.7-2-1.9c0-1.3,1-1.9,2-1.9c0.8,0,1.5,0.3,1.9,0.8v-1
		c0-0.8-0.6-1.2-1.5-1.2c-0.7,0-1.3,0.3-1.8,0.8l-0.4-0.6c0.6-0.6,1.4-1,2.3-1c1.2,0,2.2,0.6,2.2,2v4H485.2z M485.2,376.6v-1.1
		c-0.3-0.5-1-0.7-1.6-0.7c-0.8,0-1.4,0.5-1.4,1.3c0,0.7,0.6,1.3,1.4,1.3C484.2,377.3,484.8,377.1,485.2,376.6z"/>
	<path class="st2" d="M487.2,377.2c0.5,0,0.9-0.6,1.1-2.3l0.4-2.9h4v5.8h-0.9v-5h-2.3l-0.3,2.2c-0.3,2.2-0.9,3-2,3V377.2z"/>
	<path class="st2" d="M495.4,372v2.2h2.2c1.2,0,1.8,0.8,1.8,1.8c0,1-0.6,1.8-1.8,1.8h-3.1V372H495.4z M495.4,375v2h2.1
		c0.6,0,1-0.4,1-1c0-0.6-0.3-1-1-1H495.4z"/>
	<path class="st2" d="M500.8,377.8V372h0.9v2.4h3V372h0.9v5.8h-0.9v-2.6h-3v2.6H500.8z"/>
	<path class="st2" d="M508.3,372v2.2h2.2c1.2,0,1.8,0.8,1.8,1.8c0,1-0.6,1.8-1.8,1.8h-3.1V372H508.3z M508.3,375v2h2.1
		c0.6,0,1-0.4,1-1c0-0.6-0.3-1-1-1H508.3z M513.2,377.8V372h0.9v5.8H513.2z"/>
	<path class="st2" d="M515.9,377.8V372h0.9v4.4l3-4.4h0.9v5.8h-0.9v-4.5l-3.1,4.5H515.9z M518.4,371.3c-0.9,0-1.6-0.4-2.1-1.1
		l0.4-0.4c0.4,0.5,1,0.9,1.7,0.9c0.7,0,1.3-0.3,1.7-0.9l0.4,0.4C520,370.9,519.2,371.3,518.4,371.3z"/>
	<path class="st2" d="M529.6,377.8l-2.1-2.6l-1,0.9v1.7h-0.9V372h0.9v3.1l3-3.1h1.1l-2.6,2.6l2.6,3.2H529.6z"/>
	<path class="st2" d="M531.5,374.9c0-1.7,1.1-3,2.9-3c1.8,0,2.9,1.4,2.9,3c0,1.7-1.1,3-2.9,3C532.6,377.9,531.5,376.6,531.5,374.9z
		 M536.3,374.9c0-1.2-0.7-2.2-1.9-2.2s-1.9,1.1-1.9,2.2c0,1.2,0.7,2.2,1.9,2.2S536.3,376.1,536.3,374.9z"/>
	<path class="st2" d="M538.7,377.8V372h0.9v2.4h3V372h0.9v5.8h-0.9v-2.6h-3v2.6H538.7z"/>
	<path class="st2" d="M546.4,377.8v-5h-1.7V372h4.3v0.8h-1.7v5H546.4z"/>
	<path class="st2" d="M551,376.9v3.1h-0.9v-8h0.9v0.9c0.4-0.6,1.1-1,2-1c1.5,0,2.6,1.2,2.6,3c0,1.9-1.1,3-2.6,3
		C552.2,377.9,551.5,377.6,551,376.9z M554.6,374.9c0-1.3-0.7-2.2-1.9-2.2c-0.7,0-1.4,0.4-1.7,0.9v2.6c0.3,0.5,1,0.9,1.7,0.9
		C553.9,377.1,554.6,376.2,554.6,374.9z"/>
	<path class="st2" d="M556.7,374.9c0-1.7,1.1-3,2.9-3c1.8,0,2.9,1.4,2.9,3c0,1.7-1.1,3-2.9,3C557.8,377.9,556.7,376.6,556.7,374.9z
		 M561.5,374.9c0-1.2-0.7-2.2-1.9-2.2s-1.9,1.1-1.9,2.2c0,1.2,0.7,2.2,1.9,2.2S561.5,376.1,561.5,374.9z"/>
	<path class="st2" d="M563.2,377.2c0.5,0,0.9-0.6,1.1-2.3l0.4-2.9h4v5.8h-0.9v-5h-2.3l-0.3,2.2c-0.3,2.2-0.9,3-2,3V377.2z"/>
	<path class="st2" d="M569.8,377.2c0.5,0,0.9-0.6,1.1-2.3l0.4-2.9h4v5.8h-0.9v-5h-2.3l-0.3,2.2c-0.3,2.2-0.9,3-2,3V377.2z"/>
	<path class="st2" d="M576.8,374.9c0-1.7,1.2-3,2.9-3c1.8,0,2.8,1.4,2.8,3.1v0.2h-4.7c0.1,1.1,0.8,2,2.1,2c0.7,0,1.3-0.3,1.8-0.7
		l0.4,0.6c-0.6,0.6-1.4,0.9-2.3,0.9C578,377.9,576.8,376.7,576.8,374.9z M579.6,372.6c-1.2,0-1.8,1-1.9,1.9h3.8
		C581.5,373.7,580.9,372.6,579.6,372.6z"/>
	<path class="st2" d="M584.8,376.9v3.1h-0.9v-8h0.9v0.9c0.4-0.6,1.1-1,2-1c1.5,0,2.6,1.2,2.6,3c0,1.9-1.1,3-2.6,3
		C585.9,377.9,585.2,377.6,584.8,376.9z M588.4,374.9c0-1.3-0.7-2.2-1.9-2.2c-0.7,0-1.4,0.4-1.7,0.9v2.6c0.3,0.5,1,0.9,1.7,0.9
		C587.7,377.1,588.4,376.2,588.4,374.9z"/>
	<path class="st2" d="M448,387.7c0-2.5,1.8-4.1,4.1-4.1c1.4,0,2.4,0.7,3,1.6l-0.8,0.5c-0.5-0.7-1.3-1.2-2.2-1.2
		c-1.8,0-3.1,1.3-3.1,3.3c0,1.9,1.3,3.3,3.1,3.3c0.9,0,1.7-0.5,2.2-1.2l0.9,0.5c-0.7,0.9-1.6,1.6-3,1.6
		C449.8,391.8,448,390.1,448,387.7z"/>
	<path class="st2" d="M461.2,391.6l-3-3.6l-0.8,0.9v2.7h-1v-8h1v4.1l3.5-4.1h1.2l-3.3,3.8l3.6,4.2H461.2z"/>
	<path class="st2" d="M462.9,391.2l0.4-0.8c0.3,0.3,0.6,0.5,1.1,0.5c0.6,0,0.9-0.3,1.3-1.1l0.1-0.3l-3.1-5.8h1.1l2.5,5l2.5-5h1.1
		l-3.5,6.6c-0.5,0.9-1,1.6-2.2,1.6C463.8,391.8,463.2,391.5,462.9,391.2z"/>
	<path class="st2" d="M470.6,390.8c1-0.1,1.5-0.5,1.8-3.2l0.5-4h4.9v7.1h0.7v2.4h-1v-1.5h-6v1.5h-1V390.8z M472.2,390.8h4.6v-6.2h-3
		l-0.4,3.2C473.2,389.4,472.8,390.3,472.2,390.8z"/>
</g>
<g>
	<path class="st2" d="M186.1,537.5l-3-3.6l-0.8,0.9v2.7h-1v-8h1v4.1l3.5-4.1h1.2l-3.3,3.8l3.6,4.2H186.1z"/>
	<path class="st2" d="M188.1,534.6c0-1.7,1.1-3,2.9-3c1.8,0,2.9,1.4,2.9,3c0,1.7-1.1,3-2.9,3C189.2,537.7,188.1,536.3,188.1,534.6z
		 M192.9,534.6c0-1.2-0.7-2.2-1.9-2.2s-1.9,1.1-1.9,2.2c0,1.2,0.7,2.2,1.9,2.2S192.9,535.8,192.9,534.6z"/>
	<path class="st2" d="M195.3,537.5v-5.8h0.9v2.4h3v-2.4h0.9v5.8h-0.9v-2.6h-3v2.6H195.3z"/>
	<path class="st2" d="M203,537.5v-5h-1.7v-0.8h4.3v0.8h-1.7v5H203z"/>
	<path class="st2" d="M207.7,536.7v3.1h-0.9v-8h0.9v0.9c0.4-0.6,1.1-1,2-1c1.5,0,2.6,1.2,2.6,3c0,1.9-1.1,3-2.6,3
		C208.8,537.7,208.1,537.3,207.7,536.7z M211.3,534.6c0-1.3-0.7-2.2-1.9-2.2c-0.7,0-1.4,0.4-1.7,0.9v2.6c0.3,0.5,1,0.9,1.7,0.9
		C210.6,536.9,211.3,535.9,211.3,534.6z"/>
	<path class="st2" d="M213.3,534.6c0-1.7,1.1-3,2.9-3c1.8,0,2.9,1.4,2.9,3c0,1.7-1.1,3-2.9,3C214.4,537.7,213.3,536.3,213.3,534.6z
		 M218.1,534.6c0-1.2-0.7-2.2-1.9-2.2s-1.9,1.1-1.9,2.2c0,1.2,0.7,2.2,1.9,2.2S218.1,535.8,218.1,534.6z"/>
	<path class="st2" d="M219.8,536.9c0.5,0,0.9-0.6,1.1-2.3l0.4-2.9h4v5.8h-0.9v-5h-2.3l-0.3,2.2c-0.3,2.2-0.9,3-2,3V536.9z"/>
	<path class="st2" d="M228,531.7v2.2h2.2c1.2,0,1.8,0.8,1.8,1.8c0,1-0.6,1.8-1.8,1.8h-3.1v-5.8H228z M228,534.8v2h2.1
		c0.6,0,1-0.4,1-1c0-0.6-0.3-1-1-1H228z"/>
	<path class="st2" d="M236.5,537.5v-5.8h3.2c1,0,1.6,0.6,1.6,1.5c0,0.7-0.4,1.2-0.9,1.3c0.6,0.1,1.1,0.8,1.1,1.4
		c0,0.9-0.6,1.6-1.7,1.6H236.5z M240.4,533.4c0-0.5-0.3-0.8-0.9-0.8h-2.1v1.6h2.1C240.1,534.2,240.4,533.8,240.4,533.4z
		 M240.5,535.9c0-0.5-0.3-0.9-0.9-0.9h-2.2v1.8h2.2C240.1,536.7,240.5,536.4,240.5,535.9z"/>
	<path class="st2" d="M246.9,537.5l-1.7-2.4l-1.7,2.4h-1l2.2-3l-2.1-2.8h1l1.6,2.2l1.6-2.2h1l-2.1,2.8l2.2,3H246.9z"/>
	<path class="st2" d="M248.6,534.6c0-1.7,1.1-3,2.9-3c1.8,0,2.9,1.4,2.9,3c0,1.7-1.1,3-2.9,3C249.7,537.7,248.6,536.3,248.6,534.6z
		 M253.4,534.6c0-1.2-0.7-2.2-1.9-2.2s-1.9,1.1-1.9,2.2c0,1.2,0.7,2.2,1.9,2.2S253.4,535.8,253.4,534.6z"/>
	<path class="st2" d="M255.1,536.8c0.5-0.1,0.9-0.5,1.1-2.2l0.4-2.9h4v5h0.7v2.3h-0.9v-1.5H256v1.5h-0.9V536.8z M257.1,534.7
		c-0.1,1.1-0.4,1.7-0.8,2h3.4v-4.2h-2.3L257.1,534.7z"/>
	<path class="st2" d="M266.2,537.5v-0.7c-0.5,0.5-1.1,0.8-1.9,0.8c-1,0-2-0.7-2-1.9c0-1.3,1-1.9,2-1.9c0.8,0,1.5,0.3,1.9,0.8v-1
		c0-0.8-0.6-1.2-1.5-1.2c-0.7,0-1.3,0.3-1.8,0.8l-0.4-0.6c0.6-0.6,1.4-1,2.3-1c1.2,0,2.2,0.6,2.2,2v4H266.2z M266.2,536.3v-1.1
		c-0.3-0.5-1-0.7-1.6-0.7c-0.8,0-1.4,0.5-1.4,1.3c0,0.7,0.6,1.3,1.4,1.3C265.2,537,265.8,536.8,266.2,536.3z"/>
</g>
<g>
	<path class="st2" d="M520.8,537.5l-3-3.6l-0.8,0.9v2.7h-1v-8h1v4.1l3.5-4.1h1.2l-3.3,3.8l3.6,4.2H520.8z"/>
	<path class="st2" d="M522.8,534.6c0-1.7,1.1-3,2.9-3c1.8,0,2.9,1.4,2.9,3c0,1.7-1.1,3-2.9,3C523.9,537.7,522.8,536.3,522.8,534.6z
		 M527.6,534.6c0-1.2-0.7-2.2-1.9-2.2s-1.9,1.1-1.9,2.2c0,1.2,0.7,2.2,1.9,2.2S527.6,535.8,527.6,534.6z"/>
	<path class="st2" d="M530,537.5v-5.8h0.9v2.4h3v-2.4h0.9v5.8h-0.9v-2.6h-3v2.6H530z"/>
	<path class="st2" d="M537.7,537.5v-5H536v-0.8h4.3v0.8h-1.7v5H537.7z"/>
	<path class="st2" d="M542.3,536.7v3.1h-0.9v-8h0.9v0.9c0.4-0.6,1.1-1,2-1c1.5,0,2.6,1.2,2.6,3c0,1.9-1.1,3-2.6,3
		C543.5,537.7,542.8,537.3,542.3,536.7z M545.9,534.6c0-1.3-0.7-2.2-1.9-2.2c-0.7,0-1.4,0.4-1.7,0.9v2.6c0.3,0.5,1,0.9,1.7,0.9
		C545.2,536.9,545.9,535.9,545.9,534.6z"/>
	<path class="st2" d="M548,534.6c0-1.7,1.1-3,2.9-3c1.8,0,2.9,1.4,2.9,3c0,1.7-1.1,3-2.9,3C549.1,537.7,548,536.3,548,534.6z
		 M552.7,534.6c0-1.2-0.7-2.2-1.9-2.2s-1.9,1.1-1.9,2.2c0,1.2,0.7,2.2,1.9,2.2S552.7,535.8,552.7,534.6z"/>
	<path class="st2" d="M554.5,536.9c0.5,0,0.9-0.6,1.1-2.3l0.4-2.9h4v5.8h-0.9v-5h-2.3l-0.3,2.2c-0.3,2.2-0.9,3-2,3V536.9z"/>
	<path class="st2" d="M562.7,531.7v2.2h2.2c1.2,0,1.8,0.8,1.8,1.8c0,1-0.6,1.8-1.8,1.8h-3.1v-5.8H562.7z M562.7,534.8v2h2.1
		c0.6,0,1-0.4,1-1c0-0.6-0.3-1-1-1H562.7z"/>
	<path class="st2" d="M575.1,537.5v-5h-3v5h-0.9v-5.8h4.8v5.8H575.1z"/>
	<path class="st2" d="M581.4,537.5v-0.7c-0.5,0.5-1.1,0.8-1.9,0.8c-1,0-2-0.7-2-1.9c0-1.3,1-1.9,2-1.9c0.8,0,1.5,0.3,1.9,0.8v-1
		c0-0.8-0.6-1.2-1.5-1.2c-0.7,0-1.3,0.3-1.8,0.8l-0.4-0.6c0.6-0.6,1.4-1,2.3-1c1.2,0,2.2,0.6,2.2,2v4H581.4z M581.4,536.3v-1.1
		c-0.3-0.5-1-0.7-1.6-0.7c-0.8,0-1.4,0.5-1.4,1.3c0,0.7,0.6,1.3,1.4,1.3C580.4,537,581,536.8,581.4,536.3z"/>
	<path class="st2" d="M585,536.7v3.1h-0.9v-8h0.9v0.9c0.4-0.6,1.1-1,2-1c1.5,0,2.6,1.2,2.6,3c0,1.9-1.1,3-2.6,3
		C586.2,537.7,585.5,537.3,585,536.7z M588.6,534.6c0-1.3-0.7-2.2-1.9-2.2c-0.7,0-1.4,0.4-1.7,0.9v2.6c0.3,0.5,1,0.9,1.7,0.9
		C587.9,536.9,588.6,535.9,588.6,534.6z"/>
	<path class="st2" d="M594.9,537.5l-2.1-2.6l-1,0.9v1.7H591v-5.8h0.9v3.1l3-3.1h1.1l-2.6,2.6l2.6,3.2H594.9z"/>
	<path class="st2" d="M597.1,537.5v-5.8h0.9v4.4l3-4.4h0.9v5.8H601V533l-3.1,4.5H597.1z"/>
	<path class="st2" d="M603.7,537.5v-5.8h0.9v2.4h3v-2.4h0.9v5.8h-0.9v-2.6h-3v2.6H603.7z"/>
	<path class="st2" d="M614.4,532.5h-3.2v5h-0.9v-5.8h4.1V532.5z"/>
	<path class="st2" d="M619.2,537.5v-0.7c-0.5,0.5-1.1,0.8-1.9,0.8c-1,0-2-0.7-2-1.9c0-1.3,1-1.9,2-1.9c0.8,0,1.5,0.3,1.9,0.8v-1
		c0-0.8-0.6-1.2-1.5-1.2c-0.7,0-1.3,0.3-1.8,0.8l-0.4-0.6c0.6-0.6,1.4-1,2.3-1c1.2,0,2.2,0.6,2.2,2v4H619.2z M619.2,536.3v-1.1
		c-0.3-0.5-1-0.7-1.6-0.7c-0.8,0-1.4,0.5-1.4,1.3c0,0.7,0.6,1.3,1.4,1.3C618.3,537,618.9,536.8,619.2,536.3z"/>
</g>
<g>
	<path class="st2" d="M372.4,562.2v-7.1h-4.7v7.1h-1v-8h6.7v8H372.4z"/>
	<path class="st2" d="M376.1,561.3v3.1h-0.9v-8h0.9v0.9c0.4-0.6,1.1-1,2-1c1.5,0,2.6,1.2,2.6,3c0,1.9-1.1,3-2.6,3
		C377.3,562.3,376.6,562,376.1,561.3z M379.7,559.3c0-1.3-0.7-2.2-1.9-2.2c-0.7,0-1.4,0.4-1.7,0.9v2.6c0.3,0.5,1,0.9,1.7,0.9
		C379,561.5,379.7,560.6,379.7,559.3z"/>
	<path class="st2" d="M381.7,559.3c0-1.7,1.1-3,2.9-3c1.8,0,2.9,1.4,2.9,3c0,1.7-1.1,3-2.9,3C382.8,562.3,381.7,561,381.7,559.3z
		 M386.5,559.3c0-1.2-0.7-2.2-1.9-2.2s-1.9,1.1-1.9,2.2c0,1.2,0.7,2.2,1.9,2.2S386.5,560.5,386.5,559.3z"/>
	<path class="st2" d="M392.7,562.2l-1.7-2.4l-1.7,2.4h-1l2.2-3l-2.1-2.8h1l1.6,2.2l1.6-2.2h1l-2.1,2.8l2.2,3H392.7z"/>
	<path class="st2" d="M394.4,559.3c0-1.7,1.1-3,2.9-3c1.8,0,2.9,1.4,2.9,3c0,1.7-1.1,3-2.9,3C395.5,562.3,394.4,561,394.4,559.3z
		 M399.2,559.3c0-1.2-0.7-2.2-1.9-2.2s-1.9,1.1-1.9,2.2c0,1.2,0.7,2.2,1.9,2.2S399.2,560.5,399.2,559.3z"/>
	<path class="st2" d="M401,561.5c0.5-0.1,0.9-0.5,1.1-2.2l0.4-2.9h4v5h0.7v2.3h-0.9v-1.5h-4.4v1.5H401V561.5z M403,559.4
		c-0.1,1.1-0.4,1.7-0.8,2h3.4v-4.2h-2.3L403,559.4z"/>
	<path class="st2" d="M408.4,562.2v-5.8h0.9v2.4h3v-2.4h0.9v5.8h-0.9v-2.6h-3v2.6H408.4z"/>
	<path class="st2" d="M418.6,562.2v-0.7c-0.5,0.5-1.1,0.8-1.9,0.8c-1,0-2-0.7-2-1.9c0-1.3,1-1.9,2-1.9c0.8,0,1.5,0.3,1.9,0.8v-1
		c0-0.8-0.6-1.2-1.5-1.2c-0.7,0-1.3,0.3-1.8,0.8l-0.4-0.6c0.6-0.6,1.4-1,2.3-1c1.2,0,2.2,0.6,2.2,2v4H418.6z M418.6,561v-1.1
		c-0.3-0.5-1-0.7-1.6-0.7c-0.8,0-1.4,0.5-1.4,1.3c0,0.7,0.6,1.3,1.4,1.3C417.7,561.7,418.3,561.5,418.6,561z"/>
	<path class="st2" d="M421.1,562.2l1.5-2.3c-0.9-0.1-1.5-0.8-1.5-1.7c0-1,0.7-1.8,1.8-1.8h3.1v5.8h-0.9V560h-1.6l-1.4,2.2H421.1z
		 M425.2,559.2v-2h-2.1c-0.6,0-1,0.4-1,1c0,0.6,0.3,1,1,1H425.2z"/>
</g>
<g>
	<path class="st0" d="M622.6,247.1l-3-3.6l-0.8,0.9v2.7h-1v-8h1v4.1l3.5-4.1h1.2l-3.3,3.8l3.6,4.2H622.6z"/>
	<path class="st0" d="M627.7,244.2c0-1.7,1.1-3,2.9-3c1.8,0,2.9,1.4,2.9,3c0,1.7-1.1,3-2.9,3C628.8,247.2,627.7,245.9,627.7,244.2z
		 M632.5,244.2c0-1.2-0.7-2.2-1.9-2.2s-1.9,1.1-1.9,2.2c0,1.2,0.7,2.2,1.9,2.2S632.5,245.4,632.5,244.2z"/>
	<path class="st0" d="M638.7,247.1l-1.7-2.4l-1.7,2.4h-1l2.2-3l-2.1-2.8h1l1.6,2.2l1.6-2.2h1l-2.1,2.8l2.2,3H638.7z"/>
	<path class="st0" d="M641.6,246.2v3.1h-0.9v-8h0.9v0.9c0.4-0.6,1.1-1,2-1c1.5,0,2.6,1.2,2.6,3c0,1.9-1.1,3-2.6,3
		C642.8,247.2,642.1,246.9,641.6,246.2z M645.2,244.2c0-1.3-0.7-2.2-1.9-2.2c-0.7,0-1.4,0.4-1.7,0.9v2.6c0.3,0.5,1,0.9,1.7,0.9
		C644.5,246.4,645.2,245.5,645.2,244.2z"/>
	<path class="st0" d="M651.2,247.1v-0.7c-0.5,0.5-1.1,0.8-1.9,0.8c-1,0-2-0.7-2-1.9c0-1.3,1-1.9,2-1.9c0.8,0,1.5,0.3,1.9,0.8v-1
		c0-0.8-0.6-1.2-1.5-1.2c-0.7,0-1.3,0.3-1.8,0.8l-0.4-0.6c0.6-0.6,1.4-1,2.3-1c1.2,0,2.2,0.6,2.2,2v4H651.2z M651.2,245.9v-1.1
		c-0.3-0.5-1-0.7-1.6-0.7c-0.8,0-1.4,0.5-1.4,1.3c0,0.7,0.6,1.3,1.4,1.3C650.3,246.6,650.9,246.3,651.2,245.9z"/>
	<path class="st0" d="M653.9,247.1v-5.8h0.9v2.4h3v-2.4h0.9v5.8h-0.9v-2.6h-3v2.6H653.9z"/>
	<path class="st0" d="M660.5,247.1v-5.8h0.9v2.4h3v-2.4h0.9v5.8h-0.9v-2.6h-3v2.6H660.5z"/>
	<path class="st0" d="M668.1,241.3v2.2h2.2c1.2,0,1.8,0.8,1.8,1.8c0,1-0.6,1.8-1.8,1.8h-3.1v-5.8H668.1z M668.1,244.3v2h2.1
		c0.6,0,1-0.4,1-1c0-0.6-0.3-1-1-1H668.1z M673,247.1v-5.8h0.9v5.8H673z"/>
	<path class="st0" d="M680.7,247.1v-4.5l-1.9,4.5h-0.3l-1.9-4.5v4.5h-0.9v-5.8h1.2l1.8,4.3l1.8-4.3h1.2v5.8H680.7z"/>
	<path class="st0" d="M686.5,247.1v-5.8h0.9v4.4l3-4.4h0.9v5.8h-0.9v-4.5l-3.1,4.5H686.5z"/>
	<path class="st0" d="M692.6,246.3l0.4-0.6c0.5,0.5,1.3,0.8,2.2,0.8c1,0,1.7-0.4,1.7-1c0-0.7-0.8-1-1.8-1h-1.3v-0.7h1.3
		c1,0,1.7-0.3,1.7-1c0-0.6-0.7-0.9-1.7-0.9c-0.8,0-1.5,0.2-1.9,0.7l-0.5-0.6c0.5-0.6,1.3-0.9,2.4-0.9c1.6,0,2.7,0.6,2.7,1.5
		c0,0.9-0.9,1.3-1.6,1.4c0.7,0,1.7,0.5,1.7,1.4c0,1-1,1.7-2.7,1.7C694,247.2,693.2,246.9,692.6,246.3z"/>
	<path class="st0" d="M699.3,247.1v-5.8h3.2c1,0,1.6,0.6,1.6,1.5c0,0.7-0.4,1.2-0.9,1.3c0.6,0.1,1.1,0.8,1.1,1.4
		c0,0.9-0.6,1.6-1.7,1.6H699.3z M703.2,242.9c0-0.5-0.3-0.8-0.9-0.8h-2.1v1.6h2.1C702.9,243.7,703.2,243.4,703.2,242.9z
		 M703.3,245.4c0-0.5-0.3-0.9-0.9-0.9h-2.2v1.8h2.2C703,246.3,703.3,246,703.3,245.4z"/>
	<path class="st0" d="M705.6,244.2c0-1.7,1.2-3,2.9-3c1.8,0,2.8,1.4,2.8,3.1v0.2h-4.7c0.1,1.1,0.8,2,2.1,2c0.7,0,1.3-0.3,1.8-0.7
		l0.4,0.6c-0.6,0.6-1.4,0.9-2.3,0.9C706.9,247.2,705.6,246,705.6,244.2z M708.5,241.9c-1.2,0-1.8,1-1.9,1.9h3.8
		C710.4,243,709.8,241.9,708.5,241.9z"/>
	<path class="st0" d="M720.3,241.3v5h0.7v2.3h-0.9v-1.5h-7.4v-5.8h0.9v5h2.4v-5h0.9v5h2.4v-5H720.3z"/>
	<path class="st0" d="M725.9,247.1v-0.7c-0.5,0.5-1.1,0.8-1.9,0.8c-1,0-2-0.7-2-1.9c0-1.3,1-1.9,2-1.9c0.8,0,1.5,0.3,1.9,0.8v-1
		c0-0.8-0.6-1.2-1.5-1.2c-0.7,0-1.3,0.3-1.8,0.8l-0.4-0.6c0.6-0.6,1.4-1,2.3-1c1.2,0,2.2,0.6,2.2,2v4H725.9z M725.9,245.9v-1.1
		c-0.3-0.5-1-0.7-1.6-0.7c-0.8,0-1.4,0.5-1.4,1.3c0,0.7,0.6,1.3,1.4,1.3C725,246.6,725.6,246.3,725.9,245.9z"/>
	<path class="st0" d="M729.7,247.1v-5H728v-0.8h4.3v0.8h-1.7v5H729.7z"/>
	<path class="st0" d="M733.1,244.2c0-1.7,1.2-3,2.9-3c1.8,0,2.8,1.4,2.8,3.1v0.2h-4.7c0.1,1.1,0.8,2,2.1,2c0.7,0,1.3-0.3,1.8-0.7
		l0.4,0.6c-0.6,0.6-1.4,0.9-2.3,0.9C734.3,247.2,733.1,246,733.1,244.2z M736,241.9c-1.2,0-1.8,1-1.9,1.9h3.8
		C737.8,243,737.3,241.9,736,241.9z"/>
	<path class="st0" d="M739.5,246.5c0.5,0,0.9-0.6,1.1-2.3l0.4-2.9h4v5.8h-0.9v-5h-2.3l-0.3,2.2c-0.3,2.2-0.9,3-2,3V246.5z"/>
	<path class="st0" d="M746.6,247.1l1.5-2.3c-0.9-0.1-1.5-0.8-1.5-1.7c0-1,0.7-1.8,1.8-1.8h3.1v5.8h-0.9v-2.2h-1.6l-1.4,2.2H746.6z
		 M750.7,244.1v-2h-2.1c-0.6,0-1,0.4-1,1c0,0.6,0.3,1,1,1H750.7z"/>
	<path class="st0" d="M758.4,247.1v-4.5l-1.9,4.5h-0.3l-1.9-4.5v4.5h-0.9v-5.8h1.2l1.8,4.3l1.8-4.3h1.2v5.8H758.4z"/>
</g>
<g>
	<path class="st0" d="M622.4,366.1v-8h1v6.2l4.6-6.2h1v8h-1v-6.4l-4.7,6.4H622.4z"/>
	<path class="st0" d="M630.9,366.1v-5.8h0.9v2.4h3v-2.4h0.9v5.8h-0.9v-2.6h-3v2.6H630.9z"/>
	<path class="st0" d="M638.6,366.1v-5h-1.7v-0.8h4.3v0.8h-1.7v5H638.6z"/>
	<path class="st0" d="M642,363.2c0-1.7,1.2-3,2.9-3c1.8,0,2.8,1.4,2.8,3.1v0.2h-4.7c0.1,1.1,0.8,2,2.1,2c0.7,0,1.3-0.3,1.8-0.7
		l0.4,0.6c-0.6,0.6-1.4,0.9-2.3,0.9C643.2,366.3,642,365,642,363.2z M644.8,360.9c-1.2,0-1.8,1-1.9,1.9h3.8
		C646.7,362,646.1,360.9,644.8,360.9z"/>
	<path class="st0" d="M650,365.2v3.1h-0.9v-8h0.9v0.9c0.4-0.6,1.1-1,2-1c1.5,0,2.6,1.2,2.6,3c0,1.9-1.1,3-2.6,3
		C651.1,366.3,650.4,365.9,650,365.2z M653.6,363.2c0-1.3-0.7-2.2-1.9-2.2c-0.7,0-1.4,0.4-1.7,0.9v2.6c0.3,0.5,1,0.9,1.7,0.9
		C652.9,365.5,653.6,364.5,653.6,363.2z"/>
	<path class="st0" d="M659.4,361.2v-3.1h0.9v3.1c0.3-0.6,0.9-1,1.6-1c1.2,0,2.1,1.2,2.1,3c0,1.9-0.9,3-2.1,3c-0.6,0-1.2-0.4-1.6-1
		v3.1h-0.9v-3.1c-0.3,0.6-0.9,1-1.6,1c-1.2,0-2.1-1.2-2.1-3c0-1.9,0.9-3,2.1-3C658.4,360.2,659,360.5,659.4,361.2z M656.6,363.2
		c0,1.3,0.5,2.2,1.4,2.2c0.6,0,1.1-0.4,1.3-0.9v-2.6c-0.2-0.5-0.8-0.9-1.3-0.9C657.2,361,656.6,361.9,656.6,363.2z M663,363.2
		c0-1.3-0.5-2.2-1.4-2.2c-0.5,0-1.1,0.4-1.3,0.9v2.6c0.2,0.5,0.8,0.9,1.3,0.9C662.5,365.5,663,364.5,663,363.2z"/>
	<path class="st0" d="M665.2,363.2c0-1.7,1.2-3,2.9-3c1.8,0,2.8,1.4,2.8,3.1v0.2h-4.7c0.1,1.1,0.8,2,2.1,2c0.7,0,1.3-0.3,1.8-0.7
		l0.4,0.6c-0.6,0.6-1.4,0.9-2.3,0.9C666.4,366.3,665.2,365,665.2,363.2z M668,360.9c-1.2,0-1.8,1-1.9,1.9h3.8
		C669.9,362,669.3,360.9,668,360.9z"/>
	<path class="st0" d="M672.3,366.1v-5.8h0.9v4.4l3-4.4h0.9v5.8h-0.9v-4.5l-3.1,4.5H672.3z M674.7,359.7c-0.9,0-1.6-0.4-2.1-1.1
		l0.4-0.4c0.4,0.5,1,0.9,1.7,0.9c0.7,0,1.3-0.3,1.7-0.9l0.4,0.4C676.3,359.2,675.5,359.7,674.7,359.7z"/>
	<path class="st0" d="M678.6,363.2c0-1.7,1.2-3,2.9-3c1.1,0,1.7,0.4,2.1,1l-0.6,0.6c-0.4-0.5-0.9-0.8-1.5-0.8c-1.2,0-2,0.9-2,2.2
		s0.8,2.2,2,2.2c0.6,0,1.1-0.2,1.5-0.8l0.6,0.6c-0.4,0.6-1.1,1-2.1,1C679.7,366.3,678.6,364.9,678.6,363.2z"/>
	<path class="st0" d="M691.9,366.1l-2.1-2.6l-1,0.9v1.7h-0.9v-5.8h0.9v3.1l3-3.1h1.1l-2.6,2.6l2.6,3.2H691.9z"/>
	<path class="st0" d="M696.5,365.4c0.5-0.1,0.9-0.5,1.1-2.2l0.4-2.9h4v5h0.7v2.3h-0.9v-1.5h-4.4v1.5h-0.9V365.4z M698.5,363.3
		c-0.1,1.1-0.4,1.7-0.8,2h3.4v-4.2h-2.3L698.5,363.3z"/>
	<path class="st0" d="M704.8,365.2v3.1h-0.9v-8h0.9v0.9c0.4-0.6,1.1-1,2-1c1.5,0,2.6,1.2,2.6,3c0,1.9-1.1,3-2.6,3
		C706,366.3,705.3,365.9,704.8,365.2z M708.4,363.2c0-1.3-0.7-2.2-1.9-2.2c-0.7,0-1.4,0.4-1.7,0.9v2.6c0.3,0.5,1,0.9,1.7,0.9
		C707.7,365.5,708.4,364.5,708.4,363.2z"/>
	<path class="st0" d="M710.6,367.6c0.1,0.1,0.3,0.1,0.5,0.1c0.4,0,0.7-0.1,0.9-0.6l0.4-0.9l-2.4-5.9h1l1.9,4.8l1.9-4.8h1l-2.9,7
		c-0.3,0.8-0.9,1.2-1.7,1.2c-0.2,0-0.5,0-0.7-0.1L710.6,367.6z"/>
	<path class="st0" d="M720.7,361.1h-3.2v5h-0.9v-5.8h4.1V361.1z"/>
	<path class="st0" d="M721.9,366.1v-5.8h0.9v4.4l3-4.4h0.9v5.8h-0.9v-4.5l-3.1,4.5H721.9z"/>
	<path class="st0" d="M733.5,366.1v-4.5l-1.9,4.5h-0.3l-1.9-4.5v4.5h-0.9v-5.8h1.2l1.8,4.3l1.8-4.3h1.2v5.8H733.5z"/>
	<path class="st0" d="M739,363.2c0-1.7,1.2-3,2.9-3c1.1,0,1.7,0.4,2.1,1l-0.6,0.6c-0.4-0.5-0.9-0.8-1.5-0.8c-1.2,0-2,0.9-2,2.2
		s0.8,2.2,2,2.2c0.6,0,1.1-0.2,1.5-0.8l0.6,0.6c-0.4,0.6-1.1,1-2.1,1C740.2,366.3,739,364.9,739,363.2z"/>
	<path class="st0" d="M745.3,366.1v-5.8h0.9v4.4l3-4.4h0.9v5.8h-0.9v-4.5l-3.1,4.5H745.3z"/>
	<path class="st0" d="M751.6,363.2c0-1.7,1.2-3,2.9-3c1.1,0,1.7,0.4,2.1,1l-0.6,0.6c-0.4-0.5-0.9-0.8-1.5-0.8c-1.2,0-2,0.9-2,2.2
		s0.8,2.2,2,2.2c0.6,0,1.1-0.2,1.5-0.8l0.6,0.6c-0.4,0.6-1.1,1-2.1,1C752.7,366.3,751.6,364.9,751.6,363.2z"/>
	<path class="st0" d="M758.9,366.1v-5h-1.7v-0.8h4.3v0.8h-1.7v5H758.9z"/>
	<path class="st0" d="M762.3,363.2c0-1.7,1.2-3,2.9-3c1.8,0,2.8,1.4,2.8,3.1v0.2h-4.7c0.1,1.1,0.8,2,2.1,2c0.7,0,1.3-0.3,1.8-0.7
		l0.4,0.6c-0.6,0.6-1.4,0.9-2.3,0.9C763.6,366.3,762.3,365,762.3,363.2z M765.2,360.9c-1.2,0-1.8,1-1.9,1.9h3.8
		C767.1,362,766.5,360.9,765.2,360.9z"/>
	<path class="st0" d="M774.4,366.1v-4.5l-1.9,4.5h-0.3l-1.9-4.5v4.5h-0.9v-5.8h1.2l1.8,4.3l1.8-4.3h1.2v5.8H774.4z"/>
	<path class="st0" d="M780.8,366.1v-0.7c-0.5,0.5-1.1,0.8-1.9,0.8c-1,0-2-0.7-2-1.9c0-1.3,1-1.9,2-1.9c0.8,0,1.5,0.3,1.9,0.8v-1
		c0-0.8-0.6-1.2-1.5-1.2c-0.7,0-1.3,0.3-1.8,0.8l-0.4-0.6c0.6-0.6,1.4-1,2.3-1c1.2,0,2.2,0.6,2.2,2v4H780.8z M780.8,364.9v-1.1
		c-0.3-0.5-1-0.7-1.6-0.7c-0.8,0-1.4,0.5-1.4,1.3c0,0.7,0.6,1.3,1.4,1.3C779.8,365.6,780.4,365.4,780.8,364.9z"/>
	<path class="st0" d="M788.5,366.1v-4.5l-1.9,4.5h-0.3l-1.9-4.5v4.5h-0.9v-5.8h1.2l1.8,4.3l1.8-4.3h1.2v5.8H788.5z"/>
</g>
<g>
	<g>
		<g>
			<path class="st0" d="M379.8,359.6l-4,4v3.1h-4.3v9.9h4.3V388h-4.3v5.7h4.3v9.9h39.7v-44H379.8z M373,375.2v-7.1h8.5v7.1H373z
				 M373,392.2v-2.8h8.5v2.8H373z M414.1,402.2h-36.9v-8.5h5.7v-2.1h1.4v-1.4h-1.4V388h-5.7v-11.4h5.7v-1.4h1.4v-1.4h-1.4v-4.3h1.4
				v-1.4h-1.4v-1.4h-5.7v-2.5l3.1-3.1h33.8V402.2z"/>
			<path class="st0" d="M398.5,399.3h9.9v-1.4h1.4v-1.4h-1.4v-1.4h1.4v-1.4h-1.4v-1.4h1.4v-1.4h-1.4v-1.4h1.4V388h-1.4v-1.4h1.4
				v-1.4h-1.4v-1.4h1.4v-1.4h-1.4v-1.4h1.4v-1.4h-1.4V378h1.4v-1.4h-1.4v-1.4h1.4v-1.4h-1.4v-1.4h1.4v-1.4h-1.4v-1.4h1.4v-1.4h-1.4
				v-1.4h1.4v-1.4h-1.4v-1.4h-9.9v1.4h-1.4v1.4h1.4v1.4h-1.4v1.4h1.4v1.4h-1.4v1.4h1.4v1.4h-1.4v1.4h1.4v1.4h-1.4v1.4h1.4v1.4h-1.4
				v1.4h1.4v1.4h-1.4v1.4h1.4v1.4h-1.4v1.4h1.4v1.4h-1.4v1.4h1.4v1.4h-1.4v1.4h1.4v1.4h-1.4v1.4h1.4v1.4h-1.4v1.4h1.4V399.3z
				 M399.9,365.3h7.1v32.6h-7.1V365.3z"/>
			<circle class="st0" cx="403.5" cy="367.4" r="0.7"/>
			<path class="st0" d="M394.2,365.3h-5.7v4.3h5.7V365.3z M392.8,368.1H390v-1.4h2.8V368.1z"/>
			<path class="st0" d="M394.2,372.4h-5.7v4.3h5.7V372.4z M392.8,375.2H390v-1.4h2.8V375.2z"/>
			<path class="st0" d="M384.3,378.7v1.4h-1.4v-1.4h-1.4v1.4h-1.4v4.3h1.4v1.4h1.4v-1.4h1.4v1.4h1.4v-1.4h1.4v1.4h1.4v-1.4h1.4v-4.3
				h-1.4v-1.4h-1.4v1.4h-1.4v-1.4H384.3z M388.6,381.6v1.4h-7.1v-1.4H388.6z"/>
			<path class="st0" d="M381.5,395.1c-1.6,0-2.8,1.3-2.8,2.8s1.3,2.8,2.8,2.8s2.8-1.3,2.8-2.8S383,395.1,381.5,395.1z M381.5,399.3
				c-0.8,0-1.4-0.6-1.4-1.4s0.6-1.4,1.4-1.4c0.8,0,1.4,0.6,1.4,1.4S382.3,399.3,381.5,399.3z"/>
			<path class="st0" d="M388.6,395.1c-1.6,0-2.8,1.3-2.8,2.8s1.3,2.8,2.8,2.8c1.6,0,2.8-1.3,2.8-2.8S390.1,395.1,388.6,395.1z
				 M388.6,399.3c-0.8,0-1.4-0.6-1.4-1.4s0.6-1.4,1.4-1.4c0.8,0,1.4,0.6,1.4,1.4S389.4,399.3,388.6,399.3z"/>
			<rect x="387.1" y="389.4" class="st0" width="1.4" height="2.8"/>
			<rect x="390" y="389.4" class="st0" width="1.4" height="2.8"/>
			<rect x="392.8" y="389.4" class="st0" width="1.4" height="2.8"/>
			<circle class="st0" cx="380.1" cy="363.8" r="0.7"/>
		</g>
	</g>
</g>
<g>
	<g id="Sign_In_1_">
		<path class="st0" d="M544.9,288.1H532c-0.5,0-0.9,0.4-0.9,0.9c0,0.5,0.4,0.9,0.9,0.9h12v25.8h-12c-0.5,0-0.9,0.4-0.9,0.9
			s0.4,0.9,0.9,0.9h12.9c0.5,0,0.9-0.4,0.9-0.9V289C545.8,288.5,545.4,288.1,544.9,288.1z"/>
		<path class="st0" d="M531.5,308.7c-0.4,0.4-0.4,1,0,1.3c0.4,0.4,0.9,0.4,1.3,0l6.4-6.5c0.4-0.4,0.4-1,0-1.3l-6.4-6.5
			c-0.4-0.4-0.9-0.4-1.3,0c-0.4,0.4-0.4,1,0,1.3l4.8,4.9h-19c-0.5,0-0.9,0.4-0.9,0.9c0,0.5,0.4,0.9,0.9,0.9h19L531.5,308.7z"/>
	</g>
</g>
<g transform="translate(1 1)">
	<g>
		<g>
			<path class="st0" d="M237.2,494.8h-3.1v-29.5c0-0.3-0.2-0.5-0.5-0.5h-20.7c-0.3,0-0.5,0.2-0.5,0.5v29.5h-3.1
				c-0.3,0-0.5,0.2-0.5,0.5s0.2,0.5,0.5,0.5h3.6h2.1h16.6h2.1h3.6c0.3,0,0.5-0.2,0.5-0.5S237.6,494.8,237.2,494.8z M215.5,494.8
				v-26.9H231v26.9H215.5z M232.1,494.8v-27.4c0-0.3-0.2-0.5-0.5-0.5H215c-0.3,0-0.5,0.2-0.5,0.5v27.4h-1v-29h19.7v29L232.1,494.8
				L232.1,494.8z"/>
			<path class="st0" d="M229.5,479.8h-2.1c-0.3,0-0.5,0.2-0.5,0.5v0.5h-1c-0.3,0-0.5,0.2-0.5,0.5s0.2,0.5,0.5,0.5h1v0.5
				c0,0.3,0.2,0.5,0.5,0.5h2.1c0.3,0,0.5-0.2,0.5-0.5v-2.1C230,480,229.8,479.8,229.5,479.8z M229,481.8h-1v-1h1V481.8L229,481.8z"
				/>
		</g>
	</g>
</g>
<path class="st0" d="M409.3,516.4h-3.7c-0.2,0-0.4-0.2-0.4-0.4v-7.1l-7.9-9c-0.1-0.2-0.1-0.4,0-0.5c0.1-0.1,1.4-1.9,3.8-3.3
	c1.8-1,3.4-1.3,4.1-1.3v-1.1c0-1,0.8-1.9,1.9-1.9h0.8c1,0,1.9,0.8,1.9,1.9V516C409.7,516.2,409.5,516.4,409.3,516.4z M406.1,515.5
	h2.8v-2.4h-2.8V515.5z M406.1,512.2h2.8v-14h-2.8v10.5c0,0,0,0,0,0V512.2z M398.2,499.5l7,8v-11.9c-0.7,0.1-2.1,0.3-3.7,1.2
	C399.8,497.7,398.6,499,398.2,499.5z M406.1,497.3h2.8v-2.5h-2.8v0.3c0,0,0,0,0,0V497.3z M406.1,493.9h2.8v-0.4c0-0.6-0.4-1-1-1
	h-0.8c-0.6,0-1,0.4-1,1V493.9z M386.9,516.4h-3.7c-0.2,0-0.4-0.2-0.4-0.4v-22.5c0-1,0.8-1.9,1.9-1.9h0.8c1,0,1.9,0.8,1.9,1.9v1.1
	c0.7,0.1,2.3,0.3,4.1,1.3c2.5,1.4,3.8,3.2,3.8,3.3c0.1,0.2,0.1,0.4,0,0.5l-7.9,9v7.1C387.3,516.2,387.1,516.4,386.9,516.4z
	 M383.7,515.5h2.8v-2.4h-2.8V515.5z M383.7,512.2h2.8v-3.6c0,0,0,0,0,0v-10.5h-2.8V512.2z M387.3,495.6v11.9l7-8
	c-0.4-0.5-1.6-1.8-3.3-2.7C389.4,495.9,388,495.6,387.3,495.6z M383.7,497.3h2.8v-2.5h-2.8V497.3z M383.7,493.9h2.8v-0.4
	c0-0.6-0.4-1-1-1h-0.8c-0.6,0-1,0.4-1,1V493.9z"/>
<g transform="translate(0 -1)">
	<g>
		<path class="st0" d="M583.3,473.9h-22.6c-0.4-0.5-1-0.9-1.7-1v-0.7c0-0.9-0.7-1.6-1.6-1.6H554c-0.9,0-1.6,0.7-1.6,1.6v17.1
			c-0.6,0-1.1,0.5-1.1,1.2v1c0,0.6,0.5,1.2,1.2,1.2h6.5c0.6,0,1.2-0.5,1.2-1.2v-1c0-0.6-0.5-1.1-1.1-1.2v-11.1
			c0.7-0.1,1.3-0.5,1.7-1h22.6c0.6,0,1.1-0.5,1.1-1.1v-1.2C584.3,474.4,583.8,473.9,583.3,473.9z M571.3,475h2.8l-1.1,1.1h-2.8
			L571.3,475z M568.7,476.1h-2.8l1.1-1.1h2.8L568.7,476.1z M575.7,475h2.8l-1.1,1.1h-2.8L575.7,475z M553.5,472.2
			c0-0.3,0.2-0.5,0.5-0.5h3.4c0.3,0,0.5,0.2,0.5,0.5v0.7c0,0,0,0,0,0c0,0,0,0,0,0c0,0-0.1,0-0.1,0c0,0,0,0,0,0c0,0-0.1,0-0.1,0
			c0,0,0,0,0,0c0,0,0,0-0.1,0c0,0,0,0,0,0c0,0,0,0-0.1,0c0,0,0,0,0,0c0,0,0,0-0.1,0c0,0,0,0,0,0c0,0-0.1,0-0.1,0c0,0,0,0,0,0
			c0,0-0.1,0-0.1,0.1c0,0,0,0,0,0c0,0-0.1,0-0.1,0.1c0,0,0,0,0,0c0,0,0,0-0.1,0c0,0,0,0,0,0c0,0,0,0-0.1,0c0,0,0,0,0,0
			c0,0,0,0-0.1,0c0,0,0,0,0,0c0,0,0,0-0.1,0.1c0,0,0,0,0,0c0,0,0,0-0.1,0.1c0,0,0,0,0,0c0,0-0.1,0.1-0.1,0.1c0,0,0,0,0,0
			c0,0,0,0.1-0.1,0.1c0,0,0,0,0,0c0,0,0,0,0,0.1c0,0,0,0,0,0c0,0,0,0,0,0.1c0,0,0,0,0,0c0,0,0,0,0,0.1c0,0,0,0,0,0c0,0,0,0,0,0.1
			c0,0,0,0,0,0c0,0,0,0.1,0,0.1c0,0,0,0,0,0c0,0,0,0.1,0,0.1c0,0,0,0,0,0c0,0,0,0.1,0,0.1c0,0,0,0,0,0c0,0,0,0.1,0,0.1c0,0,0,0,0,0
			c0,0,0,0.1,0,0.1c0,0,0,0,0,0.1c0,0,0,0.1,0,0.1c0,0,0,0,0,0.1c0,0,0,0.1,0,0.1c0,0,0,0,0,0.1c0,0,0,0.1,0,0.1c0,0,0,0,0,0
			c0,0,0,0.1,0,0.1s0,0.1,0,0.1c0,0,0,0,0,0c0,0,0,0.1,0,0.1c0,0,0,0,0,0.1c0,0,0,0.1,0,0.1c0,0,0,0,0,0.1c0,0,0,0.1,0,0.1
			c0,0,0,0,0,0.1c0,0,0,0.1,0,0.1c0,0,0,0,0,0c0,0,0,0.1,0,0.1c0,0,0,0,0,0c0,0,0,0.1,0,0.1c0,0,0,0,0,0c0,0,0,0.1,0,0.1
			c0,0,0,0,0,0c0,0,0,0.1,0,0.1c0,0,0,0,0,0c0,0,0,0,0,0.1c0,0,0,0,0,0c0,0,0,0,0,0.1c0,0,0,0,0,0c0,0,0,0,0,0.1c0,0,0,0,0,0
			c0,0,0,0,0,0.1c0,0,0,0,0,0c0,0,0,0.1,0.1,0.1c0,0,0,0,0,0c0,0,0.1,0.1,0.1,0.1c0,0,0,0,0,0c0,0,0,0,0.1,0.1c0,0,0,0,0,0
			c0,0,0,0,0.1,0.1c0,0,0,0,0,0c0,0,0,0,0.1,0c0,0,0,0,0,0c0,0,0,0,0.1,0c0,0,0,0,0,0c0,0,0,0,0.1,0c0,0,0,0,0,0c0,0,0.1,0,0.1,0.1
			c0,0,0,0,0,0c0,0,0.1,0,0.1,0.1c0,0,0,0,0,0c0,0,0.1,0,0.1,0c0,0,0,0,0,0c0,0,0,0,0.1,0c0,0,0,0,0,0c0,0,0,0,0.1,0c0,0,0,0,0,0
			c0,0,0,0,0.1,0c0,0,0,0,0,0c0,0,0.1,0,0.1,0c0,0,0,0,0,0c0,0,0.1,0,0.1,0c0,0,0,0,0,0c0,0,0,0,0,0v11.1h-4.4V472.2z M559,491.4
			C559,491.5,559,491.5,559,491.4l-6.5,0.1c0,0-0.1,0-0.1-0.1v-1c0,0,0-0.1,0.1-0.1h6.5c0,0,0.1,0,0.1,0.1L559,491.4L559,491.4z
			 M558.4,477.2c-0.9,0-1.7-0.7-1.7-1.7c0-0.9,0.7-1.7,1.7-1.7c0.9,0,1.7,0.7,1.7,1.7C560.1,476.4,559.3,477.2,558.4,477.2z
			 M561.2,475h4.2l-1.1,1.1h-3.1L561.2,475L561.2,475z M583.2,476.1H579l1.1-1.1h3.1V476.1L583.2,476.1z"/>
	</g>
</g>
<g>
	<g>
		<g>
			<path class="st0" d="M368.5,163.9v-2.6h-5.2v2.6c0,1.4,1.2,2.6,2.6,2.6C367.3,166.5,368.5,165.3,368.5,163.9z M364.6,163.9v-1.3
				h2.6v1.3c0,0.7-0.6,1.3-1.3,1.3S364.6,164.6,364.6,163.9z"/>
			<circle class="st0" cx="365.9" cy="189.7" r="0.6"/>
			<circle class="st0" cx="365.9" cy="192.3" r="0.6"/>
			<circle class="st0" cx="365.9" cy="194.9" r="0.6"/>
			<path class="st0" d="M377.5,184v-1.4c0-1.1-0.9-1.9-1.9-1.9h-1.3c-1,0-1.9,0.8-1.9,1.8l-1.9-0.4v-1.6c1.9-1.4,3.2-3.7,3.2-6.3
				v-5.2v-1.5l2.8-1.4c0.7-0.3,1.1-1,1.1-1.8c0-0.9-0.6-1.8-1.6-2l-2.6-0.6c-1.2-0.3-2.4-1-3.2-1.9l-0.6-0.7
				c-0.9-1.1-2.2-1.7-3.7-1.7c-1.4,0-2.8,0.6-3.7,1.7l-0.6,0.7c-0.8,1-2,1.7-3.2,1.9l-2.6,0.6c-0.9,0.2-1.6,1-1.6,2
				c0,0.8,0.4,1.5,1.1,1.8l2.8,1.4v1.5v5.2c0,2.6,1.3,4.9,3.2,6.3v1.6l-5,1.1c-3.9,0.9-6.6,4.2-6.6,8.2v6H382v-6
				C382,188.3,380.3,185.4,377.5,184z M373.6,182.8v-0.2c0-0.4,0.3-0.6,0.6-0.6h1.3c0.4,0,0.6,0.3,0.6,0.6v0.8v2.5
				c0,0.4-0.3,0.6-0.6,0.6h-1.3c-0.4,0-0.6-0.3-0.6-0.6V182.8L373.6,182.8z M372.3,168.7L372.3,168.7c-1.9,1.1-4.1,1.7-6.3,1.7h-0.2
				c-2.2,0-4.4-0.6-6.3-1.7v-1.3c1.9,0.7,3.9,1,5.9,1h1c2,0,4-0.3,5.9-1V168.7z M358.2,165.5v0.6L356,165c-0.2-0.1-0.4-0.4-0.4-0.6
				c0-0.3,0.2-0.6,0.6-0.7l2.6-0.6c1.5-0.3,2.9-1.2,3.9-2.4l0.6-0.7c0.7-0.8,1.6-1.3,2.7-1.3s2,0.5,2.7,1.3l0.6,0.7
				c1,1.2,2.4,2,3.9,2.4l2.6,0.6c0.3,0.1,0.6,0.4,0.6,0.7c0,0.3-0.2,0.5-0.4,0.6l-2.2,1.1v-0.6l-1,0.4c-2,0.8-4.1,1.2-6.2,1.2h-1
				c-2.1,0-4.2-0.4-6.2-1.2L358.2,165.5z M359.5,174.2v-4.1c2,1,4.1,1.5,6.3,1.5h0.2c2.2,0,4.4-0.5,6.3-1.5v4.1
				c0,3.6-2.9,6.4-6.4,6.4C362.3,180.7,359.5,177.8,359.5,174.2z M362.7,182.3v-1.1c1,0.5,2.1,0.7,3.2,0.7s2.2-0.3,3.2-0.7v1.1
				l-3.2,3.2L362.7,182.3z M364.9,186.4l-2.4,1.6l-0.9-4.6l0.3-0.1L364.9,186.4z M370,183.3l0.3,0.1l-0.9,4.6l-2.4-1.6L370,183.3z
				 M351.1,191.4c0-0.1,0-0.3,0-0.4h1.3v1c0,0.8-0.4,1.6-1,2.1l-0.3,0.2V191.4z M380.7,196.1h-5.2v0v-2.6h-1.3v2.6h-16.8v-2.6h-1.3
				v2.6h-5.2v-0.3l1-0.8c1-0.7,1.5-1.9,1.5-3.1v-2.3h-2.4c0.6-2.6,2.6-4.6,5.3-5.2l3.7-0.8l1.3,6.5l4.3-2.9l4.3,2.9l1.3-6.5l0.8,0.2
				v2c0,1.1,0.9,1.9,1.9,1.9v2.6h1.3v-2.6c1.1,0,1.9-0.9,1.9-1.9v-0.4c1.5,1,2.6,2.5,3,4.2h-2.4v2.3c0,1.2,0.6,2.4,1.5,3.1l1,0.8
				V196.1z M380.7,194.2l-0.3-0.2c-0.6-0.5-1-1.3-1-2.1v-1h1.3c0,0.1,0,0.3,0,0.4V194.2L380.7,194.2z"/>
		</g>
	</g>
</g>
<g>
	<path class="st0" d="M224.9,107.3h-2.1v-2.6c0-2.1-1.7-3.9-3.9-3.9h-3.4c-2.1,0-3.9,1.7-3.9,3.9v2.6h-8.2v-1.8h4.8
		c0.9,0,1.6-0.7,1.6-1.6V93.7c0-0.9-0.7-1.6-1.6-1.6h-14.9c-0.9,0-1.6,0.7-1.6,1.6v10.2c0,0.9,0.7,1.6,1.6,1.6h4.8v1.8h-8.5
		c-0.3,0-0.6,0.3-0.6,0.6v8.8v8.8c0,0.3,0.3,0.6,0.6,0.6c0.3,0,0.6-0.3,0.6-0.6v-8.2h33.9v8.2c0,0.3,0.3,0.6,0.6,0.6
		c0.3,0,0.6-0.3,0.6-0.6v-8.8V108C225.5,107.6,225.2,107.3,224.9,107.3z M213,104.7c0-1.4,1.2-2.6,2.6-2.6h3.4
		c1.4,0,2.6,1.2,2.6,2.6v2.6H213V104.7z M193.5,104.3c-0.2,0-0.4-0.2-0.4-0.4V93.7c0-0.2,0.2-0.4,0.4-0.4h14.9
		c0.2,0,0.4,0.2,0.4,0.4v10.2c0,0.2-0.2,0.4-0.4,0.4h-5.4h-4C198.9,104.3,193.5,104.3,193.5,104.3z M199.5,105.5h2.7v1.8h-2.7V105.5
		z M190.4,116.1v-7.5h8.5h4h21.4v7.5H190.4L190.4,116.1z"/>
	<path class="st0" d="M213.3,96.1c0,2.2,1.8,4,4,4c2.2,0,4-1.8,4-4c0-2.2-1.8-4-4-4C215.1,92.1,213.3,93.9,213.3,96.1z M220,96.1
		c0,1.5-1.2,2.7-2.7,2.7c-1.5,0-2.7-1.2-2.7-2.7c0-1.5,1.2-2.7,2.7-2.7C218.8,93.4,220,94.6,220,96.1z"/>
</g>
<g>
	<path class="st0" d="M59.5,173.5h-3.2v-4.1l-3.5-4.2h-0.4h-1.7h-1.7l-0.9,3.7h5.3l-0.5-1.8l2.3,2.7v3.6h-8.5l-1.9-7.6H41v-1.3h0
		c0.1-0.1,0.2-0.1,0.3-0.2c0.7-0.6,1-1.4,1-2.3v-1.3c0-1.4-1.1-2.5-2.5-2.5h-1.3c-1.4,0-2.5,1.1-2.5,2.5v1.2c0,1.1,0.5,2.1,1.3,2.7
		h-0.1v1.3h-3.7l-1.9,7.6H18.8v1.2h1.3v14h1.2v-1.3H57v1.3h1.2v-14h1.3V173.5z M49.4,167.8l0.3-1.4h0.8h0.8l0.3,1.4H49.4z
		 M45.4,173.5h-3.1v-1.4h1.3v-2.5h-1.2v1.3h-2.6V167h4L45.4,173.5z M38.5,172.1v1.4h-1.4v-1.4H38.5L38.5,172.1z M39.7,172.1h1.4v1.4
		h-1.4V172.1z M37.2,160.7c0-0.7,0.6-1.3,1.3-1.3h1.3c0.7,0,1.3,0.6,1.3,1.3v1.3c0,0.5-0.2,1.1-0.6,1.4c-0.4,0.4-0.9,0.6-1.5,0.5
		c-1-0.1-1.8-1-1.8-2L37.2,160.7L37.2,160.7z M38.5,165.1c0.1,0,0.2,0,0.4,0.1c0.1,0,0.2,0,0.3,0c0.2,0,0.5,0,0.7-0.1v0.8h-1.4
		V165.1z M34.5,167h4v3.9h-2.6v-1.3h-1.2v2.5H36v1.4h-3.1L34.5,167z M57,186.2H21.3v-11.5H57V186.2z"/>
	<rect x="20" y="171.6" class="st0" width="8.9" height="1.2"/>
	<rect x="20" y="169.7" class="st0" width="8.9" height="1.2"/>
	<rect x="21.3" y="167.8" class="st0" width="7.6" height="1.2"/>
	<path class="st0" d="M46.1,182.3V176H32.2v6.3H46.1z M33.4,177.2h11.5v3.9H33.4V177.2z"/>
	<rect x="37.9" y="178.6" class="st0" width="5.7" height="1.2"/>
	<rect x="34.7" y="178.6" class="st0" width="1.9" height="1.2"/>
</g>
<g>
	<path d="M3.7,423.7c1,0,1.5-0.5,1.8-3.2l0.5-4h4.9v8h-1v-7.1h-3l-0.4,3.2c-0.4,3.5-1.4,4.1-2.8,4.1V423.7z"/>
	<path d="M12.4,421.5c0-1.7,1.1-3,2.9-3c1.8,0,2.9,1.4,2.9,3s-1.1,3-2.9,3C13.5,424.5,12.4,423.2,12.4,421.5z M17.2,421.5
		c0-1.2-0.7-2.2-1.9-2.2s-1.9,1.1-1.9,2.2c0,1.2,0.7,2.2,1.9,2.2S17.2,422.7,17.2,421.5z"/>
	<path d="M23.6,424.4l-2.1-2.6l-1,0.9v1.7h-0.9v-5.8h0.9v3.1l3-3.1h1.1l-2.6,2.6l2.6,3.2H23.6z"/>
	<path d="M29.4,424.4v-0.7c-0.5,0.5-1.1,0.8-1.9,0.8c-1,0-2-0.7-2-1.9c0-1.3,1-1.9,2-1.9c0.8,0,1.5,0.3,1.9,0.8v-1
		c0-0.8-0.6-1.2-1.5-1.2c-0.7,0-1.3,0.3-1.8,0.8l-0.4-0.6c0.6-0.6,1.4-1,2.3-1c1.2,0,2.2,0.6,2.2,2v4H29.4z M29.4,423.2v-1.1
		c-0.3-0.5-1-0.7-1.6-0.7c-0.8,0-1.4,0.5-1.4,1.3c0,0.7,0.6,1.3,1.4,1.3C28.5,423.9,29.1,423.7,29.4,423.2z"/>
	<path d="M31.5,423.8c0.5,0,0.9-0.6,1.1-2.3l0.4-2.9h4v5.8h-0.9v-5h-2.3l-0.3,2.2c-0.3,2.2-0.9,3-2,3V423.8z"/>
	<path d="M39.7,418.6v2.2h2.2c1.2,0,1.8,0.8,1.8,1.8c0,1-0.6,1.8-1.8,1.8h-3.1v-5.8H39.7z M39.7,421.6v2h2.1c0.6,0,1-0.4,1-1
		c0-0.6-0.3-1-1-1H39.7z"/>
	<path d="M45,424.4v-5.8h0.9v2.4h3v-2.4h0.9v5.8h-0.9v-2.6h-3v2.6H45z"/>
	<path d="M55.3,424.4v-0.7c-0.5,0.5-1.1,0.8-1.9,0.8c-1,0-2-0.7-2-1.9c0-1.3,1-1.9,2-1.9c0.8,0,1.5,0.3,1.9,0.8v-1
		c0-0.8-0.6-1.2-1.5-1.2c-0.7,0-1.3,0.3-1.8,0.8l-0.4-0.6c0.6-0.6,1.4-1,2.3-1c1.2,0,2.2,0.6,2.2,2v4H55.3z M55.3,423.2v-1.1
		c-0.3-0.5-1-0.7-1.6-0.7c-0.8,0-1.4,0.5-1.4,1.3c0,0.7,0.6,1.3,1.4,1.3C54.3,423.9,54.9,423.7,55.3,423.2z"/>
	<path d="M57.8,424.4l1.5-2.3c-0.9-0.1-1.5-0.8-1.5-1.7c0-1,0.7-1.8,1.8-1.8h3.1v5.8h-0.9v-2.2h-1.6l-1.4,2.2H57.8z M61.8,421.4v-2
		h-2.1c-0.6,0-1,0.4-1,1c0,0.6,0.3,1,1,1H61.8z"/>
	<path d="M67.3,421.5c0-1.7,1.2-3,2.9-3c1.1,0,1.7,0.4,2.1,1l-0.6,0.6c-0.4-0.5-0.9-0.8-1.5-0.8c-1.2,0-2,0.9-2,2.2s0.8,2.2,2,2.2
		c0.6,0,1.1-0.2,1.5-0.8l0.6,0.6c-0.4,0.6-1.1,1-2.1,1C68.5,424.5,67.3,423.2,67.3,421.5z"/>
	<path d="M73.2,421.5c0-1.7,1.2-3,2.9-3c1.8,0,2.8,1.4,2.8,3.1v0.2h-4.7c0.1,1.1,0.8,2,2.1,2c0.7,0,1.3-0.3,1.8-0.7l0.4,0.6
		c-0.6,0.6-1.4,0.9-2.3,0.9C74.5,424.5,73.2,423.3,73.2,421.5z M76.1,419.2c-1.2,0-1.8,1-1.9,1.9H78C78,420.3,77.4,419.2,76.1,419.2
		z"/>
	<path d="M81.4,424.4v-5h-1.7v-0.8H84v0.8h-1.7v5H81.4z"/>
	<path d="M86,418.6v2.2h2.2c1.2,0,1.8,0.8,1.8,1.8c0,1-0.6,1.8-1.8,1.8h-3.1v-5.8H86z M86,421.6v2h2.1c0.6,0,1-0.4,1-1
		c0-0.6-0.3-1-1-1H86z"/>
</g>
<path class="st0" d="M49.4,370.8c-0.3,0.3-0.5,0.6-0.8,0.9l-9.5-5.8c0.3-0.6,0.4-1.3,0.4-2s-0.1-1.4-0.4-2l9.5-5.7
	c1,1.5,2.7,2.6,4.6,2.6c3,0,5.5-2.5,5.5-5.5c0-3-2.5-5.5-5.5-5.5s-5.5,2.5-5.5,5.5c0,0.7,0.1,1.4,0.4,2l-9.5,5.7
	c-1-1.5-2.7-2.5-4.6-2.5c-3,0-5.5,2.5-5.5,5.5s2.5,5.5,5.5,5.5c1.9,0,3.6-1,4.6-2.5l9.5,5.8c-0.2,0.6-0.4,1.3-0.4,2
	c0,1.5,0.6,2.9,1.6,3.9c1.1,1.1,2.5,1.6,3.9,1.6s2.8-0.5,3.9-1.6c1-1,1.6-2.4,1.6-3.9s-0.6-2.9-1.6-3.9
	C55,368.7,51.5,368.7,49.4,370.8z M53.3,348.8c2.4,0,4.4,2,4.4,4.4c0,2.4-2,4.4-4.4,4.4c-2.4,0-4.4-2-4.4-4.4
	C48.9,350.8,50.8,348.8,53.3,348.8z M34,368.4c-2.4,0-4.4-2-4.4-4.4s2-4.4,4.4-4.4c2.4,0,4.4,2,4.4,4.4S36.4,368.4,34,368.4z
	 M56.4,377.8c-1.7,1.7-4.5,1.7-6.2,0c-0.8-0.8-1.3-1.9-1.3-3.1c0-1.2,0.5-2.3,1.3-3.1c0.9-0.9,2-1.3,3.1-1.3s2.3,0.4,3.1,1.3
	c0.8,0.8,1.3,1.9,1.3,3.1C57.7,375.9,57.2,377,56.4,377.8z"/>
</svg>
