<?xml version="1.0" encoding="utf-8"?>
<!-- Generator: Adobe Illustrator 21.1.0, SVG Export Plug-In . SVG Version: 6.00 Build 0)  -->
<svg version="1.1" id="Слой_1" xmlns="http://www.w3.org/2000/svg" xmlns:xlink="http://www.w3.org/1999/xlink" x="0px" y="0px"
	 viewBox="0 0 189.9 97.7" style="enable-background:new 0 0 189.9 97.7;" xml:space="preserve">
<style type="text/css">
	.st0{fill-rule:evenodd;clip-rule:evenodd;fill:#E40521;}
</style>
<g>
	<path class="st0" d="M150.7,2l-15,51.5L122.3,2H81.1v15l0,0c-5.9-8.3-13.1-17-36-17S3.2,13.5,3.2,34.4l0,0h28.1l0,0
		c0.2-7.1,5.5-11.1,11.9-11.1c6.3,0,11.5,1.6,11.5,6.7c0,5.1-3.8,8.3-6.1,8.3l0,0H33.6v18.2h10.3l0,0c6.7,0.4,8.7,5.5,8.7,9.1
		c0,3.6-1.2,9.1-10.7,9.1c-9.5,0-13.8-7.9-13.5-15.8l0,0H0l0,0c0,17,9.9,38.8,41.9,38.8c32,0,35.7-14.7,39.2-15.5l0,0l0,12.4h28.1
		V44.7l13,49.9h25.3l13.8-49.9v49.9h28.5V2H150.7L150.7,2L150.7,2z M81.1,53.6c-1.3-3-6.1-6.4-8.5-7.3c3.8-1,7.2-4.6,8.5-8.6l0,0
		V53.6L81.1,53.6L81.1,53.6z"/>
</g>
</svg>
