<?xml version="1.0" encoding="utf-8"?>
<!-- Generator: Adobe Illustrator 21.1.0, SVG Export Plug-In . SVG Version: 6.00 Build 0)  -->
<svg version="1.1" id="Слой_1" xmlns="http://www.w3.org/2000/svg" xmlns:xlink="http://www.w3.org/1999/xlink" x="0px" y="0px"
	 viewBox="0 0 175.2 70.8" style="enable-background:new 0 0 175.2 70.8;" xml:space="preserve">
<style type="text/css">
	.st0{fill-rule:evenodd;clip-rule:evenodd;fill:#0084C3;}
	.st1{fill-rule:evenodd;clip-rule:evenodd;fill:#006BAC;}
</style>
<g>
	<path class="st0" d="M172.1,22.1c-2.7-17.3-48.1-26.5-89.4-20C41.4,8.6,1.1,31.5,3.8,48.7C6.5,66,52,75.3,93.2,68.7
		c8.6-1.4,17.1-3.4,25.2-6h-6.9c-5.9,1.6-12.1,2.9-18.6,4C51.6,73.2,16,64.5,13.2,47.2C10.5,30,41.7,10.7,83,4.1
		c41.3-6.5,76.9,2.2,79.7,19.5c1.2,7.6-4.1,15.5-13.9,22.6h5.6C166.2,38.3,173.3,29.7,172.1,22.1L172.1,22.1z"/>
	<path class="st0" d="M135,29.5c2.4,0,2.3-1.3,2.3-1.3s0-2-2.4-2h-11.3v3.3H135L135,29.5z M139,37.5h-15.5v7.7H109V18.8h30
		c14.7,0,14,8.8,14,9.5C153,29,152.4,37.5,139,37.5L139,37.5z"/>
	<path class="st0" d="M23.8,29.5l-3,5.9h6L23.8,29.5L23.8,29.5z M23.8,42.4h-6.3l-1.6,2.8H-0.5l14.7-26.5h19.4l14.7,26.5H31.8
		l-1.6-2.8H23.8L23.8,42.4z"/>
	<polygon class="st0" points="48.8,45.2 48.8,18.8 71.6,18.8 76.8,31.2 82.1,18.8 104.8,18.8 104.8,45.2 90.1,45.2 90.1,30.3 
		83.6,45.2 70.1,45.2 63.6,30.3 63.6,45.2 48.8,45.2 	"/>
	<polygon class="st0" points="44.4,59.9 48.3,59.9 51,52.6 51,52.6 50.9,59.9 56.6,59.9 61,47.9 57.2,47.9 54.5,55.2 54.5,55.2 
		54.6,47.9 48.9,47.9 44.4,59.9 	"/>
	<polygon class="st1" points="58.8,59.9 68.1,59.9 69.3,56.8 64.5,56.8 65,55.4 69.3,55.4 70.4,52.3 66.2,52.3 66.7,51 71.2,51 
		72.4,47.9 63.2,47.9 58.8,59.9 	"/>
	<polygon class="st1" points="72,59.9 76.7,59.9 80,51.1 83,51.1 84.1,47.9 73.4,47.9 72.3,51.1 75.2,51.1 72,59.9 	"/>
	<path class="st1" d="M89.6,55.5c-0.5,1.3-1.1,1.6-1.7,1.6c-1.2,0-0.8-1.4-0.1-3.2c0.7-1.9,1.3-3.2,2.5-3.2c0.6,0,1,0.3,0.5,1.6h4.4
		c1.3-3.5-0.8-4.8-3.9-4.8c-4.1,0-7.2,2.5-8.5,6.3c-1.4,3.8-0.4,6.4,3.8,6.4c3,0,6.2-1.4,7.4-4.8H89.6L89.6,55.5z"/>
	<path class="st1" d="M101,53.9c1-2.7,1.7-3.2,2.5-3.2c0.8,0,1.1,0.5,0.1,3.2c-1,2.8-1.7,3.2-2.5,3.2C100.3,57.1,99.9,56.7,101,53.9
		L101,53.9z M96,53.9c-1.4,3.7-0.3,6.3,3.9,6.3c4.1,0,7.2-2.6,8.6-6.3c1.4-3.7,0.3-6.3-3.9-6.3C100.4,47.6,97.4,50.1,96,53.9
		L96,53.9z"/>
	<polygon class="st1" points="108,59.9 111.9,59.9 114.6,52.6 114.6,52.6 114.5,59.9 120.2,59.9 124.6,47.9 120.8,47.9 118.1,55.2 
		118,55.2 118.2,47.9 112.5,47.9 108,59.9 	"/>
	<polygon class="st1" points="122.4,59.9 126.2,59.9 129,52.6 129,52.6 128.8,59.9 134.5,59.9 139,47.9 135.1,47.9 132.4,55.2 
		132.4,55.2 132.5,47.9 126.8,47.9 122.4,59.9 	"/>
	<polygon class="st1" points="136.7,59.9 146,59.9 147.2,56.8 142.5,56.8 143,55.4 147.2,55.4 148.4,52.3 144.1,52.3 144.6,51 
		149.2,51 150.3,47.9 141.2,47.9 136.7,59.9 	"/>
	<path class="st1" d="M156.3,55.5c-0.5,1.3-1.1,1.6-1.7,1.6c-1.2,0-0.8-1.4-0.1-3.2c0.7-1.9,1.3-3.2,2.5-3.2c0.6,0,1,0.3,0.5,1.6
		h4.4c1.3-3.5-0.8-4.8-3.9-4.8c-4.1,0-7.2,2.5-8.5,6.3c-1.4,3.8-0.4,6.4,3.8,6.4c3,0,6.2-1.4,7.4-4.8H156.3L156.3,55.5z"/>
	<polygon class="st1" points="163,59.9 167.8,59.9 171.1,51.1 174,51.1 175.2,47.9 164.5,47.9 163.3,51.1 166.3,51.1 163,59.9 	"/>
</g>
</svg>
