<?xml version="1.0" encoding="utf-8"?>
<!-- Generator: Adobe Illustrator 21.1.0, SVG Export Plug-In . SVG Version: 6.00 Build 0)  -->
<svg version="1.1" id="Слой_1" xmlns="http://www.w3.org/2000/svg" xmlns:xlink="http://www.w3.org/1999/xlink" x="0px" y="0px"
	 viewBox="0 0 187.1 62.7" style="enable-background:new 0 0 187.1 62.7;" xml:space="preserve">
<style type="text/css">
	.st0{fill:none;stroke:#0B0C0B;stroke-width:0.6177;stroke-miterlimit:2.6131;}
	.st1{fill-rule:evenodd;clip-rule:evenodd;fill:#0B0C0B;}
	.st2{fill-rule:evenodd;clip-rule:evenodd;fill:#E21B28;}
	.st3{fill-rule:evenodd;clip-rule:evenodd;fill:#D11D1F;}
</style>
<g>
	<line class="st0" x1="187.1" y1="45.3" x2="0" y2="45.3"/>
	<path class="st1" d="M105.9,34.2c-0.1,0.3-0.5,0.7-1.3,0.7c-0.9,0-1.3-0.6-1.3-1.3c0-0.7,0.5-1.3,1.3-1.3c0.7,0,1.1,0.4,1.2,0.7
		h0.9c-0.1-0.7-0.7-1.6-2.1-1.5c-1.4,0-2.2,0.9-2.2,2c0,1.6,1,2.2,2.3,2.2c1.4,0,2-1,2.1-1.6H105.9L105.9,34.2z"/>
	<path class="st1" d="M110.7,35.7c1.1,0,2.2-0.5,2.2-2.1c0-1.1-0.7-2.1-2.2-2.1c-1.6,0-2.2,1-2.2,2.1
		C108.4,35.2,109.6,35.7,110.7,35.7L110.7,35.7z M110.7,34.9c-0.8,0-1.3-0.5-1.3-1.3c0-0.9,0.5-1.3,1.3-1.3c0.7,0,1.3,0.4,1.3,1.3
		C111.9,34.4,111.5,34.9,110.7,34.9L110.7,34.9z"/>
	<path class="st1" d="M114.6,35.6h0.9v-2.8c0.2-0.2,0.6-0.5,1-0.5c0.6,0,0.8,0.3,0.8,0.9v2.4h0.9v-2.8c0.2-0.2,0.6-0.5,1-0.5
		c0.6,0,0.8,0.3,0.8,0.9v2.4h0.9v-2.8c0-0.9-0.7-1.3-1.6-1.3c-0.7,0-1.1,0.3-1.3,0.6c-0.2-0.3-0.5-0.6-1.3-0.6
		c-0.7,0-1.1,0.3-1.3,0.5v-0.5h-0.9V35.6L114.6,35.6z"/>
	<path class="st1" d="M123.1,35.6h0.9v-2.8c0.3-0.2,0.6-0.5,1.1-0.5c0.5,0,0.8,0.3,0.8,0.9v2.4h0.9v-2.8c0.3-0.2,0.6-0.5,1.1-0.5
		c0.5,0,0.8,0.3,0.8,0.9v2.4h0.9v-2.8c0-0.9-0.6-1.3-1.5-1.3c-0.7,0-1.2,0.3-1.4,0.6c-0.1-0.3-0.5-0.6-1.3-0.6
		c-0.7,0-1.1,0.3-1.3,0.5v-0.5h-0.9V35.6L123.1,35.6z"/>
	<path class="st1" d="M135.5,31.6h-0.9v2.8c-0.3,0.3-0.5,0.5-1.3,0.5c-0.6,0-0.8-0.3-0.8-1.1v-2.2h-0.9v2.6c0,1.2,0.7,1.6,1.5,1.6
		c0.8,0,1.2-0.3,1.5-0.6v0.5h0.9V31.6L135.5,31.6z"/>
	<path class="st1" d="M137.6,35.6h0.9v-2.7c0.2-0.3,0.5-0.6,1.2-0.6c0.7,0,0.9,0.3,0.9,1.1v2.2h0.9v-2.5c0-1.2-0.7-1.6-1.5-1.6
		c-0.8,0-1.2,0.3-1.5,0.6v-0.5h-0.9V35.6L137.6,35.6z"/>
	<path class="st1" d="M143.8,35.6h0.9v-4h-0.9V35.6L143.8,35.6z M143.8,30.9h0.9v-0.8h-0.9V30.9L143.8,30.9z"/>
	<path class="st1" d="M150,34.2c-0.1,0.3-0.5,0.7-1.3,0.7c-0.9,0-1.3-0.6-1.3-1.3c0-0.7,0.5-1.3,1.3-1.3c0.7,0,1.1,0.4,1.2,0.7h0.9
		c-0.1-0.7-0.7-1.6-2.1-1.5c-1.4,0-2.2,0.9-2.2,2c0,1.6,1,2.2,2.3,2.2c1.4,0,2-1,2.1-1.6H150L150,34.2z"/>
	<path class="st1" d="M156.8,33c0-0.5-0.1-1.4-2-1.4c-0.7,0-1.8,0.1-2,1.2h0.9c0.1-0.2,0.3-0.5,1.1-0.5c0.7,0,1,0.3,1,0.5V33
		c-1.3,0.1-3.2,0.3-3.2,1.5c0,1,1,1.2,1.5,1.2c0.7,0,1.3-0.3,1.7-0.5c0,0.1,0,0.3,0.1,0.4h0.9c-0.1-0.1-0.1-0.3-0.1-0.6V33L156.8,33
		z M155.8,34.5c-0.3,0.2-0.9,0.5-1.6,0.5c-0.4,0-0.6-0.3-0.6-0.6c0-0.3,0.3-0.5,0.8-0.7c0.4-0.1,0.9-0.1,1.4-0.1V34.5L155.8,34.5z"
		/>
	<path class="st1" d="M158.4,32.6h0.7v2c0,0.9,0.5,1.1,1.3,1.1c0.3,0,0.5,0,1-0.1v-0.8c-0.3,0.1-0.6,0.1-0.8,0.1
		c-0.5,0-0.6-0.3-0.6-0.5v-1.8h1.3v-0.8h-1.3v-1.3h-0.9v1.3h-0.7V32.6L158.4,32.6z"/>
	<path class="st1" d="M163.3,35.6h0.9v-4h-0.9V35.6L163.3,35.6z M163.3,30.9h0.9v-0.8h-0.9V30.9L163.3,30.9z"/>
	<path class="st1" d="M168.4,35.7c1.1,0,2.2-0.5,2.2-2.1c0-1.1-0.7-2.1-2.2-2.1c-1.6,0-2.2,1-2.2,2.1
		C166.1,35.2,167.3,35.7,168.4,35.7L168.4,35.7z M168.4,34.9c-0.8,0-1.3-0.5-1.3-1.3c0-0.9,0.5-1.3,1.3-1.3c0.7,0,1.3,0.4,1.3,1.3
		C169.6,34.4,169.2,34.9,168.4,34.9L168.4,34.9z"/>
	<path class="st1" d="M172.4,35.6h0.9v-2.7c0.3-0.3,0.5-0.6,1.3-0.6c0.6,0,0.8,0.3,0.8,1.1v2.2h0.9v-2.5c0-1.2-0.7-1.6-1.6-1.6
		s-1.2,0.3-1.5,0.6v-0.5h-0.9V35.6L172.4,35.6z"/>
	<polygon class="st2" points="36,0 48.7,25.9 52.2,25.9 64.8,0 60.9,0 50.4,21.9 40,0 36,0 	"/>
	<polygon class="st2" points="94.1,35.6 111.5,0 107.6,0 97.2,21.9 86.7,0 82.8,0 95.4,25.9 90.4,35.6 94.1,35.6 	"/>
	<polygon class="st2" points="20.2,18.5 30.1,18.5 31.7,22 18.5,21.9 16.6,25.9 12.7,25.9 25.3,0 28.9,0 41.5,25.9 37.5,25.9 
		27.1,3.6 20.2,18.5 	"/>
	<polygon class="st2" points="66.7,18.5 76.6,18.5 78.2,22 65.1,21.9 63.3,25.9 59.3,25.9 72,0 75.5,0 88.2,25.9 84.2,25.9 
		73.7,3.6 66.7,18.5 	"/>
	<polygon class="st2" points="113.5,18.5 123.4,18.5 124.9,22 111.9,21.9 110.1,25.9 106.1,25.9 118.7,0 122.3,0 134.9,25.9 
		130.9,25.9 120.5,3.6 113.5,18.5 	"/>
	<path class="st1" d="M13.7,61.6v-2h3c0.9,0,1.6,0.2,1.6,0.9c0,0.8-0.7,1-1.6,1H13.7L13.7,61.6z M12.3,62.7h4.5c1.7,0,2.8-0.7,2.8-2
		c0-0.9-0.6-1.5-1.1-1.8c0.3-0.3,0.8-0.6,0.8-1.5c0-1.3-1.1-1.8-2.8-1.8h-4.2V62.7L12.3,62.7z M13.7,58.5v-1.7h2.9
		c0.9,0,1.3,0.3,1.3,0.9c0,0.5-0.4,0.8-1.3,0.8H13.7L13.7,58.5z"/>
	<path class="st1" d="M26.4,60.5c0,1.7-1.1,2.4-2.8,2.4c-1.8,0-2.8-0.7-2.8-2.4v-3h1.1v2.9c0,0.9,0.3,1.6,1.8,1.6
		c1.4,0,1.8-0.7,1.8-1.6v-2.9h1V60.5L26.4,60.5z"/>
	<path class="st1" d="M32.3,59.1c-0.2-0.5-0.6-0.9-1.8-0.9c-0.7,0-1.4,0.1-1.4,0.6c0,0.3,0.1,0.5,1.1,0.6l1.3,0.2
		c1.1,0.2,1.9,0.6,1.9,1.5c0,1.3-1.2,1.8-2.6,1.8c-2.2,0-2.8-1.1-2.9-1.6l0.9-0.3c0.2,0.3,0.6,0.9,2,0.9c0.8,0,1.5-0.3,1.5-0.7
		c0-0.3-0.3-0.6-1.1-0.7L30,60.4c-1.2-0.1-1.9-0.7-1.9-1.5c0-1.6,2-1.6,2.4-1.6c2.3,0,2.6,1,2.8,1.4L32.3,59.1L32.3,59.1z"/>
	<polygon class="st1" points="34.9,57.5 35.9,57.5 35.9,62.7 34.9,62.7 34.9,57.5 	"/>
	<polygon class="st1" points="37.8,57.5 38.9,57.5 42.5,61.3 42.5,57.5 43.4,57.5 43.4,62.7 42.5,62.7 38.8,58.8 38.8,62.7 
		37.8,62.7 37.8,57.5 	"/>
	<polygon class="st1" points="45.2,57.5 49.9,57.5 49.9,58.4 46.2,58.4 46.2,59.6 49.4,59.6 49.4,60.5 46.2,60.5 46.2,61.9 50,61.9 
		50,62.7 45.2,62.7 45.2,57.5 	"/>
	<path class="st1" d="M55.5,59.1c-0.2-0.5-0.6-0.9-1.9-0.9c-0.7,0-1.3,0.1-1.3,0.6c0,0.3,0.1,0.5,1.1,0.6l1.3,0.2
		c1.1,0.2,1.8,0.6,1.8,1.5c0,1.3-1.1,1.8-2.6,1.8c-2.2,0-2.8-1.1-2.9-1.6l0.9-0.3c0.2,0.3,0.6,0.9,2,0.9c0.8,0,1.5-0.3,1.5-0.7
		c0-0.3-0.4-0.6-1.1-0.7l-1.2-0.2c-1.2-0.1-1.9-0.7-1.9-1.5c0-1.6,2-1.6,2.4-1.6c2.2,0,2.6,1,2.8,1.4L55.5,59.1L55.5,59.1z"/>
	<path class="st1" d="M62.1,59.1c-0.2-0.5-0.6-0.9-1.9-0.9c-0.7,0-1.3,0.1-1.3,0.6c0,0.3,0.1,0.5,1.1,0.6l1.3,0.2
		c1.1,0.2,1.8,0.6,1.8,1.5c0,1.3-1.1,1.8-2.6,1.8c-2.2,0-2.8-1.1-2.9-1.6l0.9-0.3c0.2,0.3,0.6,0.9,2,0.9c0.9,0,1.5-0.3,1.5-0.7
		c0-0.3-0.4-0.6-1.1-0.7l-1.2-0.2c-1.2-0.1-2-0.7-2-1.5c0-1.6,2.1-1.6,2.5-1.6c2.2,0,2.6,1,2.8,1.4L62.1,59.1L62.1,59.1z"/>
	<path class="st3" d="M66.2,58.8v-2h2.9c0.7,0,1.4,0.1,1.4,0.9c0,0.9-0.7,1-1.4,1H66.2L66.2,58.8z M64.8,62.7h1.3V60h2.6
		c1.2,0,3.2,0,3.2-2.2c0-2.1-2-2.1-3.2-2.1h-3.9V62.7L64.8,62.7z"/>
	<path class="st3" d="M72.9,60.7l1.1-2.4l1.1,2.4H72.9L72.9,60.7z M70.8,62.7h1.1l0.5-1.2h3l0.6,1.2h1.1l-2.6-5.3h-1.2L70.8,62.7
		L70.8,62.7z"/>
	<path class="st3" d="M79.3,59.8v-1.5h2c0.8,0,1.3,0.1,1.3,0.7c0,0.7-0.5,0.7-1.3,0.7H79.3L79.3,59.8z M78.3,62.7h1v-2.1H81l1.5,2.1
		h1.3l-1.6-2.2c0.8-0.1,1.5-0.6,1.5-1.5c0-1.3-0.9-1.6-2.2-1.6h-3.2V62.7L78.3,62.7z"/>
	<polygon class="st3" points="86.6,58.4 84.2,58.4 84.2,57.5 90,57.5 90,58.4 87.7,58.4 87.7,62.7 86.6,62.7 86.6,58.4 	"/>
	<polygon class="st3" points="91.2,57.5 92.3,57.5 95.8,61.3 95.8,57.5 96.8,57.5 96.8,62.7 95.8,62.7 92.2,58.8 92.2,62.7 
		91.2,62.7 91.2,57.5 	"/>
	<polygon class="st3" points="98.6,57.5 103.3,57.5 103.3,58.4 99.6,58.4 99.6,59.6 102.8,59.6 102.8,60.5 99.6,60.5 99.6,61.9 
		103.4,61.9 103.4,62.7 98.6,62.7 98.6,57.5 	"/>
	<path class="st3" d="M105.8,59.8v-1.5h2c0.8,0,1.2,0.1,1.2,0.7c0,0.7-0.4,0.7-1.2,0.7H105.8L105.8,59.8z M104.8,62.7h1v-2.1h1.6
		l1.5,2.1h1.3l-1.6-2.2c0.7-0.1,1.5-0.6,1.5-1.5c0-1.3-0.9-1.6-2.2-1.6h-3.2V62.7L104.8,62.7z"/>
</g>
</svg>
