<?xml version="1.0" encoding="utf-8"?>
<!-- Generator: Adobe Illustrator 21.1.0, SVG Export Plug-In . SVG Version: 6.00 Build 0)  -->
<svg version="1.1" id="Layer_1" xmlns="http://www.w3.org/2000/svg" xmlns:xlink="http://www.w3.org/1999/xlink" x="0px" y="0px"
	 viewBox="0 0 329.7 80" style="enable-background:new 0 0 329.7 80;" xml:space="preserve">
<style type="text/css">
	.st0{fill:#5C6670;}
	.st1{fill:#0033A0;}
</style>
<path class="st0" d="M74.6,66.3h4.8v13.4h2.8V66.3H87v-2.5H74.6 M101.1,70.3h-8.3v-6.5h-2.8v15.9h2.8v-7h8.3v7h2.8V63.8h-2.8V70.3z
	 M108.5,79.7h10.9v-2.5h-8.1v-4.4h7.9v-2.5h-7.9v-4.1h8.1v-2.5h-10.9V79.7z M140.4,71.5c1.5-0.3,2.8-1.7,2.8-3.6
	c0-2.2-1.6-4.1-4.5-4.1h-7.8v15.9h8c3,0,4.6-1.8,4.6-4.3C143.5,73.5,142.1,71.8,140.4,71.5 M133.6,66.3h4.5c1.4,0,2.2,0.9,2.2,2.1
	c0,1.2-0.8,2.1-2.2,2.1h-4.5V66.3z M138.2,77.3h-4.6v-4.4h4.6c1.6,0,2.4,1,2.4,2.2C140.6,76.5,139.7,77.3,138.2,77.3 M147.5,79.7
	h10.9v-2.5h-8.1v-4.4h7.9v-2.5h-7.9v-4.1h8.1v-2.5h-10.9V79.7z M164.8,68c0-1.2,1-2,2.7-2c1.7,0,3.4,0.6,4.6,1.8l1.6-2.1
	c-1.5-1.4-3.5-2.2-5.9-2.2c-3.5,0-5.8,2-5.8,4.7c0,5.8,9.2,3.8,9.2,7.1c0,1.1-0.9,2.2-3.2,2.2c-2.2,0-4-1.1-5-2.2l-1.6,2.2
	c1.4,1.5,3.6,2.5,6.5,2.5c4.3,0,6.1-2.3,6.1-4.9C174,69.2,164.8,71,164.8,68 M176.5,66.3h4.8v13.4h2.8V66.3h4.8v-2.5h-12.4V66.3z
	 M199.8,79.7h10.9v-2.5h-8.1v-4.4h7.9v-2.5h-7.9v-4.1h8.1v-2.5h-10.9V79.7z M221.1,76.7l-4.8-12.9h-3.2l6.2,15.9h3.5l6.2-15.9h-3.2
	L221.1,76.7z M232,79.7h2.8V63.8H232V79.7z M245.3,63.8h-5.9v15.9h5.9c5,0,8.3-3.3,8.3-8C253.6,67.1,250.3,63.8,245.3,63.8
	 M245.3,77.3h-3.1v-11h3.1c3.5,0,5.4,2.4,5.4,5.5C250.8,74.8,248.8,77.3,245.3,77.3 M257,79.7h10.9v-2.5h-8.1v-4.4h7.9v-2.5h-7.9
	v-4.1h8.1v-2.5H257V79.7z M283,74.9l-8.1-11H272v15.9h2.8V68.4l8.3,11.4h2.7V63.8H283V74.9z M297.5,77.6c-3.1,0-5.5-2.4-5.5-5.7
	c0-3.4,2.3-5.7,5.5-5.7c1.7,0,3.2,1,4,2.3l2.4-1.2c-1.2-1.9-3.2-3.5-6.4-3.5c-4.7,0-8.3,3.3-8.3,8.2c0,4.9,3.6,8.2,8.3,8.2
	c3.2,0,5.2-1.7,6.4-3.6l-2.4-1.2C300.8,76.6,299.2,77.6,297.5,77.6 M307.3,79.7h10.9v-2.5h-8.1v-4.4h7.9v-2.5h-7.9v-4.1h8.1v-2.5
	h-10.9V79.7z M320.6,64.2h1.5v4.1h0.6v-4.1h1.5v-0.5h-3.6V64.2z M328.9,63.7l-1.1,3.2c-0.1,0.3-0.2,0.6-0.2,0.7
	c0-0.1-0.1-0.4-0.2-0.7l-1.1-3.3h-0.9v4.6h0.6v-3.9l1.3,3.9h0.5l1.3-3.8v3.8h0.6v-4.6H328.9z"/>
<path class="st1" d="M35.3,6.3c-1.9-2-4.1-3.5-6.5-4.5c-2.4-1-5-1.5-7.8-1.5c-3.1,0-5.9,0.5-8.4,1.6c-2.5,1-4.7,2.6-6.8,4.8
	c-1.9,2-3.4,4.3-4.4,6.8c-1,2.6-1.5,5.4-1.5,8.3C0,28,2,33.1,6.1,37.3c4.1,4.1,9.2,6.2,15.4,6.2c2.6,0,5.1-0.5,7.5-1.5
	c2.3-1,4.4-2.5,6.3-4.5v5h7.5V1.3h-7.5 M31.6,32.1c-2.8,2.8-6,4.3-9.6,4.3c-4,0-7.4-1.4-10.1-4.2c-2.8-2.8-4.1-6.3-4.1-10.5
	c0-4,1.4-7.3,4.1-10.1c2.8-2.8,6.1-4.1,10-4.1c3.8,0,7.1,1.5,9.8,4.3c2.8,2.9,4.1,6.4,4.1,10.4C35.7,26,34.3,29.3,31.6,32.1
	 M72.1,31.8L58.9,1.3h-8l18,41.2h5.6L93.4,1.3h-7.8L72.1,31.8z M102,42.5h7.3V1.3H102V42.5z M174.3,42.5h7.4V1.3h-7.4V42.5z
	 M202.6,1.3h-7.3v41.2h29.5v-7.3h-22.2V1.3z M266.2,6.4c-2.1-2.1-4.4-3.7-7-4.8c-2.6-1.1-5.3-1.6-8.3-1.6c-2.8,0-5.5,0.6-8.1,1.8
	c-2.6,1.2-4.9,2.9-7,5.1c-1.9,2-3.4,4.3-4.4,6.8c-1,2.5-1.5,5.3-1.5,8.2c0,2.8,0.5,5.5,1.6,8.2c1.1,2.7,2.6,5,4.5,7
	c2,2.1,4.3,3.7,6.9,4.8c2.5,1.1,5.3,1.6,8.3,1.6c3,0,5.7-0.6,8.3-1.8c2.6-1.2,5-2.9,7.1-5.2c1.8-2,3.2-4.3,4.2-7
	c1-2.7,1.5-5.4,1.5-8.2c0-2.8-0.5-5.4-1.6-8C269.7,10.8,268.2,8.4,266.2,6.4 M260.9,32.2c-2.6,2.8-5.8,4.1-9.6,4.1
	c-3.9,0-7.1-1.4-9.8-4.1c-2.6-2.7-3.9-6.2-3.9-10.3c0-4.1,1.3-7.6,3.9-10.4c2.6-2.8,5.8-4.1,9.7-4.1c3.9,0,7.1,1.4,9.7,4.1
	c2.6,2.7,3.9,6.2,3.9,10.3C264.8,25.9,263.5,29.4,260.9,32.2 M314,5.4c-2.9-3.2-7-4.8-12.4-4.8c-2.4,0-4.5,0.4-6.4,1.3
	c-1.9,0.9-3.6,2.2-5.1,4.1V1.3h-7.1v41.2h7.4V23.8c0-5.7,0.8-9.8,2.5-12.3c1.7-2.5,4.3-3.7,8-3.7c3.4,0,5.9,1.1,7.5,3.2
	c1.6,2.1,2.4,5.4,2.4,9.7v21.9h7.4V19C318.3,13.1,316.9,8.5,314,5.4 M144.3,25.7h10.2c-0.1,0.3-0.5,3.3-3.4,6.4
	c-2.6,2.8-5.8,4-9.6,4.1c-2.4,0.1-6.5-0.7-9.8-4.1c-2.6-2.7-3.9-6.2-3.9-10.3c0-4.1,1.3-7.6,3.9-10.4c0.5-0.5,4-4.1,9.7-4.1
	c5.8,0,8.9,3.3,9.8,4.4h9c-0.6-1.2-1.3-2.3-2.1-3.4c-0.1-0.1-2.2-2.9-4.7-4.7c-2.7-1.9-6.9-3.7-12.3-3.7c-7.9,0-12.7,4.3-14.8,6.5
	c-1,1-1.8,2.1-2.6,3.3c-0.8,1.2-1.5,2.6-2.1,4c-0.7,1.8-1.2,3.8-1.4,5.8c-0.9,10.7,5,16.6,6,17.6c2,2.1,4.3,3.7,6.9,4.8
	c2.5,1.1,5.3,1.7,8.4,1.6c8.8-0.2,14.6-5.1,17.6-9.6c1.2-1.8,2.1-3.9,2.7-6.2c0.9-3.4,0.9-7.5,0.9-7.7v-0.9h-18.4V25.7z"/>
</svg>
