<?xml version="1.0" encoding="utf-8"?>
<!-- Generator: Adobe Illustrator 21.1.0, SVG Export Plug-In . SVG Version: 6.00 Build 0)  -->
<svg version="1.1" id="Layer_1" xmlns="http://www.w3.org/2000/svg" xmlns:xlink="http://www.w3.org/1999/xlink" x="0px" y="0px"
	 viewBox="0 0 434.2 184.9" style="enable-background:new 0 0 434.2 184.9;" xml:space="preserve">
<style type="text/css">
	.st0{fill-rule:evenodd;clip-rule:evenodd;fill:#FFFFFF;}
	.st1{fill:#1D1D1B;stroke:#1D1D1B;stroke-width:2;}
	.st2{fill:#FFFFFF;}
	.st3{fill:#1D1D1B;stroke:#1D1D1B;}
	.st4{fill:#1D1D1B;}
	.st5{fill-rule:evenodd;clip-rule:evenodd;fill:#E30613;}
</style>
<g>
	<path class="st0" d="M22.7,77.8V59.2c0-0.4,0.3-0.6,0.6-0.6h16.9c8.3,0,13.1,3.6,13.1,9.9c0,6.5-4.4,10-12.7,10H23.3
		C22.9,78.5,22.7,78.2,22.7,77.8 M22.7,40.2V22.5c0-0.4,0.3-0.6,0.6-0.6h17.4c5.8,0,9.7,3.9,9.7,9.6c0,4.5-3.5,9.3-10.1,9.3H23.3
		C22.9,40.8,22.7,40.5,22.7,40.2 M0.6,3.4v93.5h47.8c13.9,0,28.9-9.9,28.9-25.8c0-15.2-11.5-20.5-16.5-22.1
		c-0.4-0.1-0.8-0.2-0.8-0.7c0-0.3,0.2-0.5,0.4-0.6c0.5-0.2,12.6-4.5,12.6-18.9c0-15.9-10.8-25.4-28.8-25.4H0.6z"/>
	<path class="st0" d="M109.5,50.1c0-16.7,8.1-27.5,20.8-27.5c12.7,0,20.9,10.8,20.9,27.5c0,16.8-8.2,27.6-20.9,27.6
		C117.6,77.7,109.5,66.9,109.5,50.1 M87.3,50.1c0,29.3,17.3,49,42.9,49c25.7,0,42.9-19.7,42.9-49c0-29.3-17.3-49.1-42.9-49.1
		C104.5,1,87.3,20.8,87.3,50.1"/>
	<path class="st0" d="M184.2,30.2c0,18.4,14.5,25.4,26.7,27.9l3.3,0.7c11.9,2.5,17.4,4.4,17.4,11.1c0,6-5.4,10-13.4,10
		c-9.4,0-17.7-4.1-24-11.9C193.3,69,180.8,81.3,180,82c7.6,8.9,17.6,17.1,38.5,17.1c17.9,0,36-10.4,36-30.3
		c0-20.4-13.9-25-29.3-28.2l-3.3-0.7c-7.6-1.6-14.9-3.7-14.9-10.1c0-6.5,6.1-9.5,12.2-9.5c7.1,0,14.1,3.1,19.4,8.6
		c0.8-0.8,13-12.9,13.8-13.7C246.4,8.7,235.8,1,218.7,1C198.1,1,184.2,12.8,184.2,30.2"/>
	<path class="st0" d="M264.6,49.5c0,29.2,17.8,49.6,43.2,49.6c18.9,0,27.6-7,36.6-19.8c-1-0.7-17.2-11.6-18.2-12.3
		c-4.1,6.6-8.5,10.7-17.3,10.7c-10.6,0-22-8.8-22-28.2c0-17.7,10.7-27,21.3-27c7.7,0,13.1,3.2,17.4,10.4c1-0.7,17.1-11.3,18.1-12
		c-9.3-13.6-20.2-19.8-35.6-19.8C278.1,1.2,264.6,25.5,264.6,49.5"/>
	<path class="st0" d="M409.9,3.4v34.2c0,0.4-0.3,0.6-0.6,0.6h-28.7c-0.4,0-0.6-0.3-0.6-0.6V3.4h-23.6v93.5h23.6V60.2
		c0-0.4,0.3-0.6,0.6-0.6h28.7c0.4,0,0.6,0.3,0.6,0.6v36.7h23.7V3.4H409.9"/>
	<rect x="0.6" y="141.6" class="st1" width="3.8" height="42.2"/>
	<path class="st2" d="M21.9,157.8c-0.1,0.3-0.4,0.4-0.7,0.3c-0.3-0.1-0.5-0.3-0.5-0.6v-4.2h-3.8v30.5h3.8V165c0-6.3,4.5-9.1,8.9-9.1
		c5.2,0,7.5,2.6,7.5,8.5v19.4h3.8v-19c0-7.8-3.4-12-9.9-12C26.8,152.7,23.4,154.6,21.9,157.8"/>
	<path class="st2" d="M70.5,153.3c-0.3,0.9-8.2,26.2-8.2,26.2c-0.1,0.3-0.3,0.4-0.6,0.4c-0.3,0-0.5-0.2-0.6-0.4
		c0,0-8.1-25.4-8.4-26.2h-4.1c0.5,1.6,10.2,29.7,10.4,30.5h5c0.3-0.8,9.7-28.9,10.3-30.5H70.5"/>
	<path class="st2" d="M84.8,165.9c-0.1-0.1-0.2-0.3-0.1-0.5c0.9-6.2,4.4-9.7,9.6-9.7c5.7,0,8.6,3.2,9.1,9.8c0,0.2,0,0.4-0.2,0.5
		c-0.1,0.1-0.3,0.2-0.5,0.2H85.3C85.1,166.1,85,166,84.8,165.9 M80.5,168.6c0,9.4,5.8,15.7,14.4,15.7c6.5,0,9.9-3.3,11.7-6.4
		c-0.7-0.4-2.3-1.3-3-1.7c-1.6,2.6-3.9,5.1-8.6,5.1c-6.6,0-10.2-4.1-10.5-11.9c0,0,0,0,0,0c0-0.2,0.1-0.3,0.2-0.4
		c0.1-0.1,0.3-0.2,0.5-0.2h22.2v-1c0-9.5-4.9-15.2-13-15.2C86.2,152.7,80.5,159.3,80.5,168.6"/>
	<path class="st2" d="M122.1,157.8c-0.1,0.3-0.4,0.4-0.7,0.3c-0.3-0.1-0.5-0.3-0.5-0.6v-4.2h-3.8v30.5h3.8V165
		c0-6.3,4.5-9.1,8.9-9.1c5.2,0,7.5,2.6,7.5,8.5v19.4h3.8v-19c0-7.8-3.4-12-9.9-12C127.1,152.7,123.7,154.6,122.1,157.8"/>
	<path class="st2" d="M154.6,144.9v7.8c0,0.4-0.3,0.6-0.6,0.6h-4.2v3h4.2c0.4,0,0.6,0.3,0.6,0.6v20.3c0,4.4,3,7.1,7.7,7.1
		c2.8,0,4.5-0.9,5.7-1.8c-0.3-0.6-0.9-1.7-1.3-2.4c-0.9,0.6-2.1,1.2-4.2,1.2c-2.8,0-4.2-1.7-4.2-5.1v-19.3c0-0.4,0.3-0.6,0.6-0.6
		h7.4v-3H159c-0.4,0-0.6-0.3-0.6-0.6V144C157.4,144.2,155.3,144.7,154.6,144.9"/>
	<path class="st2" d="M178.3,165.9c-0.1-0.1-0.2-0.3-0.1-0.5c0.9-6.2,4.4-9.7,9.6-9.7c5.7,0,8.7,3.2,9.1,9.8c0,0.2,0,0.4-0.2,0.5
		c-0.1,0.1-0.3,0.2-0.5,0.2h-17.5C178.6,166.1,178.4,166,178.3,165.9 M174,168.6c0,9.4,5.8,15.7,14.4,15.7c6.5,0,9.9-3.3,11.7-6.4
		c-0.7-0.4-2.3-1.3-3-1.7c-1.6,2.6-3.8,5.1-8.6,5.1c-6.6,0-10.2-4.1-10.5-11.9v0c0-0.2,0.1-0.3,0.2-0.4c0.1-0.1,0.3-0.2,0.5-0.2
		h22.2v-1c0-9.5-4.9-15.2-13-15.2C179.7,152.7,174,159.3,174,168.6"/>
	<path class="st2" d="M213.1,168.5c0-8.1,3.7-12.9,9.8-12.9c5.1,0,10.5,3.4,10.5,12.9c0,8.2-3.9,12.8-10.6,12.8
		C216.4,181.4,213.1,177.1,213.1,168.5 M233.3,139.3v18.6c0,0.3-0.2,0.5-0.5,0.6c-0.3,0.1-0.6,0-0.7-0.3c-1.5-2.5-5-5.5-9.9-5.5
		c-7.9,0-13,6.1-13,15.6c0,9.7,5.1,16,13,16c4.2,0,8-2,9.9-5.3c0.1-0.2,0.4-0.4,0.7-0.3c0.3,0.1,0.5,0.3,0.5,0.6v4.5h3.8v-44.5
		H233.3z"/>
	<path class="st2" d="M265.1,148.2v4.4c0,0.4-0.3,0.6-0.6,0.6h-3.9v3h3.9c0.3,0,0.6,0.3,0.6,0.6v26.9h3.8v-26.9
		c0-0.4,0.3-0.6,0.6-0.6h6.7v-3h-6.7c-0.4,0-0.6-0.3-0.6-0.6v-5c0-3.8,2-6.1,5.2-6.1c1.8,0,3,0.5,3.9,0.9c0.3-0.8,0.7-2,0.9-2.6
		c-1.5-0.8-3.1-1.2-4.9-1.2C268.2,138.6,265.1,142,265.1,148.2"/>
	<path class="st2" d="M285.8,168.5c0-8,4-12.9,10.4-12.9c6.3,0,10.4,5.1,10.4,12.9c0,7.8-4.1,12.8-10.4,12.8
		C289.8,181.4,285.8,176.5,285.8,168.5 M281.8,168.5c0,9.1,6,15.8,14.3,15.8c8.5,0,14.4-6.5,14.4-15.8c0-9.1-6-15.8-14.4-15.8
		C287.9,152.7,281.8,159.4,281.8,168.5"/>
	<path class="st2" d="M325.4,158c-0.1,0.3-0.4,0.4-0.7,0.3c-0.3-0.1-0.5-0.3-0.5-0.6v-4.5h-3.8v30.5h3.8V167c0-8.1,4.5-11,8.4-11
		c1.7,0,2.7,0.3,3.6,0.7c0.4-0.7,1.1-2.3,1.5-3.1c-1.3-0.6-2.7-1-4.5-1C330,152.7,327.1,154.7,325.4,158"/>
	<rect x="356.5" y="139.3" class="st3" width="3.8" height="44.5"/>
	<path class="st2" d="M373.1,153.3 M373.1,183.8h3.8v-30.5h-3.8V183.8z M372.2,141.5c0,1.5,1.2,2.7,2.7,2.7c1.5,0,2.7-1.2,2.7-2.7
		c0-1.5-1.2-2.7-2.7-2.7C373.5,138.8,372.2,140,372.2,141.5"/>
	<path class="st2" d="M390.7,148.2v4.4c0,0.4-0.3,0.6-0.6,0.6h-3.9v3h3.9c0.3,0,0.6,0.3,0.6,0.6v26.9h3.8v-26.9
		c0-0.4,0.3-0.6,0.6-0.6h6.7v-3h-6.7c-0.4,0-0.6-0.3-0.6-0.6v-5c0-3.8,2-6.1,5.2-6.1c1.8,0,3,0.5,3.9,0.9c0.2-0.8,0.6-2,0.9-2.6
		c-1.5-0.8-3.1-1.2-4.9-1.2C393.9,138.6,390.7,142,390.7,148.2"/>
	<path class="st2" d="M411.1,165.9c-0.1-0.1-0.2-0.3-0.2-0.5c0.9-6.2,4.4-9.7,9.6-9.7c5.7,0,8.6,3.2,9.1,9.8c0,0.2-0.1,0.4-0.2,0.5
		c-0.1,0.1-0.3,0.2-0.5,0.2h-17.5C411.4,166.1,411.2,166,411.1,165.9 M406.8,168.6c0,9.4,5.8,15.7,14.4,15.7c6.5,0,9.9-3.3,11.7-6.4
		c-0.7-0.4-2.3-1.3-3-1.7c-1.6,2.6-3.8,5.1-8.6,5.1c-6.6,0-10.2-4.1-10.5-11.9v0c0-0.2,0.1-0.3,0.2-0.4c0.1-0.1,0.3-0.2,0.5-0.2
		h22.2v-1c0-9.5-4.9-15.2-13-15.2C412.4,152.7,406.8,159.3,406.8,168.6"/>
	<path class="st4" d="M16.3,152.6h5v4.9c1.5-3,4.7-5.4,9.6-5.4c6,0,10.6,3.4,10.6,12.6v19.7h-5v-20c0-5.6-2.1-7.9-6.9-7.9
		c-4.3,0-8.3,2.8-8.3,8.5v19.4h-5V152.6"/>
	<polygon class="st4" points="47.8,152.6 53.3,152.6 61.8,179.3 70.1,152.6 75.3,152.6 64.6,184.4 58.7,184.4 	"/>
	<path class="st4" d="M85.3,165.4h17.5c-0.5-6.6-3.4-9.2-8.5-9.2C89.3,156.3,86.2,159.8,85.3,165.4 M79.9,168.6
		c0-9.7,5.9-16.5,14.4-16.5c7.2,0,13.7,4.4,13.7,15.8v1.6H85.1c0.2,7.2,3.5,11.2,9.8,11.2c4.5,0,6.7-2.3,8.4-5.3l4.1,2.3
		c-2.1,3.9-6,7.2-12.6,7.2C86.1,184.9,79.9,178.4,79.9,168.6"/>
	<path class="st4" d="M116.5,152.6h5v4.9c1.5-3,4.7-5.4,9.6-5.4c6,0,10.6,3.4,10.6,12.6v19.7h-5v-20c0-5.6-2.1-7.9-6.9-7.9
		c-4.3,0-8.3,2.8-8.3,8.5v19.4h-5V152.6"/>
	<path class="st4" d="M149.1,152.6h4.9v-8.3l5-1.2v9.5h8v4.3h-8v19.3c0,3,1.1,4.5,3.6,4.5c2.3,0,3.5-0.9,4.4-1.5l1.9,3.5
		c-1.2,1-3.2,2.2-6.6,2.2c-5.4,0-8.4-3.2-8.4-7.8v-20.3h-4.9V152.6"/>
	<path class="st4" d="M178.8,165.4h17.5c-0.5-6.6-3.4-9.2-8.5-9.2C182.8,156.3,179.6,159.8,178.8,165.4 M173.4,168.6
		c0-9.7,5.9-16.5,14.4-16.5c7.2,0,13.7,4.4,13.7,15.8v1.6h-22.8c0.2,7.2,3.5,11.2,9.8,11.2c4.6,0,6.7-2.3,8.4-5.3l4.1,2.3
		c-2.1,3.9-5.9,7.2-12.6,7.2C179.6,184.9,173.4,178.4,173.4,168.6"/>
	<path class="st4" d="M232.8,168.5c0-8.5-4.4-12.3-9.9-12.3c-5.3,0-9.2,3.9-9.2,12.3c0,8,2.9,12.2,9.1,12.2
		C228.6,180.8,232.8,177.1,232.8,168.5 M208.5,168.3c0-10.3,5.8-16.2,13.7-16.2c4.8,0,8.6,2.7,10.4,5.8v-19.2h5v45.7h-5v-5.1
		c-1.8,3.2-5.6,5.6-10.4,5.6C213.9,184.9,208.5,178.4,208.5,168.3"/>
	<path class="st4" d="M259.9,152.6h4.6v-4.4c0-6.4,3.4-10.2,9.4-10.2c2.4,0,4.3,0.6,5.7,1.5l-1.3,3.9c-1-0.5-2.2-1.2-4.3-1.2
		c-3,0-4.6,2.2-4.6,5.5v5h7.3v4.3h-7.3v27.5h-5v-27.5h-4.6V152.6"/>
	<path class="st4" d="M306,168.5c0-7.5-3.8-12.3-9.8-12.3c-6.1,0-9.8,4.8-9.8,12.3c0,7.4,3.6,12.2,9.8,12.2
		C302.3,180.8,306,175.9,306,168.5 M281.2,168.5c0-9.7,6.4-16.5,15-16.5c8.6,0,15,6.7,15,16.4c0,9.8-6.4,16.5-15.1,16.5
		C287.5,184.9,281.2,178,281.2,168.5"/>
	<path class="st4" d="M319.8,152.6h5v5.1c1.6-3.2,4.5-5.6,8.3-5.6c2.2,0,3.8,0.4,5.3,1.3l-2.1,4.2c-1-0.5-1.9-1-3.9-1
		c-3.4,0-7.7,2.5-7.7,10.3v17.4h-5V152.6"/>
	<path class="st4" d="M372.5,152.6h5v31.8h-5V152.6z M371.6,141.5c0-1.8,1.5-3.3,3.3-3.3c1.8,0,3.3,1.5,3.3,3.3
		c0,1.8-1.5,3.3-3.3,3.3C373.1,144.8,371.6,143.3,371.6,141.5"/>
	<path class="st4" d="M385.5,152.6h4.6v-4.4c0-6.4,3.4-10.2,9.4-10.2c2.4,0,4.2,0.6,5.7,1.5l-1.3,3.9c-1-0.5-2.2-1.2-4.3-1.2
		c-3,0-4.5,2.2-4.5,5.5v5h7.3v4.3h-7.3v27.5h-5v-27.5h-4.6V152.6"/>
	<path class="st4" d="M411.5,165.4H429c-0.5-6.6-3.4-9.2-8.5-9.2C415.5,156.3,412.4,159.8,411.5,165.4 M406.1,168.6
		c0-9.7,5.9-16.5,14.4-16.5c7.2,0,13.7,4.4,13.7,15.8v1.6h-22.8c0.2,7.2,3.5,11.2,9.8,11.2c4.6,0,6.7-2.3,8.4-5.3l4.1,2.3
		c-2.1,3.9-6,7.2-12.6,7.2C412.3,184.9,406.1,178.4,406.1,168.6"/>
	<path class="st5" d="M78,71.1c0,16-14.7,26.5-29.6,26.5H0V2.8h44.4c17.1,0,29.4,8.5,29.4,26c0,15-13,19.5-13,19.5
		C60.8,48.4,78,52.3,78,71.1 M49.7,31.5c0-5.3-3.6-9-9-9H23.3v17.6h16.9C46.3,40.2,49.7,35.7,49.7,31.5 M52.7,68.4
		c0-5.5-4-9.2-12.5-9.2H23.3v18.6h17.4C47.7,77.8,52.7,75.3,52.7,68.4"/>
	<path class="st5" d="M173.8,50.1c0,27.9-16,49.7-43.6,49.7c-27.5,0-43.6-21.8-43.6-49.7c0-27.7,16.1-49.7,43.6-49.7
		C157.8,0.4,173.8,22.4,173.8,50.1 M150.5,50.1c0-14.8-6.8-26.9-20.3-26.9c-13.5,0-20.1,12-20.1,26.9c0,15,6.7,27,20.1,27
		C143.7,77.1,150.5,65.1,150.5,50.1"/>
	<path class="st5" d="M255.2,68.9c0,20.9-18.9,30.9-36.6,30.9c-20.5,0-31.1-7.8-39.4-17.8l15.1-14.8c6.4,8.1,14.7,12.2,24,12.2
		c7.6,0,12.8-3.8,12.8-9.4c0-6-4.5-7.9-16.9-10.5l-3.3-0.7c-14.9-3.1-27.2-11.6-27.2-28.6c0-18.6,15.1-29.8,35.1-29.8
		c16.9,0,27.9,7.3,34.6,14.8l-14.7,14.6C234,24.9,227,21,219.1,21c-5.4,0-11.5,2.5-11.5,8.8c0,5.7,6.4,7.8,14.4,9.5l3.3,0.7
		C238.9,42.9,255.2,47,255.2,68.9"/>
	<path class="st5" d="M345.3,79.2c-9.7,14-18.7,20.6-37.5,20.6c-26.6,0-43.9-22.1-43.9-50.2c0-26.7,15.5-49,44.1-49
		c15.7,0,26.9,6.2,36.5,20.6l-19.2,12.7c-3.9-6.7-8.9-10.6-17.2-10.6c-10.5,0-20.7,9.4-20.7,26.3c0,18.9,11,27.6,21.4,27.6
		c9,0,13.2-4.5,17.1-10.9L345.3,79.2"/>
	<polygon class="st5" points="434.2,97.5 409.2,97.5 409.2,60.2 380.5,60.2 380.5,97.5 355.6,97.5 355.6,2.8 380.5,2.8 380.5,37.6 
		409.2,37.6 409.2,2.8 434.2,2.8 	"/>
</g>
</svg>
