<?xml version="1.0" encoding="utf-8"?>
<!-- Generator: Adobe Illustrator 21.1.0, SVG Export Plug-In . SVG Version: 6.00 Build 0)  -->
<svg version="1.1" id="Слой_1" xmlns="http://www.w3.org/2000/svg" xmlns:xlink="http://www.w3.org/1999/xlink" x="0px" y="0px"
	 viewBox="0 0 172 51.4" style="enable-background:new 0 0 172 51.4;" xml:space="preserve">
<style type="text/css">
	.st0{fill:#2A7396;}
	.st1{fill-rule:evenodd;clip-rule:evenodd;fill:#7DA7D8;}
</style>
<g>
	<path class="st0" d="M22,34.4l4.1-5.6c0,0-9.1-1.7-15.9,0.8c-6.7,2.5-8.2,6-9.6,9.2C-0.7,41.9,0,47,3.5,49.3
		c3.5,2.3,8,2.1,13.1,1.7l4.1-6.1c0,0-7.1,1.4-9.8-0.2c-2.7-1.6-0.8-5.9-0.3-6.8c0.5-0.9,2.1-3.2,5.9-3.9C20.3,33.3,22,34.4,22,34.4
		L22,34.4z"/>
	<polygon class="st0" points="28.7,29.9 37,29.9 34.7,37.7 44.1,37.7 46.2,29.9 54.7,29.9 48.8,50.9 40.3,50.9 42.7,42.7 33.6,42.7 
		31.1,50.9 22.7,50.9 28.7,29.9 	"/>
	<path class="st0" d="M54.7,43.3l25-8.4c0,0,0.3,5.6-7.7,7.6l4.9,8.4h-9.8l-3.5-7.6h-0.3L61,50.9h-8.4L54.7,43.3L54.7,43.3z"/>
	<polygon class="st0" points="84.1,33.4 93.6,30.2 87.6,50.9 79.2,50.9 84.1,33.4 	"/>
	<path class="st0" d="M112.8,35l3.1-5c0,0-7.1-0.7-10.6-0.2c-3.5,0.5-6.3,1.1-8.4,3.2c-1.9,1.8-3.3,5.7-0.1,7.9
		c2.1,1.5,6.4,2.3,6.3,3.7c-0.1,1.4-2.2,2.3-5.6,1.7c-3.5-0.5-3.9-0.6-3.9-0.6l-3.7,4.7c0,0,6.6,1.2,10.4,0.9
		c3.7-0.3,8.6-1.4,11.3-4.9c1.3-1.8,1.4-5.1-1.4-6.7c-2.8-1.5-6.2-2.2-5.9-3.9c0.4-1.8,5.4-1.5,7.9-1L112.8,35L112.8,35z"/>
	<polygon class="st0" points="117.9,29.9 114.8,34.9 121.9,34.9 117.4,50.9 125.8,50.9 130.3,34.9 136.2,34.9 139.9,29.9 
		117.9,29.9 	"/>
	<polygon class="st0" points="141.3,29.9 149.7,29.9 143.8,50.9 135.3,50.9 141.3,29.9 	"/>
	<polygon class="st0" points="154,29.9 148.1,50.9 165.4,50.9 168.5,46 157.9,45.9 158.9,42.6 166,42.6 169.2,37.9 160.2,37.9 
		161.1,35 168.2,35 172,29.9 154,29.9 	"/>
	<polygon class="st0" points="58.6,29.9 55,42.6 72.7,29.9 58.6,29.9 	"/>
	<polygon class="st1" points="99.2,28.2 129,21.1 111.7,0 93.9,15 111.1,2.8 123.9,20.5 99.2,28.2 	"/>
</g>
</svg>
