<?xml version="1.0" encoding="utf-8"?>
<!-- Generator: Adobe Illustrator 21.1.0, SVG Export Plug-In . SVG Version: 6.00 Build 0)  -->
<svg version="1.1" id="Layer_2" xmlns="http://www.w3.org/2000/svg" xmlns:xlink="http://www.w3.org/1999/xlink" x="0px" y="0px"
	 viewBox="0 0 517.3 118.7" style="enable-background:new 0 0 517.3 118.7;" xml:space="preserve">
<style type="text/css">
	.st0{fill:#1D1D1B;}
	.st1{fill:#E30613;}
</style>
<g>
	<polygon class="st0" points="43.4,67.9 93.8,39.4 46.6,53.6 	"/>
	<path class="st1" d="M119.5,56.2H80.1L49.6,72l-3.7,14.2c0,0-5,12.6,7.1,14.9h52.7l3.4-11.2H60.1h-2.3c0,0-1.4,0-1.1-1.5
		c0.3-1.5,0.6-3.6,3.1-3.6s50.2,0,50.2,0l3.5-11.5H63.7c0,0-2.2,0.1-1.9-1.4c0.2-1.5,1.8-4.1,3-4.3c1.2-0.2,50,0,50,0L119.5,56.2z"
		/>
	<path class="st1" d="M169,65.8h-40l-9.5,35.3H162c0,0,8.3,1.1,10.9-7.1l4.3-16.7C177.2,77.3,179.7,66.8,169,65.8z M168.5,76.8
		l-3.6,13.5c-0.7,2.3-2.7,1.8-2.7,1.8h-31l4.5-17.5h31.7C169.7,74.6,168.5,76.8,168.5,76.8z"/>
	<path class="st1" d="M432.7,65.8h-40l-9.5,35.3h42.5c0,0,8.3,1.1,10.9-7.1l4.3-16.7C441,77.3,443.5,66.8,432.7,65.8z M432.3,76.8
		l-3.6,13.5c-0.7,2.3-2.7,1.8-2.7,1.8h-31l4.5-17.5h31.7C433.4,74.6,432.3,76.8,432.3,76.8z"/>
	<path class="st1" d="M188,65.8h9.5l3.5,28.9c0,0,12.8-22.9,14.9-25.7c2-2.8,3.9-5.1,9.8-4.5c5.9,0.6,6.7,4.5,7.1,8.2s1.5,21,1.5,21
		l16.9-27.8h10.4l-18.2,29.4c0,0-3.3,4.6-7.1,6.6c-3.7,2.1-10.6,0.8-11.5-5.2c-0.9-5.9-2.2-22.8-2.2-22.8L210,95.5
		c0,0-3.9,7.3-10.9,7.4c-7.1,0-7.8-6.1-8.2-10.2L188,65.8z"/>
	<path class="st1" d="M446.2,101.2l2.2-8.3h39.7c0,0,3.2,0.6,3.2-2.3c0-3-1.2-2.7-2.7-2.7s-31.2,0-31.2,0s-6.8,0.5-7.5-7.2
		c-0.7-7.7,5-14.7,13.8-14.9c0.8,0.4,40.7,0,40.7,0l-2,8.8h-39.3c0,0-3.5-0.3-3.5,2.2c0,3.5,1,2.7,4.2,2.7s28.5,0,28.5,0
		s9.8-0.2,8,8.2c-1.6,7.3-2.6,13.6-13.2,13.6"/>
	<path class="st1" d="M371.3,65.8H330l-8.5,36.1h9.1l2.5-9.6h29.6c0,0,2.6-0.5,2.1,2.4l-1.8,7.3h9.4l1.6-8.9c0,0,1.3-3.4-1.6-5.5
		c0,0-0.9-1.1,1-1.6s3.6-2.8,4.8-9.6S377,66.1,371.3,65.8z M369.6,77l-1.3,5.3c0,0-0.6,1.3-2.6,1.3h-30.9l2.3-9h30.3
		C367.3,74.5,370.6,74.1,369.6,77z"/>
	<path class="st1" d="M298,69.6c0,0-1.9-5-8.4-4.6c0,0-4.3-0.3-10,6.1L249.1,102h11.5l6.6-7.5h31.6l3.6,7.5h12.1L298,69.6z
		 M292.5,85.6h-14.4c-1.4-1,0-2,0-2l8.4-8.3c1.8-2,2.9,0,2.9,0l4.4,8.3C294.6,85.6,292.5,85.6,292.5,85.6z"/>
	<path class="st1" d="M25.5,95.6c-1,0-1.9-0.4-2.6-1.1c-4.5-5-8.1-12-9.3-18.2c-2.2-11.5,1.9-24.9,11-36
		C37.1,24.9,57.2,16,79.7,15.8c0.1,0,0.3,0,0.4,0c22.8,0,36.4,10.1,43.8,18.7c1.3,1.5,1.1,3.7-0.4,4.9c-1.5,1.3-3.7,1.1-4.9-0.4
		c-9.3-10.8-22.3-16.2-38.5-16.2c-0.1,0-0.3,0-0.4,0c-20.4,0.1-38.5,8.1-49.8,21.8c-7.8,9.5-11.4,20.8-9.5,30.3
		c1,5.1,3.9,10.7,7.6,14.8c1.3,1.4,1.2,3.6-0.2,4.9C27.1,95.3,26.3,95.6,25.5,95.6z"/>
</g>
</svg>
