<?xml version="1.0" encoding="utf-8"?>
<!-- Generator: Adobe Illustrator 21.1.0, SVG Export Plug-In . SVG Version: 6.00 Build 0)  -->
<svg version="1.1" id="ŚC_x201E__x5B_1" xmlns="http://www.w3.org/2000/svg" xmlns:xlink="http://www.w3.org/1999/xlink" x="0px"
	 y="0px" viewBox="0 0 283.5 97.9" style="enable-background:new 0 0 283.5 97.9;" xml:space="preserve">
<style type="text/css">
	.st0{fill:#164194;}
</style>
<g>
	<g>
		<path d="M0,79.7h12.8v2.7H3.1v4.7h9v2.5h-9v5.2H13v2.7H0V79.7z"/>
		<path d="M15.5,79.7h3.7l4,6.3l4.2-6.3H31l-5.9,8.6l6.3,9.2h-3.8l-4.4-6.8l-4.5,6.8h-3.6l6.3-9.2L15.5,79.7z"/>
		<path d="M45.6,85.4c-0.5-2.1-1.8-3.5-4.4-3.5c-3.8,0-5.4,3.4-5.4,6.8c0,3.4,1.6,6.8,5.4,6.8c2.8,0,4.3-2.1,4.5-4.7h3
			c-0.2,4.3-3.3,7.2-7.6,7.2c-5.3,0-8.5-4.2-8.5-9.3c0-5.1,3.2-9.3,8.5-9.3c4,0,7.2,2.2,7.6,6.1H45.6z"/>
		<path d="M53.2,79.7H66v2.7h-9.7v4.7h9v2.5h-9v5.2h9.9v2.7h-13V79.7z"/>
		<path d="M70.9,79.7h12.8v2.7h-9.7v4.7h9v2.5h-9v5.2h9.9v2.7h-13V79.7z"/>
		<path d="M88.7,79.7h7.4c5.5,0,7.9,4,7.9,8.9c0,4.9-2.4,8.9-7.9,8.9h-7.4V79.7z M91.8,95h3.1c4.9,0,5.9-2.8,5.9-6.4
			c0-3.6-1.1-6.4-5.9-6.4h-3.1V95z"/>
		<path d="M119.8,90.5l-6.7-10.8h3.6l4.7,8l4.6-8h3.5l-6.7,10.8v7h-3.1V90.5z"/>
		<path d="M147.3,88.6c0,5.1-3.2,9.3-8.5,9.3c-5.3,0-8.5-4.2-8.5-9.3c0-5.1,3.2-9.3,8.5-9.3C144.1,79.3,147.3,83.5,147.3,88.6z
			 M133.3,88.6c0,3.4,1.6,6.8,5.4,6.8c3.8,0,5.4-3.4,5.4-6.8c0-3.4-1.6-6.8-5.4-6.8C134.9,81.8,133.3,85.2,133.3,88.6z"/>
		<path d="M151,79.7h3.1v10.4c0,2.4,0.1,5.2,4.2,5.2c4,0,4.2-2.8,4.2-5.2V79.7h3.1v11.4c0,4.6-2.9,6.8-7.3,6.8
			c-4.4,0-7.3-2.3-7.3-6.8V79.7z"/>
		<path d="M170.5,79.7h8.5c3.9,0,5.9,1.8,5.9,4.8c0,3.4-2.4,4.3-2.9,4.5v0.1c1.1,0.1,2.6,1,2.6,3.8c0,2.1,0.3,4,1,4.7h-3.3
			c-0.5-0.8-0.5-1.8-0.5-2.6c0-3.3-0.7-4.7-3.5-4.7h-4.6v7.3h-3.1V79.7z M173.6,87.8h5.1c2,0,3-1,3-2.8c0-2.3-1.5-2.7-3.1-2.7h-5.1
			V87.8z"/>
		<path d="M196.2,79.7h3.3l4.5,14.1h0l4.6-14.1h3.2l-6.1,17.8h-3.5L196.2,79.7z"/>
		<path d="M214.9,79.7h1.5h1.6v17.8h-3.1V79.7z"/>
		<path d="M225,91.6c0,2.7,2,3.8,4.5,3.8c2.7,0,3.8-1.3,3.8-2.7c0-1.4-0.8-1.9-1.5-2.2c-1.3-0.5-2.9-0.8-5.3-1.5
			c-3-0.8-3.9-2.7-3.9-4.5c0-3.6,3.3-5.2,6.5-5.2c3.7,0,6.8,2,6.8,5.7h-3.1c-0.2-2.3-1.7-3.2-3.9-3.2c-1.4,0-3.3,0.5-3.3,2.3
			c0,1.3,0.8,1.9,2.1,2.3c0.3,0.1,4.2,1.1,5.1,1.4c2.3,0.7,3.5,2.7,3.5,4.6c0,4-3.5,5.6-7.1,5.6c-4.1,0-7.4-2-7.4-6.4H225z"/>
		<path d="M240.7,79.7h1.5h1.6v17.8h-3.1V79.7z"/>
		<path d="M264.9,88.6c0,5.1-3.2,9.3-8.5,9.3c-5.3,0-8.5-4.2-8.5-9.3c0-5.1,3.2-9.3,8.5-9.3C261.7,79.3,264.9,83.5,264.9,88.6z
			 M251,88.6c0,3.4,1.6,6.8,5.4,6.8c3.8,0,5.4-3.4,5.4-6.8c0-3.4-1.6-6.8-5.4-6.8C252.6,81.8,251,85.2,251,88.6z"/>
		<path d="M269,79.7h3.3l8.1,13.1h0V79.7h3v17.8h-3.3L272,84.4H272v13.1h-3V79.7z"/>
	</g>
</g>
<g>
	<path class="st0" d="M196.2,0c-19.2,0-30.3,14.4-30.3,34.1s11.1,34.1,30.3,34.1s30.3-14.4,30.3-34.1S215.4,0,196.2,0z M196.2,56.8
		c-12.2,0-16.9-11.2-16.9-22.6c0-11.4,4.7-22.6,16.9-22.6c12.2,0,16.9,11.2,16.9,22.6C213.1,45.5,208.4,56.8,196.2,56.8z"/>
	<polygon class="st0" points="0,1.9 48.1,1.9 48.1,13.4 13.4,13.4 13.4,27.7 45.8,27.7 45.8,38.9 13.4,38.9 13.4,54.9 48.1,54.9 
		48.1,66.3 0,66.3 	"/>
	<path class="st0" d="M53.9,66.3h13.4V47h12.1c16.4,0,27.4-8.1,27.4-22.5c0-14.5-11-22.5-27.4-22.5H53.9V66.3z M79.4,35.5H67.3V13.4
		l0,0h12.1c8.4,0,14,3.7,14,11.1S87.8,35.5,79.4,35.5z"/>
	<path class="st0" d="M245.3,1.9h-13.8v64.4h13.1V40.2c0-7.1-0.3-13.5-0.5-19.1c1.5,3.2,6.2,12.9,8.4,16.6l17.1,28.6h13.7V1.9h-13.1
		v25.4c0,7.1,0.3,14.1,0.5,19.7c-1.5-3.2-6.2-12.9-8.4-16.6L245.3,1.9z"/>
	<path class="st0" d="M122,45c0,8.7,7.2,12,14.9,12c5,0,13.1-1.5,13.1-8.1c0-7-9.9-8.3-19.5-10.9c-10-2.7-19.7-6.4-19.7-18.4
		C110.8,6.4,123.4,0,135.2,0c13.6,0,26.1,5.9,26.1,21h-13.4c-0.5-7.8-6.5-9.8-13.3-9.8c-4.6,0-10.3,1.9-10.3,7.4
		c0,5,3.3,5.8,19.6,10c4.7,1.2,19.6,4.1,19.6,18.8c0,11.9-9.4,20.9-27.1,20.9c-14.4,0-27.9-7.1-27.7-23.1H122z"/>
</g>
</svg>
