<?xml version="1.0" encoding="utf-8"?>
<!-- Generator: Adobe Illustrator 21.1.0, SVG Export Plug-In . SVG Version: 6.00 Build 0)  -->
<svg version="1.1" id="Слой_1" xmlns="http://www.w3.org/2000/svg" xmlns:xlink="http://www.w3.org/1999/xlink" x="0px" y="0px"
	 viewBox="0 0 175.8 33.5" style="enable-background:new 0 0 175.8 33.5;" xml:space="preserve">
<style type="text/css">
	.st0{fill-rule:evenodd;clip-rule:evenodd;fill:#C5C513;}
	.st1{fill-rule:evenodd;clip-rule:evenodd;fill:#615E91;}
</style>
<g>
	<path class="st0" d="M155.8,29.8c0-0.4,0.8-0.4,1.4-0.4c0.9,0,1.6,0.2,1.8,0.7l2-0.3c-0.6-0.9-1.8-1.3-3.7-1.3c-2,0-4,0.4-4,1.6
		c0,0.6,0.7,1.1,1.8,1.3c0.6,0.1,2.2,0.3,2.8,0.3c0.5,0.1,1.1,0.1,1.1,0.4c0,0.4-1.1,0.5-1.6,0.5c-0.9,0-1.9-0.1-2.1-0.6l-2.4,0.1
		l-1.6-1.9l2.7-1.6h-2.7l-2.6,1.6l-0.9,0.6v-3.9h-2.7v1.6h-0.9c-1.2-0.1-1.8,0.4-2,1h-0.1v-0.9h-2.6v1.9c-0.4-1.1-2-2-4.6-2
		c-2,0-3.4,0.5-4.1,1.2l0.7-1.1h-2.2l-1.6,2.9h-0.1l-1.4-2.9h-2.5l-1.5,2.9h-0.1l-1.5-2.9h-2.9l0,0h-1.3v-1.5l-2.5,0.1l-0.2,1.4
		h-2.1v0.8c0,0,0,0-0.1,0c-0.8-0.6-2.2-0.8-3.5-0.8c-2.7,0-4.3,0.8-4.6,2v-0.1c0-0.4,0-1.1-0.5-1.4c-0.6-0.4-1.5-0.5-2.4-0.5
		c-1.4,0-2.2,0.3-2.8,0.9l0,0v-0.8h-2.7v4.8H98v-2.6c0-0.3,0-0.6,0.3-0.8c0.3-0.2,0.7-0.4,1.2-0.4c1.4,0,1.3,0.8,1.3,1.3v2.6h2.8
		v-1.9c0.4,1.2,2.2,2,4.7,2c3.3,0,4.4-1.5,4.4-1.7l-2.6-0.1c0,0.5-0.8,0.8-1.8,0.8c-1.2,0-1.8-0.4-1.8-1.1v-0.2h6.2
		c0.1-0.5-0.1-1.1-0.5-1.5h1.5v2.2c0,0.5,0,1.1,0.8,1.3c0.6,0.3,1.7,0.4,2.5,0.4c0.5,0,1-0.1,1.5-0.1l0.2-0.1v-1.1l-0.9,0.1
		c-1.3,0-1.3-0.2-1.3-0.8v-2h2l2.2,3.7h2.4l1.5-3.1l0,0l1.5,3.1h2.5l1.8-2.9c-0.1,0.1-0.1,0.4-0.1,0.5c0,1.4,1.6,2.6,4.6,2.6
		c2.5,0,4.1-0.8,4.6-2v1.9h2.8v-1.8c0-0.8,0.6-1.8,2.8-1.7v3.5h2.7v-1.3l1.5-0.9l1.8,2.2h2.9l-0.6-0.6c0.6,0.5,1.7,0.7,3.7,0.8
		c1.1,0,2.1-0.1,2.9-0.4c0.8-0.3,1.3-0.8,1.3-1.3C161.5,29.7,155.8,30.7,155.8,29.8L155.8,29.8z M106.4,30.4c0.1-0.6,0.6-1,1.8-1
		c1.3,0,1.6,0.5,1.6,1H106.4L106.4,30.4z M135,32.6c-1.6,0-1.6-1.2-1.6-1.8c0-0.6,0.1-1.4,1.6-1.4c0.6,0,1.1,0.1,1.3,0.4
		c0.3,0.4,0.4,0.8,0.4,1.2C136.6,31.7,136.5,32.6,135,32.6L135,32.6z"/>
	<path class="st1" d="M175.5,17.8c0.1,0,0.3,0.1,0.2,0.4c0,0.1-0.1,0.3-0.3,0.3c-0.2-0.1-0.4-0.2-0.3-0.4
		C175.2,17.8,175.3,17.8,175.5,17.8L175.5,17.8z"/>
	<path class="st1" d="M35.2,8.1c-2.7,0-3.9,1-4.1,2.2h7.7C38.7,9.1,37.9,8.1,35.2,8.1L35.2,8.1z"/>
	<path class="st1" d="M34.4,6.1c-0.1-0.2-0.2-0.5-0.4-0.7c-0.3-0.2-0.5-0.1-0.9-0.1c-0.6,0.1-0.6,0.5-0.6,0.9
		C33.1,6.1,33.8,6.1,34.4,6.1L34.4,6.1z"/>
	<path class="st1" d="M94,8.1c-2.8,0-3.9,1-4.1,2.2h7.7C97.5,9.1,96.7,8.1,94,8.1L94,8.1z"/>
	<path class="st1" d="M29,6.9c0.5-0.2,1.1-0.4,1.7-0.4c-0.1-0.2-0.1-0.4-0.3-0.6c-0.5-0.1-1.1,0-1.5,0.3C28.9,6.4,28.9,6.7,29,6.9
		L29,6.9L29,6.9z"/>
	<path class="st1" d="M72.2,14.6h1.2V8.7h-4.3v4.2C69.1,14.2,69.1,14.7,72.2,14.6L72.2,14.6z"/>
	<path class="st1" d="M53.4,9.3l4.3-3h5.4L63.5,4c-0.1-0.1-0.1-0.1-0.1-0.2c-0.4-0.3-0.6-0.1-1.1,0.1c-1,0.4-0.8-0.8-1.4-1.1
		c-0.4-0.1-0.7-0.1-1,0.1c-0.2,0.3-0.2,0.7-0.3,1.1c-0.3,0.5-0.8,0.6-1.3,0.4c-0.6-0.1-0.3-0.9-0.9-1.1c-0.4-0.1-0.9-0.1-1.3,0.2
		C56,3.7,56.1,4,56.1,4.3c0,0.3-0.4,0.4-0.6,0.6c-0.9,0.2-1.1-0.8-1.5-1.1c-0.3-0.1-0.6-0.1-0.9,0c-0.8,0.3-0.2,1.2-0.8,1.5
		c-0.3,0.2-0.6,0.2-1,0.1c-0.4-0.1-0.4-0.6-0.6-0.9c-0.4-0.5-0.8-0.1-1.4-0.1c-0.8,0.2-0.4-1-1.1-1.2c-0.3-0.1-0.6,0-0.8,0.1
		c-0.2,0.1-0.3,0.3-0.3,0.5L53.4,9.3L53.4,9.3z"/>
	<path class="st1" d="M94.1,15c1.9,0,3.9-0.7,3.9-1.7l4.3,0.1v-1.3H90l-0.1,0.5C89.9,13.9,91.4,15,94.1,15L94.1,15z"/>
	<path class="st1" d="M140.3,8.1c-2.8,0-3.9,1-4.1,2.2h7.7C143.8,9.1,143,8.1,140.3,8.1L140.3,8.1z"/>
	<path class="st1" d="M8.4,11c0.2,0,0.4-0.1,0.4-0.4c0.1-0.2-0.1-0.4-0.4-0.4c-0.2-0.1-0.4,0.1-0.4,0.4C8.1,10.8,8.2,10.9,8.4,11
		L8.4,11z"/>
	<path class="st1" d="M10.5,12.5c0.3,0,0.6-0.2,0.6-0.5c0.1-0.3-0.1-0.6-0.5-0.6c-0.3-0.1-0.6,0.1-0.6,0.5
		C10,12.2,10.2,12.5,10.5,12.5L10.5,12.5z"/>
	<path class="st1" d="M12.7,12.9c0.3,0,0.5,0.3,0.4,0.5c0,0.3-0.3,0.5-0.5,0.4c-0.3,0-0.5-0.2-0.4-0.5
		C12.2,13.1,12.4,12.9,12.7,12.9L12.7,12.9z"/>
	<path class="st1" d="M10,8.1c0.2,0,0.4,0.2,0.4,0.4c0,0.2-0.2,0.4-0.4,0.4c-0.2,0-0.4-0.2-0.4-0.4C9.5,8.2,9.7,8.1,10,8.1L10,8.1z"
		/>
	<path class="st1" d="M12.1,9.2c0.4,0,0.7,0.4,0.6,0.8c0,0.4-0.4,0.6-0.8,0.6c-0.4-0.1-0.6-0.4-0.6-0.8C11.4,9.4,11.7,9.1,12.1,9.2
		L12.1,9.2z"/>
	<path class="st1" d="M14.2,10.5c0.4,0.1,0.7,0.5,0.7,0.9c-0.1,0.4-0.4,0.7-0.9,0.7c-0.4-0.1-0.7-0.5-0.7-0.9
		C13.4,10.8,13.8,10.5,14.2,10.5L14.2,10.5z"/>
	<path class="st1" d="M16.3,11.9c0.5,0,0.8,0.4,0.8,0.9c-0.1,0.5-0.5,0.8-1,0.8c-0.4-0.1-0.8-0.5-0.7-1
		C15.4,12.2,15.8,11.9,16.3,11.9L16.3,11.9z"/>
	<path class="st1" d="M15.7,8.5c0.4,0,0.8,0.4,0.7,0.9c-0.1,0.4-0.4,0.8-0.9,0.7c-0.4-0.1-0.8-0.4-0.7-0.9
		C14.8,8.8,15.2,8.4,15.7,8.5L15.7,8.5z"/>
	<path class="st1" d="M13.5,7.3C13.9,7.4,14.1,7.7,14,8c0,0.3-0.3,0.6-0.6,0.5c-0.3,0-0.5-0.3-0.5-0.6C13,7.5,13.2,7.3,13.5,7.3
		L13.5,7.3z"/>
	<path class="st1" d="M17.1,6.6c0.4,0.1,0.7,0.4,0.6,0.8C17.7,7.7,17.4,8,17,8c-0.4,0-0.6-0.4-0.6-0.8C16.4,6.8,16.8,6.6,17.1,6.6
		L17.1,6.6z"/>
	<path class="st1" d="M20.7,6c0.4,0,0.7,0.4,0.7,0.8c-0.1,0.4-0.4,0.7-0.8,0.6c-0.4,0-0.7-0.4-0.6-0.8C20,6.2,20.3,5.9,20.7,6
		L20.7,6z"/>
	<path class="st1" d="M24.2,5.4c0.4,0,0.7,0.4,0.7,0.8c-0.1,0.4-0.4,0.7-0.8,0.6c-0.4,0-0.7-0.4-0.6-0.8C23.5,5.6,23.9,5.3,24.2,5.4
		L24.2,5.4z"/>
	<path class="st1" d="M27.9,4.7c0.4,0.1,0.7,0.4,0.6,0.8c-0.1,0.4-0.4,0.6-0.8,0.6c-0.4-0.1-0.7-0.4-0.7-0.8
		C27.1,5,27.5,4.7,27.9,4.7L27.9,4.7z"/>
	<path class="st1" d="M31.5,4.2c0.4,0,0.6,0.4,0.6,0.8c-0.1,0.4-0.4,0.7-0.8,0.6c-0.4,0-0.7-0.4-0.6-0.8S31,4.1,31.5,4.2L31.5,4.2z"
		/>
	<path class="st1" d="M35,3.6c0.4,0,0.6,0.4,0.6,0.7c0,0.4-0.4,0.6-0.7,0.6c-0.4,0-0.6-0.4-0.6-0.7C34.3,3.8,34.6,3.5,35,3.6L35,3.6
		z"/>
	<path class="st1" d="M51.4,2.6c0.4,0,0.6,0.4,0.6,0.7c0,0.4-0.4,0.6-0.7,0.6c-0.4,0-0.6-0.4-0.6-0.7C50.7,2.8,51,2.6,51.4,2.6
		L51.4,2.6z"/>
	<path class="st1" d="M54.9,2.2c0.2,0.1,0.4,0.2,0.4,0.5C55.2,2.9,55,3,54.8,3c-0.2-0.1-0.4-0.3-0.4-0.5C54.5,2.3,54.7,2.2,54.9,2.2
		L54.9,2.2z"/>
	<path class="st1" d="M161.4,11.1c0.3,0.1,0.4,0.2,0.4,0.5c0,0.2-0.2,0.4-0.4,0.4c-0.2-0.1-0.4-0.3-0.4-0.5
		C161,11.2,161.2,11.1,161.4,11.1L161.4,11.1z"/>
	<path class="st1" d="M163.5,12.3c0.4,0,0.7,0.4,0.6,0.8c0,0.4-0.4,0.6-0.8,0.6c-0.4-0.1-0.6-0.4-0.6-0.8
		C162.8,12.5,163.1,12.2,163.5,12.3L163.5,12.3z"/>
	<path class="st1" d="M165.6,13.6c0.5,0.1,0.8,0.4,0.7,0.8c0,0.4-0.4,0.8-0.8,0.7c-0.4,0-0.8-0.4-0.7-0.8
		C164.9,13.9,165.2,13.6,165.6,13.6L165.6,13.6z"/>
	<path class="st1" d="M167.7,15c0.4,0,0.8,0.4,0.7,0.8c-0.1,0.4-0.4,0.8-0.8,0.7c-0.5-0.1-0.8-0.4-0.7-0.8
		C166.9,15.3,167.3,15,167.7,15L167.7,15z"/>
	<path class="st1" d="M169.1,13.5c0.2,0,0.3,0.1,0.3,0.4c0,0.1-0.1,0.3-0.4,0.2c-0.1,0-0.3-0.1-0.3-0.3
		C168.9,13.6,169,13.4,169.1,13.5L169.1,13.5z"/>
	<path class="st1" d="M171.2,14.7c0.3,0.1,0.4,0.3,0.4,0.5c-0.1,0.3-0.3,0.4-0.5,0.4c-0.3,0-0.4-0.3-0.4-0.5
		C170.8,14.9,171,14.7,171.2,14.7L171.2,14.7z"/>
	<path class="st1" d="M173.4,16.2c0.2,0,0.4,0.2,0.4,0.5c0,0.2-0.2,0.4-0.5,0.4c-0.2,0-0.4-0.2-0.4-0.5
		C172.9,16.4,173.1,16.2,173.4,16.2L173.4,16.2z"/>
	<path class="st1" d="M172,18.2c0.3,0,0.5,0.3,0.4,0.5c0,0.3-0.3,0.5-0.6,0.5c-0.3-0.1-0.5-0.3-0.4-0.6
		C171.4,18.3,171.7,18.1,172,18.2L172,18.2z"/>
	<path class="st1" d="M169.8,16.5c0.4,0.1,0.7,0.4,0.6,0.8c-0.1,0.4-0.4,0.6-0.8,0.6c-0.4-0.1-0.7-0.4-0.7-0.8
		C169.1,16.8,169.4,16.4,169.8,16.5L169.8,16.5z"/>
	<path class="st1" d="M166.3,16.9c0.4,0.1,0.8,0.5,0.8,1c-0.1,0.5-0.5,0.8-1,0.8c-0.5-0.1-0.8-0.5-0.8-1
		C165.4,17.2,165.9,16.9,166.3,16.9L166.3,16.9z"/>
	<path class="st1" d="M164.8,19c0.4,0.1,0.8,0.5,0.7,0.9c0,0.4-0.4,0.8-0.8,0.7c-0.5,0-0.8-0.4-0.8-0.8C164,19.3,164.4,19,164.8,19
		L164.8,19z"/>
	<path class="st1" d="M168.4,18.5c0.4,0,0.7,0.4,0.6,0.8c0,0.4-0.4,0.7-0.8,0.6c-0.4,0-0.7-0.4-0.7-0.8
		C167.6,18.7,168,18.5,168.4,18.5L168.4,18.5z"/>
	<path class="st1" d="M170.5,20.3c0.2,0.1,0.4,0.2,0.4,0.4c-0.1,0.2-0.2,0.4-0.4,0.4c-0.2-0.1-0.4-0.2-0.4-0.4
		C170.1,20.4,170.3,20.3,170.5,20.3L170.5,20.3z"/>
	<path class="st1" d="M166.9,20.8c0.3,0,0.5,0.3,0.4,0.5c0,0.3-0.3,0.5-0.5,0.5c-0.3-0.1-0.5-0.3-0.5-0.6
		C166.4,21,166.6,20.8,166.9,20.8L166.9,20.8z"/>
	<path class="st1" d="M163.3,21.3c0.3,0.1,0.5,0.3,0.5,0.6c0,0.3-0.3,0.5-0.6,0.5c-0.3,0-0.5-0.3-0.5-0.6
		C162.8,21.5,163,21.3,163.3,21.3L163.3,21.3z"/>
	<path class="st1" d="M159.8,22c0.3,0,0.5,0.3,0.5,0.6c-0.1,0.3-0.4,0.5-0.6,0.5c-0.4-0.1-0.6-0.4-0.5-0.6
		C159.1,22.2,159.4,21.9,159.8,22L159.8,22z"/>
	<path class="st1" d="M156.2,22.6c0.3,0,0.6,0.3,0.5,0.6c0,0.3-0.3,0.5-0.6,0.5c-0.3-0.1-0.5-0.4-0.5-0.6
		C155.6,22.8,155.9,22.5,156.2,22.6L156.2,22.6z"/>
	<path class="st1" d="M152.6,23.3c0.3,0,0.5,0.2,0.4,0.5c0,0.3-0.3,0.5-0.5,0.4c-0.3,0-0.5-0.3-0.4-0.5
		C152.1,23.4,152.3,23.2,152.6,23.3L152.6,23.3z"/>
	<path class="st1" d="M149,24c0.2,0,0.4,0.2,0.4,0.4c-0.1,0.2-0.2,0.4-0.4,0.3c-0.2,0-0.4-0.1-0.4-0.4C148.7,24.1,148.8,24,149,24
		L149,24z"/>
	<path class="st1" d="M139.8,23.4c0.4,0,0.7,0.4,0.6,0.8c0,0.4-0.4,0.6-0.8,0.6c-0.4-0.1-0.6-0.4-0.6-0.8
		C139.1,23.6,139.4,23.4,139.8,23.4L139.8,23.4z"/>
	<path class="st1" d="M136.2,24.1c0.4,0.1,0.6,0.4,0.5,0.7c0,0.3-0.3,0.6-0.6,0.5c-0.3,0-0.6-0.3-0.5-0.6
		C135.6,24.3,135.9,24.1,136.2,24.1L136.2,24.1z"/>
	<path class="st1" d="M132.6,25c0.1,0,0.3,0.2,0.3,0.4c0,0.2-0.2,0.4-0.4,0.4c-0.1-0.1-0.3-0.2-0.3-0.4
		C132.2,25.1,132.4,25,132.6,25L132.6,25z"/>
	<path class="st1" d="M123.4,24.5c0.4,0.1,0.6,0.4,0.6,0.7c-0.1,0.3-0.4,0.6-0.7,0.5c-0.3,0-0.6-0.3-0.5-0.6
		C122.8,24.7,123.1,24.5,123.4,24.5L123.4,24.5z"/>
	<path class="st1" d="M119.8,25.5c0.1,0,0.2,0.1,0.2,0.3c0,0.1-0.1,0.2-0.3,0.2c-0.1,0-0.2-0.1-0.2-0.3
		C119.5,25.6,119.7,25.5,119.8,25.5L119.8,25.5z"/>
	<path class="st1" d="M110.6,25c0.3,0,0.4,0.2,0.4,0.5c-0.1,0.2-0.3,0.4-0.5,0.4c-0.3,0-0.4-0.2-0.4-0.5
		C110.1,25.2,110.4,25,110.6,25L110.6,25z"/>
	<path class="st1" d="M101.3,24.8c0.3,0,0.5,0.2,0.4,0.5c0,0.3-0.2,0.5-0.5,0.4c-0.3,0-0.4-0.3-0.4-0.5
		C100.8,24.9,101.1,24.7,101.3,24.8L101.3,24.8z"/>
	<path class="st1" d="M92.1,24.6c0.3,0,0.4,0.2,0.4,0.5c-0.1,0.2-0.3,0.4-0.5,0.4c-0.2,0-0.4-0.2-0.4-0.5
		C91.7,24.7,91.9,24.6,92.1,24.6L92.1,24.6z"/>
	<path class="st1" d="M61.9,22c-35.5,2-61.5,0.9-61.9-3c-0.2-2.1,6.8-4.7,18.6-7.2c-0.1-0.1-0.1-0.3-0.2-0.4
		c-0.5-0.1-0.9,0.3-1.4-0.1c-0.2-0.3-0.2-0.5-0.3-0.8c0.1-0.3,0.3-0.6,0.6-0.7c0.4,0,1.1-0.2,1.1,0.4c0.1,0.4,0,1,0.5,1.1
		c0.4,0.1,0.8,0.1,1.1-0.2c0.2-0.2,0.4-0.5,0.3-0.8c0.1-0.3-0.1-0.6-0.4-0.8c-0.5-0.2-1.4,0.5-1.6-0.4c-0.1-0.3-0.2-0.7,0-0.9
		c0.3-0.3,0.6-0.5,0.9-0.5C19.6,7.9,19.9,8,20,8.4C20,8.7,20,9.1,20.5,9.3c0.5,0,1.1,0.1,1.3-0.4c0.3-0.5-0.2-1.1,0.2-1.5
		c0.3-0.2,0.6-0.2,0.9-0.3c0.3,0.1,0.6,0.2,0.6,0.6C23.6,8,23.7,8.4,24,8.4c0.2,0.1,0.6,0.2,0.8,0.1c0.4-0.1,0.6-0.4,0.6-0.8
		c0.1-0.4-0.1-0.6,0.1-0.9c0.4-0.3,1.1-0.6,1.5-0.2c0.2,0.3,0.1,0.7,0.4,1c-2,1.1-2.9,2.5-2.9,4.1c0,3.2,4.2,5.4,10.7,5.4
		c7.4,0,9.9-3.2,9.9-3.6l-5.8-0.2c0,1-1.9,1.7-3.9,1.7c-2.7,0-4.2-1.1-4.2-2.3l0.1-0.5h13.9c0.1-1.5-0.4-3-2.2-4.2
		c-1.5-1.1-4.1-1.8-6.8-1.9l0,0c0.1-0.4-0.1-0.8,0.2-1.1c0.4-0.3,0.8-0.4,1.2-0.2c0.6,0.2,0.2,1.1,0.9,1.3c0.4,0,0.6,0.1,0.8-0.1
		c0.6-0.4-0.2-1.4,0.9-1.7c0.5-0.1,0.8-0.1,1,0.3c0.2,0.4,0.1,1,0.6,1.1c0.3,0,0.6,0,1-0.1l7.3,6.3l-7.1,5.1h6.4l3.6-2.6L61.9,22
		L61.9,22z M22.1,9.6c-0.1,0.4,0.3,0.8,0.7,0.8c0.4,0.1,0.8-0.3,0.9-0.7c0-0.4-0.3-0.8-0.7-0.8C22.6,8.9,22.2,9.1,22.1,9.6L22.1,9.6
		z"/>
	<path class="st1" d="M171,4c-0.4-4.8-39-5.4-86.3-1.3C81.2,3,77.8,3.4,74.4,3.7c-0.1-0.1-0.3-0.3-0.3-0.5c0-0.3-0.4-0.7-0.8-0.6
		c-0.6,0.1-0.6,0.6-0.7,1C72.5,3.8,72.2,3.9,72,4C71.8,4,71.5,4,71.3,4c-0.5-0.1-0.6-0.8-1-1.1c-0.4-0.2-0.8-0.1-1.1,0.1
		C69.2,3,69.2,3,69.1,3v3.2h4.7l0,0h5.5v2h0.1c0.7-1.1,2-2.3,4.7-2.2l1.6,0.1v1.8c1.8-1.1,4.6-1.8,8.1-1.8c3.1,0,6.2,0.7,8,1.9
		c0.2,0.1,0.4,0.4,0.6,0.5V6.3h6v1.6h0.1c1.1-1.3,2.1-1.8,5-1.8c2.9,0,4.6,0.6,6,1.8c1.1-1.3,2.5-1.8,5.3-1.8c1.9,0,4,0.4,5.3,1.1
		c0.7,0.4,1,0.8,1.1,1.4c1.8-1.5,4.8-2.5,9-2.5c3.1,0,6.2,0.7,8,1.9c1.8,1.2,2.2,2.7,2.2,4.2h-14v0.5c0,1.3,1.5,2.3,4.2,2.3
		c1.9,0,3.9-0.7,3.9-1.7l5.8,0.2c0,0.5-2.5,3.6-9.9,3.6c-4.1,0-7.4-0.8-9.2-2.3v2.1h-6.3v-5.6c0-0.4,0.1-1.5-0.1-1.9
		c-0.4-0.7-1.1-0.8-2.2-0.8c-1.1,0-1.6,0.3-2.1,0.8c-0.5,0.6-0.4,1.4-0.4,2v5.6h-6.3v-5.6c0-1.1,0.4-2.8-2.3-2.8
		c-2.7,0.1-2.6,1.6-2.6,2.8v5.6h-6.3v-1.8c-1.5,1-4.1,2-8.4,2c-6.5,0-10.8-2.2-10.8-5.4c0-0.9,0.4-1.8,1-2.5c-3.5,0.3-4.4,2-4.4,3.6
		v4.1h-5.7L73.7,17c-1.2,0.1-2.4,0.1-3.5,0.1c-1.8,0-4.2-0.1-5.7-0.6c-1.8-0.8-1.8-2-1.8-3.1V8.7h-2.2l-4.3,3.1l11.6,9.9
		c0.2,0.1,0.4,0.2,0.4,0.4l0.8,0.6c0.4,0,0.8-0.1,1.2-0.1c0.2,0.1,0.4,0.3,0.4,0.5c0.1,0.5,0.6,0.6,1,0.6c0.6-0.1,0.6-0.6,0.7-1
		c0.2-0.3,0.6-0.5,0.9-0.4c0.6,0,0.8,0.6,1.2,1c0.2,0.3,0.7,0.2,1,0.1c0.9-0.1,0.3-1.2,1.1-1.3c0.4-0.1,0.6,0.1,0.8,0.4
		c0.6,1.1-1,0.6-0.9,1.4c0.1,0.4,0.4,0.7,0.8,0.6c0.6-0.3,0.2-0.9,0.6-1.3c0.5-0.1,1-0.3,1.5-0.1c0.4,0.1,0.3,0.6,0.6,0.8
		c0.3,0.3,0.7,0.3,1,0.1c0.7-0.1,0.4-0.9,0.8-1.2c0.3-0.2,0.6-0.3,0.9-0.1c0.4,0.1,0.5,0.5,0.7,0.8c0.5,0.5,1.2,0.1,1.8,0.1
		c0.4,0.2,0.1,0.7,0.6,0.9c0.3,0.2,0.7,0.3,1,0.1c0.4-0.4,0.2-0.8,0.4-1c0.3-0.4,0.7-0.4,1.1-0.4c0.6,0,0.7,0.6,1.1,1
		c0.3,0.1,0.6,0.3,0.9,0.1c0.8-0.1,0.6-0.7,0.7-1.1c0.2-0.3,0.6-0.4,0.8-0.4c0.6-0.1,0.7,0.7,1.1,1.1c0.5,0.2,1-0.1,1.5,0
		c0.6,0.1,0.4,0.8,0.9,1c0.3,0.3,0.6,0.1,0.9,0c0.3-0.3,0.3-0.6,0.4-1c0.4-0.4,0.8-0.6,1.3-0.4c0.5,0.1,0.4,0.6,0.7,1
		c0.3,0.1,0.6,0.3,1,0.1c0.6-0.1,0.6-0.8,0.8-1.3c0.3-0.2,0.6-0.4,1-0.2c0.4,0.1,0.5,0.6,0.7,0.9c0.5,0.4,1,0,1.5,0
		c0.6,0.3,0.5,1.3,1.3,1.2c0.8,0.1,0.6-0.9,1.1-1.3c0.3-0.2,0.6-0.4,1-0.3c0.4,0.1,0.6,0.6,0.8,0.9c0.2,0.2,0.4,0.4,0.8,0.4
		c0.9,0,0.7-1.1,1.1-1.5c0.3-0.3,0.6-0.1,1.1-0.1c0.4,0.1,0.5,0.6,0.6,0.8c0.6,0.5,1.5,0.3,1.6,0.1c0.1-0.4,0.1-0.6,0.4-1
		c0.1-0.4,0.6-0.5,0.9-0.4c0.4,0.2,0.4,0.6,0.4,0.8c-0.1,0.6-0.6,0.3-1,0.7c-0.2,0.3-0.1,0.7,0.2,0.9c0.2,0.1,0.6,0.1,0.9-0.1
		c0.2-0.3,0.2-0.6,0.3-1.1c0.2-0.2,0.6-0.4,0.8-0.4c0.8-0.1,1.1,0.6,1.3,1.1c0.2,0.1,0.6,0.2,0.9,0.1c0.9-0.1,0.3-1.1,0.9-1.5
		c0.3-0.2,0.6-0.2,1-0.1c0.6,0.2,0.4,1,0.9,1.1c0.4,0.1,0.8,0,1.2-0.1c0.4-0.4,0.1-0.9,0.5-1.3c0.2-0.2,0.5-0.4,0.9-0.2
		c0.4,0.2,0.5,0.8,0.8,1.1c0.4,0.1,0.8,0.1,1.2-0.1c0.9-0.3,0.5,0.8,1.1,1.1c0.2,0.2,0.8,0.1,1.1-0.1c0.4-0.2,0.1-0.8,0.2-1.1
		c0.3-0.4,0.8-0.5,1.3-0.5c0.7,0,0.4,0.9,1.1,1.1c0.3,0.1,0.7,0.2,1.1-0.1c0.4-0.3,0.1-0.8,0.3-1.1c0.2-0.4,0.7-0.6,1.1-0.5
		c0.7,0.1,0.5,1,1.1,1.2c0.4,0.1,0.8,0.1,1.2-0.2c0.4-0.4,0.1-1,0.4-1.3c0.3-0.2,0.8-0.4,1.1-0.2c0.6,0.2,0.4,0.8,0.8,1.1
		c0.5,0.2,0.9,0.1,1.3-0.1c0.4-0.4-0.1-1.1,0.4-1.4c0.3-0.3,0.7-0.2,1.1-0.1c0.4,0.2,0.4,0.7,0.5,1.1c0.4,0.2,0.8,0,1.2-0.1
		c1-0.4,0.6,0.9,1.3,1.2c0.3,0.2,0.7,0.1,0.9-0.1c0.4-0.2,0.4-0.8,0.4-1.2c0.3-0.6,0.9-0.5,1.4-0.5c0.6,0.1,0.4,1,0.9,1.2
		c0.4,0.1,0.7,0.1,1-0.1c0.5-0.3,0.2-1,0.4-1.3c0.3-0.4,0.8-0.6,1.3-0.5c0.3,0.1,0.4,0.5,0.5,0.8c0.1,0.2,0.4,0.5,0.6,0.6
		c0.3,0.1,0.6,0.1,0.9-0.1c0.8-0.4-0.3-1.4,0.7-1.7c0.3-0.1,0.6-0.3,1-0.1c0.7,0.2,0.1,1.1,0.8,1.3c0.4,0.1,0.8,0.1,1.1-0.2
		c0.4-0.3,0.1-0.8,0.2-1.2c0.3-0.4,0.8-0.6,1.3-0.6c0.7,0.1,0.2,1.1,0.9,1.3c0.4,0.1,0.8,0.1,1.1-0.2c0.4-0.4,0.2-0.8,0.1-1.2
		c0.2-0.6,0.9-0.5,1.5-0.6c0.6,0.3,0.2,1,0.7,1.3c0.3,0.1,0.6,0.2,0.8,0.1c0.3-0.1,0.6-0.3,0.6-0.6s-0.1-0.6-0.3-0.9
		c-0.3-0.1-0.5-0.1-0.8,0c-0.4,0.1-0.8,0.1-0.9-0.4c-0.1-0.3-0.1-0.6-0.1-0.9c0.1-0.3,0.5-0.5,0.8-0.6c1-0.1,0.9,1,1.3,1.5
		c0.1,0.1,1.1,0,1.5-0.4c0.1-0.3,0-0.6,0-0.9c-0.3-1.1,1-0.7,1.5-1.1c0.1-0.5,0.1-1.1-0.3-1.5c-0.3-0.2-0.6,0-0.9,0
		c-1,0.2-0.8-0.9-1.1-1.4c-0.4-0.4-0.9,0.1-1.5-0.1c-0.6-0.2-0.2-0.9-0.7-1.3c-0.4-0.4-1.1,0-1.5-0.1c-0.4-0.4-0.2-1.1-0.8-1.3
		c-0.4-0.1-0.7-0.1-1,0.1c-0.4,0.2-0.2,0.7-0.3,1.1c-0.1,0.3-0.5,0.4-0.7,0.5c-0.3,0.1-0.6-0.1-0.8-0.3c-0.2-0.4-0.3-0.6-0.3-1
		c0.1-0.2,0.5-0.1,0.7-0.2c0.3-0.1,0.6-0.4,0.6-0.7c-0.1-0.1-0.1-0.4-0.3-0.4C165.6,8.1,171.2,5.9,171,4L171,4z M155.1,11.7
		c-0.4,0.1-0.9,0.1-1.4,0c-0.3-0.1-0.4-0.4-0.6-0.6c0.7-0.2,1.3-0.4,2-0.5C154.9,11,155.2,11.3,155.1,11.7L155.1,11.7z M154.3,14.3
		c0-0.1,0.2-0.4,0.4-0.3c0.1,0,0.3,0.2,0.3,0.4c0,0.1-0.2,0.3-0.4,0.3C154.4,14.7,154.2,14.5,154.3,14.3L154.3,14.3z M157.4,13.5
		c0.1-0.4,0.4-0.8,0.9-0.7c0.4,0.1,0.8,0.4,0.7,0.9c-0.1,0.4-0.4,0.8-0.9,0.7C157.7,14.4,157.3,14,157.4,13.5L157.4,13.5z
		 M159.5,15.1c0.1-0.5,0.5-0.8,0.9-0.8c0.4,0.1,0.8,0.5,0.7,0.9c0,0.4-0.4,0.8-0.8,0.7C159.8,15.9,159.5,15.5,159.5,15.1L159.5,15.1
		z M161.5,16.6c0.1-0.6,0.5-0.9,1.1-0.8c0.5,0.1,0.8,0.5,0.8,1c-0.1,0.5-0.5,0.8-1,0.8C161.9,17.6,161.5,17.1,161.5,16.6L161.5,16.6
		z M158,17.3c0.1-0.4,0.4-0.7,0.8-0.7c0.4,0.1,0.8,0.4,0.7,0.8c-0.1,0.4-0.4,0.7-0.8,0.7C158.3,18,158,17.7,158,17.3L158,17.3z
		 M156.2,15.8c0-0.3,0.3-0.5,0.6-0.5c0.3,0,0.5,0.3,0.5,0.6c-0.1,0.4-0.3,0.6-0.6,0.5C156.3,16.4,156.1,16.1,156.2,15.8L156.2,15.8z
		 M154.6,18c0.1-0.4,0.4-0.6,0.6-0.6c0.3,0.1,0.6,0.4,0.5,0.6c0,0.4-0.3,0.6-0.6,0.5C154.9,18.5,154.6,18.3,154.6,18L154.6,18z
		 M156.5,19.4c0-0.4,0.5-0.8,0.9-0.8c0.5,0.1,0.8,0.5,0.8,1c0,0.5-0.4,0.8-0.9,0.8C156.7,20.3,156.4,19.9,156.5,19.4L156.5,19.4z
		 M153,20.1c0.1-0.4,0.5-0.8,0.9-0.7c0.4,0.1,0.7,0.4,0.7,0.8c-0.1,0.5-0.4,0.8-0.9,0.7C153.2,20.9,153,20.5,153,20.1L153,20.1z
		 M151.4,18.6c0.1-0.1,0.2-0.3,0.4-0.3c0.1,0,0.3,0.2,0.3,0.4c0,0.2-0.2,0.4-0.4,0.4C151.5,19,151.4,18.8,151.4,18.6L151.4,18.6z
		 M149.4,20.7c0.1-0.4,0.4-0.7,0.8-0.6c0.4,0,0.8,0.4,0.7,0.8c-0.1,0.4-0.4,0.8-0.8,0.7S149.4,21.1,149.4,20.7L149.4,20.7z
		 M145.8,21.4c0.1-0.4,0.4-0.8,0.8-0.7c0.4,0.1,0.7,0.4,0.7,0.8c-0.1,0.4-0.4,0.7-0.8,0.7C146.1,22.2,145.8,21.8,145.8,21.4
		L145.8,21.4z M142.2,22c0.1-0.4,0.5-0.8,0.9-0.7c0.4,0.1,0.7,0.4,0.7,0.8c-0.1,0.5-0.5,0.8-0.9,0.7C142.5,22.9,142.2,22.5,142.2,22
		L142.2,22z M129.7,22.5c0-0.3,0.3-0.5,0.6-0.5c0.3,0.1,0.5,0.3,0.4,0.6c0,0.3-0.3,0.5-0.6,0.5C129.8,23,129.6,22.8,129.7,22.5
		L129.7,22.5z M126,23.2c0-0.4,0.4-0.6,0.7-0.6c0.4,0.1,0.6,0.4,0.6,0.8c-0.1,0.4-0.4,0.6-0.8,0.6C126.2,23.9,125.9,23.5,126,23.2
		L126,23.2z M117,22.9c0-0.2,0.2-0.4,0.4-0.4c0.2,0,0.4,0.2,0.4,0.4c0,0.2-0.2,0.4-0.4,0.4C117.2,23.4,117,23.2,117,22.9L117,22.9z
		 M104,23.4c0-0.4,0.3-0.6,0.6-0.6c0.3,0.1,0.5,0.4,0.5,0.6c-0.1,0.4-0.4,0.6-0.6,0.5C104.2,24,103.9,23.7,104,23.4L104,23.4z
		 M94.8,23.2c0-0.3,0.3-0.5,0.6-0.5c0.3,0.1,0.5,0.3,0.4,0.6c0,0.3-0.3,0.5-0.6,0.5C94.9,23.7,94.8,23.5,94.8,23.2L94.8,23.2z
		 M85.5,23c0.1-0.3,0.4-0.5,0.6-0.5c0.3,0,0.5,0.3,0.5,0.6c-0.1,0.4-0.4,0.6-0.6,0.5C85.7,23.6,85.5,23.3,85.5,23L85.5,23z"/>
	<polygon class="st0" points="161.8,29.8 161.8,28.8 161.4,28.8 161.4,28.7 162.2,28.7 162.2,28.8 161.9,28.8 161.9,29.8 
		161.8,29.8 	"/>
	<polygon class="st0" points="162.5,29.8 162.4,29.8 162.4,28.7 162.6,28.7 163,29.6 163.3,28.7 163.5,28.7 163.5,29.8 163.3,29.8 
		163.3,28.8 163.3,28.8 163,29.8 162.9,29.8 162.5,28.8 162.5,28.8 162.5,29.8 	"/>
</g>
</svg>
