<?xml version="1.0" encoding="utf-8"?>
<!-- Generator: Adobe Illustrator 21.1.0, SVG Export Plug-In . SVG Version: 6.00 Build 0)  -->
<svg version="1.1" id="Layer_1" xmlns="http://www.w3.org/2000/svg" xmlns:xlink="http://www.w3.org/1999/xlink" x="0px" y="0px"
	 viewBox="0 0 238.2 45.1" style="enable-background:new 0 0 238.2 45.1;" xml:space="preserve">
<style type="text/css">
	.st0{fill:#E42313;}
</style>
<g>
	<polygon class="st0" points="10.4,0.1 10.4,14.4 19.1,14.4 19.1,0.1 29.3,0.1 29.4,35.1 19.1,35.2 19.1,19.7 10.4,19.8 10.4,35.1 
		0,35.2 0,0 	"/>
	<path class="st0" d="M88.9,12c1,1.5,1.7,2.9,1.8,5.6c0.1,3.4,0,17.6,0,17.6h-10l0-18.9c-0.1-0.7-0.5-1.4-1.3-1.8
		c-2.1-0.3-3.5,0.4-4.9,1.7L74,16.9v18.3h-9.6V9.9h9.3l0.6,2C78,8.6,85.4,7.7,88.9,12z"/>
	<path class="st0" d="M131.6,9.9l4.8,11.5l5.1-11.6h13.8l4.6,13.1l3.8-13.1h8l4.3,13.3l4.1-13.3l3.4-0.1L177,35.1h-7.3l-4.3-15
		l-4.5,15l-7.4,0.1l-8.4-25.1l-12.6,31.2c-1.8,2-3.5,3.3-6.7,3.8c-2.1,0.4-3.7-0.4-5.1-1.7c-1.3-1.3-2-3.1-1.4-5.1
		c0.7-1.3,1.7-2.7,3.2-2.8c2-0.1,3.5,1,4.2,2.5c0,1.8,0.2,2.5,0,3.7c2.4-0.1,3.1-3.1,4.2-4.8l-0.1-2.1l-9.9-24.9L131.6,9.9z"/>
	<path class="st0" d="M119.3,14.1c-4.1-6-13.2-6.5-19.3-3.7c-5.2,3.2-6.7,9-6,14.8c0.7,5,4.4,9.4,9.1,10.4
		c5.8,1.3,11.9,0.4,16.2-3.5c1-1.1,1.8-2.7,1.7-4.1c-1.8,0-2.6,0-4.1,0c-0.6,2.7-3.1,4.7-5.5,5.1c-2.4,0.3-5.2-0.1-6.2-1.5
		c-1.1-0.8-1.1-3.2-1.1-7.2h17.7C121.9,20.7,121.1,16.9,119.3,14.1z M104.2,20.4c0.1-2.7-1-7.3,2.2-8.6c2-0.3,4.1,0.3,4.4,2.4l0,6.1
		C108.3,20.6,106.8,20.5,104.2,20.4z"/>
	<path class="st0" d="M210.1,14.1c-4.1-6-13.2-6.5-19.3-3.7c-5.2,3.2-6.7,9-6,14.8c0.7,5,4.4,9.4,9.1,10.4
		c5.8,1.3,11.9,0.4,16.2-3.5c1-1.1,1.8-2.7,1.7-4.1c-1.8,0-2.6,0-4.1,0c-0.6,2.7-3.1,4.7-5.5,5.1c-2.4,0.3-5.2-0.1-6.2-1.5
		c-1.1-0.8-1.1-3.2-1.1-7.2h17.7C212.8,20.7,211.9,16.9,210.1,14.1z M195.1,20.4c0.1-2.7-1-7.3,2.2-8.6c2-0.3,4.1,0.3,4.4,2.4l0,6.1
		C199.1,20.6,197.6,20.5,195.1,20.4z"/>
	<rect x="215.3" class="st0" width="9.5" height="35.1"/>
	<rect x="228.7" class="st0" width="9.5" height="35.1"/>
	<path class="st0" d="M56.2,11.6c-2.4-1.9-5.9-2.8-9.3-2.8c-3.7,0-7.1,1-9.7,3.2c-2.9,2.5-4.5,6.5-4.5,10.6c0,4.4,1.8,8.8,5.1,11.3
		c2.4,1.8,5.8,2.5,9.1,2.5c3.8,0,7.6-1.2,10.1-3.6c2.7-2.5,4-6.3,4-10.2C61.1,18.3,59.4,14.1,56.2,11.6z M50.2,29.9
		c0,1.8-1.4,3.2-3.2,3.2c-1.8,0-3.2-1.4-3.2-3.2V15.1c0-1.8,1.4-3.2,3.2-3.2c1.8,0,3.2,1.4,3.2,3.2V29.9z"/>
</g>
</svg>
