<?xml version="1.0" encoding="utf-8"?>
<!-- Generator: Adobe Illustrator 21.1.0, SVG Export Plug-In . SVG Version: 6.00 Build 0)  -->
<svg version="1.1" id="Слой_1" xmlns="http://www.w3.org/2000/svg" xmlns:xlink="http://www.w3.org/1999/xlink" x="0px" y="0px"
	 viewBox="0 0 187.1 45.2" style="enable-background:new 0 0 187.1 45.2;" xml:space="preserve">
<style type="text/css">
	.st0{fill-rule:evenodd;clip-rule:evenodd;fill:#1D1D1B;}
	.st1{fill-rule:evenodd;clip-rule:evenodd;fill:#E30613;stroke:#E30613;stroke-width:0.216;stroke-miterlimit:2.6131;}
	.st2{fill-rule:evenodd;clip-rule:evenodd;fill:#E30613;}
	.st3{fill:none;stroke:#E30613;stroke-width:0.216;stroke-miterlimit:2.6131;}
</style>
<g>
	<polygon class="st0" points="0,2.6 8.3,2.6 8.3,24.5 17.4,24.6 17.4,32.8 0,32.8 0,2.6 	"/>
	<polygon class="st0" points="30.2,32.8 21.9,32.8 21.9,10.9 12.8,10.8 12.8,2.6 30.2,2.6 30.2,32.8 	"/>
	<polygon class="st0" points="9.6,0 11.6,0 11.6,10.9 9.6,10.9 9.6,0 	"/>
	<polygon class="st0" points="18.8,24.5 20.8,24.5 20.8,35.3 18.8,35.3 18.8,24.5 	"/>
	<polygon class="st1" points="40.9,1.5 48,1.5 48,34.2 40.9,34.2 40.9,1.5 	"/>
	<path class="st1" d="M100.2,10.1h7v2.4c2.4-2.2,3.8-2.8,7.4-3v5.5c-2.3,0.2-7.4,2-7.4,6.2v13h-7V10.1L100.2,10.1z"/>
	<path class="st1" d="M140.4,12.3l0-2.2h-7v24.1h7v-15c-0.1-2.2,6.1-5.7,6.2,0.5v14.5h7.1V17.6C153.6,10.5,147.1,7.8,140.4,12.3
		L140.4,12.3z"/>
	<path class="st2" d="M121.4,9.5c-1.4-0.1-2.8-0.1-4.1-0.1v5.5c1.5-0.1,3,0,4.1,0.1c1.6,0.2,2.6,0.8,2.6,1.8v1.7
		c-0.9-0.5-1.7-0.9-2.6-1.2c-0.7-0.2-1.4-0.2-2.1-0.2c-4.8,0-8.2,3.8-8.2,8.6c0,4.7,3.6,8.5,8.3,8.5c0.7,0,1.4,0,2-0.2
		c0.9-0.2,1.7-0.5,2.6-1l0,1.2h7V16.7C131,11.1,126.2,9.8,121.4,9.5L121.4,9.5z M121.4,28.6c-2,0-3.6-1.6-3.6-3.5s1.6-3.6,3.6-3.6
		c1,0,1.9,0.4,2.5,1c0.6,0.6,1,1.5,1,2.5C124.9,27,123.4,28.6,121.4,28.6L121.4,28.6z"/>
	<path class="st2" d="M170.2,1.4l0,10.7c-1.2-0.9-2.5-1.4-3.9-1.6c-0.4-0.1-0.8-0.1-1.2-0.1c-5.6,0-10.2,5.2-10.2,11.6
		c0,6.4,4.6,11.6,10.2,11.6c0.4,0,0.9,0,1.2-0.1c1.5-0.3,2.8-1,4-1.8l0,2.4h7.1V1.4H170.2L170.2,1.4z M166.3,26.6
		c-2.6,0-4.7-2.2-4.7-4.9c0-2.7,2.1-4.9,4.7-4.9c2.6,0,4.7,2.2,4.7,4.9C171,24.3,168.9,26.6,166.3,26.6L166.3,26.6z"/>
	<path class="st2" d="M73.4,23.8c0.1-0.6,0.1-1.2,0.1-1.9c0-7-5.3-12.8-11.8-12.8c0,0,0,0-0.1,0c-6.5,0-11.9,5.7-11.9,12.8
		c0,7,5.3,12.8,11.9,12.8c0,0,0,0,0.1,0c5,0,9.3-3.5,11-8.2h-7.2c-0.8,1-1.7,1.6-3.6,1.7c-0.1,0-0.2,0-0.2,0
		c-1.8-0.1-3.9-1.7-4.2-4.4h4.2L73.4,23.8L73.4,23.8z M57.6,19.5c0.5-2.8,1.8-4.1,4.1-4.2c0,0,0.1,0,0.1,0c2.4-0.1,3.6,1.6,4,4.2
		h-4.1L57.6,19.5L57.6,19.5z"/>
	<path class="st2" d="M90.9,10.1l0,2.6c-1.2-1.1-2.7-1.9-4.4-2.2c-0.4-0.1-0.8-0.1-1.2-0.1c-5.9,0-10.7,5.2-10.7,11.6
		c0,6.4,4.8,11.6,10.7,11.6c0.4,0,0.9,0,1.2,0c1.6-0.1,3.1-0.6,4.4-1.6c1.1,3.3-1.5,7-4.4,6.7c-1.2-0.1-2.4-0.7-3.4-2.3h-8.7
		c1.5,5.7,6.9,8.8,12.2,8.9C92.3,45.3,98,41.8,98,34.1v-24H90.9L90.9,10.1z M86.5,27.2c-2.6,0-4.8-2.3-4.8-5.1
		c0-2.8,2.2-5.1,4.8-5.1c2.7,0,4.8,2.3,4.8,5.1C91.3,24.9,89.2,27.2,86.5,27.2L86.5,27.2z"/>
	<path class="st3" d="M90.9,12.6l0-2.6h7v24 M98,34.1c0,14.6-20.4,14.2-23.6,2.2 M74.4,36.3h8.7 M83.1,36.3c3.7,5.4,9.4,0.1,7.8-4.5
		c-1.7,1.2-3.5,1.7-5.7,1.7c-5.9,0-10.7-5.2-10.7-11.6c0-6.4,4.8-11.6,10.7-11.6c2.2,0,4.2,0.9,5.6,2.3 M86.5,17
		c2.7,0,4.8,2.3,4.8,5.1c0,2.8-2.1,5.1-4.8,5.1c-2.6,0-4.8-2.3-4.8-5.1C81.7,19.3,83.9,17,86.5,17"/>
	<path class="st0" d="M180.1,4.3c0-1.8,1.4-3.2,3.1-3.2c1.7,0,3.1,1.4,3.1,3.2c0,1.8-1.4,3.2-3.1,3.2C181.5,7.5,180.1,6.1,180.1,4.3
		L180.1,4.3z M183.2,8.1c2.1,0,3.9-1.6,3.9-3.8c0-2.2-1.8-3.8-3.9-3.8c-2.1,0-3.9,1.6-3.9,3.8C179.4,6.5,181.1,8.1,183.2,8.1
		L183.2,8.1z M182.4,4.6h0.8l1.2,1.9h0.7l-1.2-1.9c0.6-0.1,1.1-0.4,1.1-1.2c0-0.9-0.5-1.3-1.6-1.3h-1.7v4.4h0.7V4.6L182.4,4.6z
		 M182.4,4V2.7h0.9c0.5,0,1,0.1,1,0.6c0,0.7-0.5,0.7-1.1,0.7H182.4L182.4,4z"/>
</g>
</svg>
