<?xml version="1.0" encoding="utf-8"?>
<!-- Generator: Adobe Illustrator 21.1.0, SVG Export Plug-In . SVG Version: 6.00 Build 0)  -->
<svg version="1.1" id="Layer_1" xmlns="http://www.w3.org/2000/svg" xmlns:xlink="http://www.w3.org/1999/xlink" x="0px" y="0px"
	 viewBox="0 0 506.3 83.9" style="enable-background:new 0 0 506.3 83.9;" xml:space="preserve">
<style type="text/css">
	.st0{fill-rule:evenodd;clip-rule:evenodd;fill:#516193;}
	.st1{fill:#97C0CD;}
	.st2{fill:#516193;}
	.st3{fill:#FFFFFF;}
</style>
<path class="st0" d="M277.1,9.1c0.8-2.2,2-3.9,3.9-5.1c1.3-0.8,2.6-1.2,4.2-1.2c18.7,0,37.4,0.1,56,0c4.2,0,7.8,3.7,7.8,7.8
	c-0.1,22-0.1,44,0,66c0,3.9-3.2,7.5-7.6,7.5c-3.6,0-7.1,0-10.7,0c-5,0-8.1-3.1-8.1-8.1c0-17,0-34,0-51c0-2.7-1.1-4.1-3.7-4.6
	c-0.5-0.1-1.1-0.1-1.7-0.1c-7.4,0-14.7,0-22.1,0c-3.7,0-5.2,1.5-5.3,5.3c0,3.7,0,7.4,0,11c0,13.2,0,26.4,0,39.6
	c0,3.8-1.8,6.4-5.1,7.5c-0.8,0.2-1.6,0.4-2.5,0.4c-3.7,0-7.4,0-11,0c-4.5,0-8-3.3-8-8c0.1-16.9,0-33.8,0-50.6c0-3.2-0.5-4-3.6-5.1
	c-0.3-0.1-0.6-0.6-0.6-0.9c0-5.2,0-10.5,0-15.7c0-0.9,0.4-1,1.1-1c3.1,0,6.2,0,9.2,0c3.6,0,6.3,2,7.4,5.4
	C276.9,8.5,277,8.8,277.1,9.1z"/>
<path class="st0" d="M157.7,66.4c0,4,0.3,7.9-0.1,11.6c-0.4,3.3-4.1,5.9-7.5,5.9c-12.4,0-24.7,0-37.1,0c-5.1,0-9.2-4.1-9.2-9.2
	c0-21,0-41.9,0-62.9c0-5.4,4.2-9.6,9.7-9.6c3.9,0,7.8,0,11.8,0c5.6,0,9.6,4.1,9.6,9.7c0,16.2,0,32.4,0,48.6c0,3.6,2.2,5.8,5.8,5.8
	c5.2,0,10.5,0,15.7,0C156.8,66.4,157.3,66.4,157.7,66.4z"/>
<path class="st0" d="M506.2,66.4c0,4,0.3,7.7-0.1,11.4c-0.3,3.4-4.1,6.2-7.5,6.2c-12.4,0-24.7,0-37.1,0c-5.6,0-9.4-4.8-9.2-8.8
	c0.1-2,0-4,0-6c0-18.8,0-37.7,0-56.5c0-4.1,1.5-7.2,5.1-9.2c1.2-0.7,2.7-1.1,4.1-1.1c4.1-0.1,8.2-0.1,12.4-0.1c5,0,8.7,3.3,9.4,8.2
	c0.1,0.9,0.2,1.7,0.2,2.6c0,15.9,0.1,31.7,0,47.6c0,3.2,2.8,5.7,5.7,5.6c5.3-0.1,10.6,0,16,0C505.3,66.4,505.8,66.4,506.2,66.4z"/>
<path class="st0" d="M252,66.4c-0.6,0-1.1,0-1.6,0c-12.2,0-24.3,0-36.5,0c-5.5,0-11,0-16.6,0c-2.5,0-4.6-2-4.7-4.4c0-3.5,0-7,0-10.6
	c0-0.7,0.3-1,1-1c0.4,0,0.8,0,1.2,0c16.2,0,32.4-0.1,48.6,0c4.6,0,8.6-4.1,8.6-8.6c-0.2-10.2-0.2-20.5,0-30.7
	c0.1-4.7-3.9-8.6-8.5-8.5c-23.1,0.1-46.2,0.1-69.2,0c-4.5,0-8.3,3.8-8.3,8.3c0.1,21.6,0,43.1,0,64.7c0,4.9,3.4,8.3,8.3,8.3
	c13.7,0,27.4,0,41,0c9.5,0,19,0,28.4,0c4.1,0,7.9-3,8.2-7C252.2,73.6,252,70.1,252,66.4z M197.5,20.2c3.8,0,7.7,0,11.5,0
	c3.7,0,7.4,0,11,0c3.6,0,5.2,1.6,5.2,5.2c0,1,0,1.9,0,2.9c0,3-1.6,4.7-4.5,4.7c-7.8,0.1-15.7,0.1-23.5,0c-2.9,0-4.5-1.8-4.5-4.6
	c0-1.1,0-2.2,0-3.4C192.7,21.9,194.4,20.2,197.5,20.2z"/>
<path class="st0" d="M443.6,67.9c0-1.2-0.3-1.5-1.5-1.5c-17.5,0-35,0-52.4,0c-3.4,0-5.3-1.9-5.3-5.3c0-3,0-6,0-9
	c0-1.6,0-1.6,1.6-1.6c9.6,0,19.1,0,28.7,0c6.9,0,13.8-0.1,20.8,0c4.2,0.1,8.4-3.9,8.3-8.3c-0.2-10.4-0.1-20.8-0.1-31.2
	c0-0.8,0-1.6-0.2-2.4c-1-3.5-4.1-5.9-7.9-5.9c-11.6,0-23.3,0-34.9,0c-11.5,0-23,0.1-34.6-0.1c-4.6-0.1-8.3,4.2-8.3,8.2
	c0.1,21.7,0.1,43.4,0,65.2c0,3.9,3.5,8,8,7.9c3,0,6.1,0,9.1,0c20.2,0,40.3,0,60.5,0c4.4,0,8.6-3.6,8.3-8.2
	C443.4,73.2,443.5,70.6,443.6,67.9z M384.5,23.7c0.3-2.2,2-3.4,4.6-3.5c3.8,0,7.7,0,11.5,0c3.7,0,7.4,0,11.2,0c3.4,0,5,1.5,5.2,4.9
	c0.1,1,0.1,2.1,0,3.1c-0.2,3.3-1.8,4.8-5.1,4.8c-5.7,0-11.4,0-17,0c-1.7,0-3.4,0-5.2,0c-3.6,0-5.1-1.4-5.3-5
	C384.2,26.6,384.3,25.1,384.5,23.7z"/>
<path class="st1" d="M50.7,81.7c-4.5,4.5-11.8,4.5-16.3,0l-31-31c-4.5-4.5-4.5-11.8,0-16.3l31-31c4.5-4.5,11.8-4.5,16.3,0l31,31
	c4.5,4.5,4.5,11.8,0,16.3L50.7,81.7z"/>
<path class="st2" d="M49.2,74.6c-3.7,3.7-9.7,3.7-13.3,0L10.4,49.2c-3.7-3.7-3.7-9.7,0-13.3l25.4-25.4c3.7-3.7,9.7-3.7,13.3,0
	l25.4,25.4c3.7,3.7,3.7,9.7,0,13.3L49.2,74.6z"/>
<path class="st1" d="M65.2,17.9c-1.8,0-3.5,0.6-4.9,1.9l-18,18c-2.6,2.6-2.6,6.8,0,9.4l18,18c1.3,1.3,3.1,2,4.9,1.9l16.5-16.5
	c4.5-4.5,4.5-11.8,0-16.3L65.2,17.9z"/>
<path class="st3" d="M63.2,32.6c-5.5,0-10,4.5-10,10s4.5,10,10,10c5.5,0,10-4.5,10-10S68.7,32.6,63.2,32.6z M63.2,47.7
	c-2.8,0-5.1-2.3-5.1-5.1c0-2.8,2.3-5.1,5.1-5.1c2.8,0,5.1,2.3,5.1,5.1C68.3,45.4,66.1,47.7,63.2,47.7z"/>
<circle class="st2" cx="63.2" cy="42.6" r="5.1"/>
<path class="st3" d="M47.9,52.6L42.5,58L27,42.5L42.5,27l12.8,12.8l0.2-0.1l2.8,1.3c0.7-2.1,2.6-3.5,4.9-3.5c0.6,0,1.2,0.1,1.7,0.3
	L47.2,20c-2.6-2.6-6.8-2.6-9.3,0L20,37.8c-2.6,2.6-2.6,6.8,0,9.3L37.8,65c2.6,2.6,6.8,2.6,9.3,0l6.6-6.6L47.9,52.6z"/>
</svg>
