<?xml version="1.0" encoding="utf-8"?>
<!-- Generator: Adobe Illustrator 21.1.0, SVG Export Plug-In . SVG Version: 6.00 Build 0)  -->
<svg version="1.1" id="Слой_1" xmlns="http://www.w3.org/2000/svg" xmlns:xlink="http://www.w3.org/1999/xlink" x="0px" y="0px"
	 viewBox="0 0 177.7 25.9" style="enable-background:new 0 0 177.7 25.9;" xml:space="preserve">
<style type="text/css">
	.st0{fill-rule:evenodd;clip-rule:evenodd;fill:#005DA9;}
</style>
<g>
	<path class="st0" d="M44.1,7.4h6.5l0.3,2.1c0.5-1.7,3.8-2.9,5.8-2.9c4.6,0,6.5,2.9,6.5,7.9v10.8h-7.2v-9.6c0-1.9-0.4-3.4-2.3-3.4
		c-1.8,0-2.7,1.9-2.7,3.3v9.7h-6.9V7.4L44.1,7.4z"/>
	<path class="st0" d="M2,25.4V0.1h12.1c7.2,0,10.5,3.5,10.5,8.6c0,5.4-3,9.1-10.5,9.1H10v7.6H2L2,25.4z M13.2,11.6
		c1.9,0,4-0.4,4-2.6c0-2.3-2.2-2.8-4-2.8H10v5.4H13.2L13.2,11.6z"/>
	<path class="st0" d="M123.5,7.4h6.6l0.2,2.1c0.6-1.7,3.9-2.9,5.9-2.9c4.6,0,6.5,2.9,6.5,7.9v10.9h-7.2v-9.7c0-1.9-0.4-3.4-2.4-3.4
		c-1.7,0-2.6,1.9-2.6,3.3v9.8h-6.9V7.4L123.5,7.4z"/>
	<path class="st0" d="M90.4,18.9c0,0.7,0.4,1.8,0.8,2.1c0.5,0.4,1.1,0.7,1.9,0.7c1.3,0,2.3-0.4,2.3-1.6c0.1-3-10.9-0.4-10.9-7.5
		c0-5,3.9-6.1,7.9-6.1s9.5,0.8,9.3,6.2h-6.1c0-0.5-0.2-0.9-0.5-1.3c-0.4-0.5-0.9-0.7-1.9-0.8c-1.2-0.1-2.4,0.1-2.4,1.1
		c0.1,2.8,11.3,0.9,11.3,7.5c0,4.6-3.2,6.6-9.4,6.6c-3.9-0.1-8.9-2.1-8.9-7H90.4L90.4,18.9z"/>
	<path class="st0" d="M164.3,14.4c0-0.4,0-1-0.6-1.7c-0.3-0.4-0.9-1.1-1.9-1.1c-2.7,0-3.4,2.6-3.4,4.8c0,2.5,1.1,4.6,3.3,4.6
		c1.9,0,2.8-1.7,2.8-3.1h6.3c0.1,3.7-2.4,8.1-9.4,8.1c-5.6,0-9.6-3.9-9.6-9.6c0-6.9,5.1-9.6,9.6-9.6c6,0,9.4,3.6,9.4,7.7H164.3
		L164.3,14.4z"/>
	<path class="st0" d="M36.4,25.4l-0.7-1.5c-1.4,1.1-2.8,1.8-5.1,1.8c-2.2-0.1-6.6-0.4-6.6-5.1c0-7.9,11.7-4.3,11.7-8.1
		c0-1.3-1.4-1.2-2.2-1.2c-1.4,0-2.4,0.3-2.6,2.4h-6c0-3.7,1.1-6.9,9-6.9c7.6,0,8.4,4,8.4,7.9v8.1c0,1.1,0.1,1.6,0.8,2.4v0.1
		L36.4,25.4L36.4,25.4z M35.9,17.1c-2.4,1.1-5.5,1.1-5.6,2.9c0,1.1,0.6,1.7,2.1,1.7C34.7,21.7,36,19.3,35.9,17.1L35.9,17.1z
		 M76.7,25.4L76,23.9c-1.4,1.1-2.9,1.8-5.1,1.8c-2.3-0.1-6.6-0.4-6.6-5.1c0-7.9,11.7-4.3,11.8-8.1c0-1.3-1.5-1.2-2.2-1.2
		c-1.5,0-2.4,0.3-2.6,2.4h-6c0-3.7,1.1-6.9,9-6.9c7.6,0,8.4,4,8.4,7.9v8.1c0,1.1,0.1,1.6,0.8,2.4v0.1L76.7,25.4L76.7,25.4z
		 M76.1,17.1c-2.4,1.1-5.6,1.1-5.6,2.9c0,1.1,0.6,1.7,2.1,1.7C74.9,21.7,76.3,19.3,76.1,17.1L76.1,17.1z"/>
	<path class="st0" d="M150.6,25.4V7.4h-6.6v17.9H150.6L150.6,25.4z M143.9,5.1h6.6V0h-6.6V5.1L143.9,5.1z"/>
	<path class="st0" d="M112.8,6.8c5.9,0,9.6,4.1,9.6,9.6c0,5.5-3.6,9.6-9.6,9.6c-5.9,0-9.6-4.1-9.6-9.6
		C103.2,10.9,106.9,6.8,112.8,6.8L112.8,6.8z M109.7,16.4c0,2.2,0.7,4.9,3.1,5c2.4,0,3.1-2.8,3.1-5c0-2.1-0.6-4.9-3.1-4.9
		C110.4,11.4,109.7,14.2,109.7,16.4L109.7,16.4z"/>
	<path class="st0" d="M174.9,21.9c0.4,0,1.1,0.1,1.1-0.5c0-0.5-0.4-0.6-0.8-0.6h-0.9v1.1H174.9L174.9,21.9z M176.4,23.6H176
		l-0.9-1.4h-0.7v1.4H174v-3.1h1.3c0.6,0,1.1,0.2,1.1,0.9c0,0.6-0.4,0.8-0.9,0.8L176.4,23.6L176.4,23.6z M177.4,22.1
		c0-1.4-1.1-2.4-2.4-2.4c-1.4,0-2.4,1.1-2.4,2.4c0,1.3,1.1,2.4,2.4,2.4C176.3,24.5,177.4,23.4,177.4,22.1L177.4,22.1z M172.3,22.1
		c0-1.5,1.2-2.7,2.7-2.7c1.5,0,2.7,1.2,2.7,2.7c0,1.5-1.2,2.7-2.7,2.7C173.5,24.8,172.3,23.6,172.3,22.1L172.3,22.1z"/>
</g>
</svg>
