<?xml version="1.0" encoding="utf-8"?>
<!-- Generator: Adobe Illustrator 21.1.0, SVG Export Plug-In . SVG Version: 6.00 Build 0)  -->
<svg version="1.1" id="Layer_1" xmlns="http://www.w3.org/2000/svg" xmlns:xlink="http://www.w3.org/1999/xlink" x="0px" y="0px"
	 viewBox="0 0 320.8 65.1" style="enable-background:new 0 0 320.8 65.1;" xml:space="preserve">
<style type="text/css">
	.st0{fill:#006AB5;}
</style>
<g>
	<polyline class="st0" points="153,0 143.9,15.9 112.1,15.9 106.6,25.3 132,25.3 123.3,40.6 97.9,40.6 92.6,50 124.4,50 115.3,65.9 
		62.3,65.9 100,0 153,0 	"/>
	<polyline class="st0" points="183,0 154.4,50 178,50 168.9,65.9 123,65.9 160.6,0 183,0 	"/>
	<path class="st0" d="M228,15.9c-1.8,0-3.4,1-4.1,2.5l-16.5,28.8c-0.2,0.3-0.3,0.6-0.3,1c0,1,0.8,1.8,1.8,1.8h27.5l-9.1,15.9h-40.8
		c-3.9,0-7.1-3.2-7.1-7.1c0-1.3,0.4-2.5,1-3.5l27.7-48.6c2.2-4.1,6.5-6.8,11.5-6.8h44.6l-9.1,15.9H228"/>
	<path class="st0" d="M59.9,18.7l-5,8.8C54.1,29,52.5,30,50.7,30h-7.9l8.1-14.1h7.5c1,0,1.8,0.8,1.8,1.8
		C60.2,18.1,60.1,18.4,59.9,18.7 M80.8,0H37.6L-0.1,65.9h22.4l11.4-20h25.4c5,0,9.3-2.8,11.5-6.8l16.3-28.5c0.6-1,0.9-2.2,0.9-3.5
		C87.8,3.2,84.7,0,80.8,0z"/>
	<path class="st0" d="M292.8,18.7l-16.4,28.8c-0.8,1.5-2.3,2.5-4.1,2.5H268c-1,0-1.8-0.8-1.8-1.8c0-0.4,0.1-0.7,0.3-1L283,18.4
		c0.8-1.5,2.3-2.5,4.1-2.5h4.2c1,0,1.8,0.8,1.8,1.8C293.1,18.1,293,18.4,292.8,18.7 M313.7,0h-35c-5,0-9.3,2.8-11.5,6.8l-27.8,48.6
		c-0.6,1-0.9,2.2-0.9,3.5c0,3.9,3.1,7.1,7.1,7.1h35c5,0,9.3-2.8,11.5-6.8l27.7-48.6c0.6-1,0.9-2.2,0.9-3.5
		C320.8,3.2,317.6,0,313.7,0z"/>
	<path class="st0" d="M296.3,62.5h0.6c0.4,0,0.7,0,0.9-0.2c0.2-0.1,0.3-0.3,0.3-0.5c0-0.2-0.1-0.4-0.2-0.5c-0.1-0.1-0.5-0.1-0.9-0.1
		h-0.7V62.5 M295.8,60.8h1.5c0.4,0,0.7,0.1,0.9,0.3c0.2,0.2,0.3,0.4,0.3,0.7c0,0.6-0.3,0.9-1,1c0.2,0.2,0.5,0.3,0.6,0.5
		c0.1,0.2,0.3,0.6,0.6,1.2h-0.5c-0.3-0.7-0.6-1.2-0.8-1.3c-0.2-0.2-0.5-0.3-0.9-0.3h-0.2v1.6h-0.5V60.8z M300.3,62.6
		c0-0.8-0.3-1.6-0.9-2.2c-0.6-0.6-1.3-0.9-2.2-0.9s-1.6,0.3-2.2,0.9c-0.6,0.6-0.9,1.3-0.9,2.2c0,0.8,0.3,1.6,0.9,2.2
		c0.6,0.6,1.3,0.9,2.2,0.9s1.6-0.3,2.2-0.9C300,64.2,300.3,63.4,300.3,62.6z M293.7,62.6c0-1,0.3-1.8,1-2.5c0.7-0.7,1.5-1,2.5-1
		c1,0,1.8,0.3,2.5,1c0.7,0.7,1,1.5,1,2.5c0,1-0.3,1.8-1,2.5c-0.7,0.7-1.5,1-2.5,1c-1,0-1.8-0.3-2.5-1
		C294.1,64.4,293.7,63.6,293.7,62.6z"/>
</g>
</svg>
