<?xml version="1.0" encoding="utf-8"?>
<!-- Generator: Adobe Illustrator 21.1.0, SVG Export Plug-In . SVG Version: 6.00 Build 0)  -->
<svg version="1.1" id="Слой_1" xmlns="http://www.w3.org/2000/svg" xmlns:xlink="http://www.w3.org/1999/xlink" x="0px" y="0px"
	 viewBox="0 0 187.1 35.5" style="enable-background:new 0 0 187.1 35.5;" xml:space="preserve">
<style type="text/css">
	.st0{fill-rule:evenodd;clip-rule:evenodd;fill:#0097DD;}
</style>
<g>
	<path class="st0" d="M36.8,0.5h13.2l0,0c0,0,9.9,0.2,9.9,11.3c0,10.6-10.2,11.3-10.2,11.3l0,0h-5.2v6.5h-7.7V0.5L36.8,0.5L36.8,0.5
		z M44.5,16.5h3.1l0,0c0,0,4.1-0.4,4.1-4.9c0-4.5-4.4-4.8-4.4-4.8l0,0h-2.8V16.5L44.5,16.5L44.5,16.5z"/>
	<path class="st0" d="M141.4,0.5h13.4l0,0c0,0,9.7,0.6,9.7,11.3c0,9.7-9.8,11.3-9.8,11.3l0,0h-5.6v6.5h-7.7V0.5L141.4,0.5L141.4,0.5
		z M149.1,16.5h3.1l0,0c0,0,4.1-0.4,4.1-4.9c0-4.5-4.4-4.8-4.4-4.8l0,0h-2.8V16.5L149.1,16.5L149.1,16.5z"/>
	<polygon class="st0" points="63.3,0.7 70.9,0.7 70.9,11.3 79,11.3 79,0.7 86.3,0.7 86.3,29.6 79.1,29.6 79.1,17.9 71,17.9 71,29.6 
		63.3,29.6 63.3,0.7 63.3,0.7 	"/>
	<polygon class="st0" points="93.5,0.6 100.8,0.6 100.8,29.6 93.5,29.6 93.5,0.6 93.5,0.6 	"/>
	<polygon class="st0" points="127.1,0.6 134.3,0.6 134.3,29.6 127.1,29.6 127.1,0.6 127.1,0.6 	"/>
	<polygon class="st0" points="107.9,0.7 115.2,0.7 115.2,22.7 123.2,22.7 123.2,29.6 107.9,29.6 107.9,0.7 107.9,0.7 	"/>
	<path class="st0" d="M183.9,0.4c0,0-2.8-0.4-5.5-0.4c-4,0-11,1.1-11.1,9.4c0,0-0.5,6.5,6.6,8.3c6.7,1.7,5.2,3,5.4,3.2
		c0,0,0.2,2.1-4.9,2.1c-5.1,0-6.2-0.9-6.2-0.9l0,0v6.8l0,0c0,0,1.2,0.5,6.2,0.9c6.5,0.5,12.8-2.3,12.8-9.3c0-2.8-1.4-7.2-7.8-8.8
		c-4.1-1-4.7-2.2-4.6-2.7c0,0-0.2-2.3,4.5-2.2c4.3,0.1,4.8,0.7,4.8,0.7l0,0L183.9,0.4L183.9,0.4L183.9,0.4z"/>
	<path class="st0" d="M12.8,35.5C4,35.5,0,28.1,0,22.3C0,21,0,0.4,0,0.4l0,0h26.2l0,0c0,0,0,20.5,0,21.8c0,5.8-4.3,13.2-13.1,13.2
		C13,35.5,12.8,35.5,12.8,35.5L12.8,35.5L12.8,35.5L12.8,35.5z M12.9,34.7c8.3,0,12.4-7,12.4-12.5c0-1.2,0-21.1,0-21.1l0,0H0.8l0,0
		c0,0,0,19.8,0,21.1C0.8,27.7,4.6,34.7,12.9,34.7L12.9,34.7L12.9,34.7L12.9,34.7L12.9,34.7z"/>
	<path class="st0" d="M1.4,22.4c0-6.4,5.2-11.7,11.7-11.7c6.4,0,11.7,5.2,11.7,11.7c0,6.4-5.2,11.7-11.7,11.7
		C6.6,34,1.4,28.8,1.4,22.4L1.4,22.4L1.4,22.4L1.4,22.4z M13.1,33.4c6.1,0,11-4.9,11-11c0-6.1-4.9-11-11-11c-6.1,0-11,4.9-11,11
		C2.1,28.4,7,33.4,13.1,33.4L13.1,33.4L13.1,33.4L13.1,33.4z"/>
	<polygon class="st0" points="7.7,12.6 8.3,16.3 12,16.9 8.3,17.6 7.7,21.2 7,17.6 3.4,16.9 7,16.3 7.7,12.6 7.7,12.6 	"/>
	<polygon class="st0" points="10.4,11.4 10.8,13.8 13.1,14.2 10.8,14.6 10.4,16.9 10,14.6 7.7,14.2 10,13.8 10.4,11.4 10.4,11.4 	
		"/>
	<polygon class="st0" points="18.6,32.2 17.9,28.6 14.3,27.9 17.9,27.2 18.6,23.6 19.2,27.2 22.9,27.9 19.2,28.6 18.6,32.2 
		18.6,32.2 	"/>
	<polygon class="st0" points="15.8,33.4 15.4,31.1 13.1,30.7 15.4,30.2 15.8,27.9 16.3,30.2 18.6,30.7 16.3,31.1 15.8,33.4 
		15.8,33.4 	"/>
	<path class="st0" d="M24,20.8c0,0-1.5,0.7-2.7,0.7c-1.2,0-2.5-0.7-2.5-0.7S17.4,20,15.7,20c-1.5,0-2.8,0.9-2.8,0.9
		s-1.5,0.7-2.8,0.7c-1.3,0-2.4-0.7-2.4-0.7S6.5,20,4.8,20c-1.7,0-2.7,0.8-2.7,0.8l0,0l-0.1,0.9l0,0c0,0,1.1-0.8,2.8-0.8
		c1.7,0,2.9,0.9,2.9,0.9s1.1,0.7,2.4,0.7c1.3,0,2.8-0.7,2.8-0.7s1.3-0.9,2.8-0.9c1.7,0,3.1,0.9,3.1,0.9s1.3,0.7,2.5,0.7
		c1.2,0,2.8-0.8,2.8-0.8l0,0L24,20.8L24,20.8L24,20.8z"/>
	<path class="st0" d="M24.1,23.4c0,0-1.6,0.8-2.8,0.8c-1.2,0-2.5-0.7-2.5-0.7s-1.4-0.8-3.1-0.8c-1.5,0-2.8,0.9-2.8,0.9
		s-1.5,0.7-2.8,0.7c-1.3,0-2.4-0.7-2.4-0.7s-1.2-0.9-2.9-0.9c-1.7,0-2.8,0.8-2.8,0.8l0,0l0,0.9l0,0c0,0,1.1-0.8,2.8-0.8
		c1.7,0,2.9,0.9,2.9,0.9S8.9,25,10.2,25c1.3,0,2.8-0.7,2.8-0.7s1.3-0.9,2.8-0.9c1.7,0,3.1,0.9,3.1,0.9s1.3,0.7,2.5,0.7
		c1.2,0,2.8-0.8,2.8-0.8l0,0L24.1,23.4L24.1,23.4L24.1,23.4z"/>
	<path class="st0" d="M24.1,22c0,0-1.7,0.8-2.8,0.8c-1.2,0-2.5-0.7-2.5-0.7s-1.4-0.8-3.1-0.8c-1.5,0-2.8,0.9-2.8,0.9
		s-1.5,0.7-2.8,0.7c-1.3,0-2.4-0.7-2.4-0.7s-1.2-0.9-2.9-0.9c-1.7,0-2.8,0.8-2.8,0.8l0,0l0,0.8l0,0c0,0,1.1-0.8,2.8-0.8
		c1.7,0,2.9,0.9,2.9,0.9s1.1,0.7,2.4,0.7c1.3,0,2.8-0.7,2.8-0.7s1.3-0.9,2.8-0.9c1.7,0,3.1,0.8,3.1,0.8s1.3,0.7,2.5,0.7
		c1.2,0,2.8-0.8,2.8-0.8l0,0L24.1,22L24.1,22L24.1,22z"/>
	<path class="st0" d="M1.8,3.8h2l0,0c0,0,1.5,0.1,1.5,1.7c0,1.5-1.5,1.7-1.5,1.7l0,0H3v1H1.8V3.8L1.8,3.8L1.8,3.8z M3,6.3h0.5l0,0
		c0,0,0.6-0.1,0.6-0.7c0-0.7-0.7-0.7-0.7-0.7l0,0H3V6.3L3,6.3L3,6.3z"/>
	<path class="st0" d="M17.7,3.8h2l0,0c0,0,1.5,0.1,1.5,1.7c0,1.5-1.5,1.7-1.5,1.7l0,0h-0.9v1h-1.2V3.8L17.7,3.8L17.7,3.8z M18.8,6.3
		h0.5l0,0c0,0,0.6-0.1,0.6-0.7c0-0.7-0.7-0.7-0.7-0.7l0,0h-0.4V6.3L18.8,6.3L18.8,6.3z"/>
	<polygon class="st0" points="5.8,3.9 7,3.9 7,5.5 8.2,5.5 8.2,3.9 9.3,3.9 9.3,8.2 8.2,8.2 8.2,6.5 7,6.5 7,8.2 5.8,8.2 5.8,3.9 
		5.8,3.9 	"/>
	<polygon class="st0" points="10.4,3.9 11.5,3.9 11.5,8.2 10.4,8.2 10.4,3.9 10.4,3.9 	"/>
	<polygon class="st0" points="15.5,3.9 16.6,3.9 16.6,8.2 15.5,8.2 15.5,3.9 15.5,3.9 	"/>
	<polygon class="st0" points="12.6,3.9 13.7,3.9 13.7,7.2 14.9,7.2 14.9,8.2 12.6,8.2 12.6,3.9 12.6,3.9 	"/>
	<path class="st0" d="M24.1,3.8c0,0-0.4-0.1-0.8-0.1c-0.6,0-1.7,0.2-1.7,1.4c0,0-0.1,1,1,1.3c1,0.3,0.8,0.5,0.8,0.5
		c0,0,0,0.3-0.7,0.3c-0.8,0-0.9-0.1-0.9-0.1l0,0v1l0,0c0,0,0.2,0.1,0.9,0.1c1,0.1,1.9-0.3,1.9-1.4c0-0.4-0.2-1.1-1.2-1.3
		c-0.6-0.1-0.7-0.3-0.7-0.4c0-0.1,0-0.3,0.7-0.3c0.7,0,0.7,0.1,0.7,0.1l0,0L24.1,3.8L24.1,3.8L24.1,3.8z"/>
</g>
</svg>
