<?xml version="1.0" encoding="utf-8"?>
<!-- Generator: Adobe Illustrator 21.1.0, SVG Export Plug-In . SVG Version: 6.00 Build 0)  -->
<svg version="1.1" id="Layer_1" xmlns="http://www.w3.org/2000/svg" xmlns:xlink="http://www.w3.org/1999/xlink" x="0px" y="0px"
	 viewBox="0 0 156.1 64.4" style="enable-background:new 0 0 156.1 64.4;" xml:space="preserve">
<style type="text/css">
	.st0{fill-rule:evenodd;clip-rule:evenodd;fill:#525149;}
	.st1{fill-rule:evenodd;clip-rule:evenodd;fill:url(#SVGID_1_);}
	.st2{fill-rule:evenodd;clip-rule:evenodd;fill:url(#SVGID_2_);}
	.st3{fill-rule:evenodd;clip-rule:evenodd;fill:url(#SVGID_3_);}
	.st4{fill-rule:evenodd;clip-rule:evenodd;fill:url(#SVGID_4_);}
	.st5{fill-rule:evenodd;clip-rule:evenodd;fill:url(#SVGID_5_);}
	.st6{fill-rule:evenodd;clip-rule:evenodd;fill:url(#SVGID_6_);}
	.st7{fill-rule:evenodd;clip-rule:evenodd;fill:url(#SVGID_7_);}
	.st8{fill:#006935;}
	.st9{fill:#B8BEB5;}
</style>
<g>
	<path class="st0" d="M17.8,6.7c-3.6-1.6-5.7-2.1-7.8-2.1c-2.2,0-3.6,0.8-3.6,2c0,3.7,12.5,2.7,12.5,11.3c0,4.7-4,7.5-9.4,7.5
		c-4.4,0-6.5-1.1-8.9-2.4v-5.3C4,19.9,6.2,20.7,9,20.7c2.4,0,3.6-0.8,3.6-2.3c0-4-12.6-2.5-12.6-11.3C0,2.8,3.7,0,9.4,0
		c2.8,0,5.2,0.6,8.3,1.9V6.7L17.8,6.7z"/>
	<path class="st0" d="M35.4,24.1c-2.1,0.7-3.9,1.1-5.6,1.1c-5.9,0-9.7-3.4-9.7-8.6c0-5.1,4-8.6,9.4-8.6c1.7,0,3.9,0.4,5.6,1.1v3.9
		c-1.4-0.7-3-1.2-4.3-1.2c-3.2,0-5.2,1.9-5.2,4.8c0,2.9,2,4.9,5,4.9c1.3,0,2.4-0.3,4.7-1.2V24.1L35.4,24.1z"/>
	<path class="st0" d="M48.9,22v-6.7c0-2.5-1-3.6-2.7-3.6c-1.2,0-2.2,0.8-3.5,2.5v10.6h-5.2V0.3h5.2v10.4h0.1
		c1.5-1.9,3.2-2.8,5.2-2.8c3.1,0,6.1,1.8,6.1,6.3V21C52.4,21,50.3,21.7,48.9,22L48.9,22z"/>
	<path class="st0" d="M56.6,20.7c0-3,0-12.5,0-12.5h5.2v2.4c1.7-1.9,3.3-2.7,5.5-2.7c2.6,0,6,1.5,6,6.3v10.6h-5.2V14.8
		c0-2.4-1.1-3.3-2.6-3.3c-1.3,0-2.2,0.7-3.6,2.8c0,0,0,4.6,0,7.3C60.1,21,58.3,20.9,56.6,20.7L56.6,20.7z"/>
	<path class="st0" d="M84.2,7.9c-5.2,0-8.8,3.6-8.8,8.7c0,5.2,3.8,8.6,9.7,8.6c1.3,0,4.4,0,7.5-2.2v-3.3c-2.5,1.7-4.1,2.4-6.2,2.4
		c-3.3,0-5.3-1.7-5.5-4.7h11.9C93.1,11.3,89.1,7.9,84.2,7.9L84.2,7.9z M81,14.7c0.2-2.3,1.6-3.6,3.6-3.6c2,0,3.4,1.4,3.6,3.6H81
		L81,14.7z"/>
	<polygon class="st0" points="94.9,8.2 100.1,8.2 100.1,24.9 94.9,24.9 94.9,8.2 	"/>
	<path class="st0" d="M114.6,0.3V9c-1.3-0.6-2.8-1-4.3-1c-4.8,0-8.1,3.5-8.1,8.6c0,5,3.3,8.6,7.8,8.6c1.7,0,3.2-0.5,4.6-1.7v1.3h5.2
		V0.3H114.6L114.6,0.3z M114.6,20.4c-1,1-2,1.3-3.1,1.3c-2.5,0-4-2.1-4-5.1c0-3.3,1.6-5.2,4.2-5.2c1,0,2.2,0.4,2.9,1V20.4
		L114.6,20.4z"/>
	<path class="st0" d="M130.9,7.9c-5.2,0-8.8,3.6-8.8,8.7c0,5.2,3.8,8.6,9.7,8.6c1.3,0,4.4,0,7.5-2.2v-3.3c-2.5,1.7-4.1,2.4-6.2,2.4
		c-3.3,0-5.3-1.7-5.6-4.7h12C139.7,11.3,135.7,7.9,130.9,7.9L130.9,7.9z M127.6,14.7c0.2-2.3,1.5-3.6,3.6-3.6c2.1,0,3.4,1.4,3.6,3.6
		H127.6L127.6,14.7z"/>
	<path class="st0" d="M147.3,13L147.3,13c1.6-3.5,3.3-5.1,5.4-5.1c1,0,1.9,0.4,3.4,1.5l-1.4,4.6c-1.3-0.9-2.2-1.2-3.1-1.2
		c-1.9,0-3.2,1.8-4.3,4.8v7.2H142V8.2h5.2V13L147.3,13z"/>
	<polygon class="st0" points="85.3,32.8 76.8,32.8 76.8,38.9 85,38.9 85,41.6 76.8,41.6 76.8,47.8 85.6,47.8 85.6,50.4 73.9,50.4 
		73.9,30.2 85.3,30.2 85.3,32.8 	"/>
	<polygon class="st0" points="87.2,30.2 89.9,30.2 89.9,50.4 87.2,50.4 87.2,30.2 	"/>
	<path class="st0" d="M93.8,44.2h9.4c0-4.9-2.3-7.3-5.8-7.3c-3.6,0-6.2,2.7-6.2,6.7c0,3.6,2.3,7.1,6.4,7.1c2.2,0,3.6-0.6,5.3-1.6
		v-2.5c-1.6,1-3.1,1.6-4.7,1.6C95.7,48.1,94.2,46.8,93.8,44.2L93.8,44.2z M97.5,39.1c1.8,0,3,1.3,3.1,3.3h-6.7
		C94.2,40.3,95.4,39.1,97.5,39.1L97.5,39.1z"/>
	<path class="st0" d="M115.2,40.6c-1.5-1-2.5-1.3-3.6-1.3c-2.5,0-4,1.8-4,4.5c0,2.8,1.7,4.4,4.4,4.4c1.1,0,2.2-0.3,3.6-0.9v2.5
		c-1,0.4-2.6,0.8-4,0.8c-4,0-6.7-2.8-6.7-6.7c0-4.4,2.5-7.1,6.5-7.1c1.6,0,2.6,0.3,3.9,0.9V40.6L115.2,40.6z"/>
	<path class="st0" d="M120.8,37.1h4.2v2.4h-4.2v6.8c0,1.5,1.1,2,1.9,2c1,0,1.9-0.3,3-1v2.5c-1,0.5-2.4,0.9-3.3,0.9
		c-2.9,0-4.3-1.8-4.3-4.2v-7h-2.3v-0.3l4.9-4.8V37.1L120.8,37.1z"/>
	<path class="st0" d="M129.8,37.1v3.1l0,0c1.3-2.4,2.6-3.3,3.9-3.3c1,0,2.1,0.5,3.2,1.5l-1.4,2.3c-0.8-0.8-1.8-1.3-2.5-1.3
		c-1.8,0-3.2,1.8-3.2,4v7h-2.6V37.1H129.8L129.8,37.1z"/>
	<polygon class="st0" points="138.2,37.1 140.8,37.1 140.8,50.4 138.2,50.4 138.2,37.1 	"/>
	<path class="st0" d="M153.2,40.6c-1.5-1-2.5-1.3-3.6-1.3c-2.5,0-4,1.8-4,4.5c0,2.8,1.7,4.4,4.4,4.4c1.1,0,2.2-0.3,3.6-0.9v2.5
		c-1,0.4-2.6,0.8-4,0.8c-4,0-6.7-2.8-6.7-6.7c0-4.4,2.5-7.1,6.5-7.1c1.6,0,2.6,0.3,3.9,0.9V40.6L153.2,40.6z"/>
	<path class="st0" d="M100.3,1.2c0.5,1.3-0.4,3.2-2,4c-1.6,1-3.3,0.6-3.7-0.6c-0.5-1.3,0.4-3.1,2-4C98.2-0.4,99.9-0.1,100.3,1.2
		L100.3,1.2z"/>
	<path class="st0" d="M140.9,32.4c0.2,0.6-0.2,1.5-1,2c-0.8,0.5-1.6,0.3-1.8-0.3c-0.2-0.6,0.2-1.5,1-2
		C139.8,31.6,140.6,31.7,140.9,32.4L140.9,32.4z"/>
	<g>
		<radialGradient id="SVGID_1_" cx="55.5864" cy="31.2206" r="41.5016" gradientUnits="userSpaceOnUse">
			<stop  offset="0" style="stop-color:#FFFFFF"/>
			<stop  offset="0.5112" style="stop-color:#04A64B"/>
			<stop  offset="1" style="stop-color:#006935"/>
		</radialGradient>
		<path class="st1" d="M35.7,32.7c9.4-9.8,22.8-12.8,29.8-6.8c7,6,5.1,18.9-4.3,28.6c-9.4,9.8-22.8,12.8-29.8,6.8
			C24.3,55.3,26.3,42.5,35.7,32.7L35.7,32.7z"/>
		<g>
			<linearGradient id="SVGID_2_" gradientUnits="userSpaceOnUse" x1="32.916" y1="43.5659" x2="63.9316" y2="43.5659">
				<stop  offset="5.587000e-03" style="stop-color:#B3B3B3"/>
				<stop  offset="0.25" style="stop-color:#F2F2F2"/>
				<stop  offset="0.5" style="stop-color:#B3B3B3"/>
				<stop  offset="0.75" style="stop-color:#F2F2F2"/>
				<stop  offset="1" style="stop-color:#B3B3B3"/>
			</linearGradient>
			<path class="st2" d="M42.3,56h-9.4l1.5-5.8l5.3,0.1c0.8,0,1.9-0.6,2.1-1.4l2.3-10.2c1-4.2,6.2-7.5,10.5-7.5h9.3l-1.2,5.2
				l-4.9,0.1c-1.1,0-1.5,0.3-1.7,1.1l-2.9,11.1C52,52.8,46.7,56,42.3,56L42.3,56z"/>
			<linearGradient id="SVGID_3_" gradientUnits="userSpaceOnUse" x1="25.8278" y1="38.2201" x2="38.4531" y2="38.2201">
				<stop  offset="5.587000e-03" style="stop-color:#BEC0C2"/>
				<stop  offset="1" style="stop-color:#FFFFFF"/>
			</linearGradient>
			<path class="st3" d="M30.4,40.1c0.7-1.2,1.4-2.5,2.3-3.7h5.4l-1.2,3.7H30.4L30.4,40.1z"/>
			<linearGradient id="SVGID_4_" gradientUnits="userSpaceOnUse" x1="23.5774" y1="45.2221" x2="34.577" y2="45.2221">
				<stop  offset="5.587000e-03" style="stop-color:#BEC0C2"/>
				<stop  offset="1" style="stop-color:#FFFFFF"/>
			</linearGradient>
			<path class="st4" d="M27.7,47.1c0.3-1.2,0.6-2.4,1.1-3.7h7.5l-1.2,3.7H27.7L27.7,47.1z"/>
			<linearGradient id="SVGID_5_" gradientUnits="userSpaceOnUse" x1="69.9526" y1="48.3285" x2="58.9524" y2="48.3285">
				<stop  offset="5.587000e-03" style="stop-color:#BEC0C2"/>
				<stop  offset="1" style="stop-color:#FFFFFF"/>
			</linearGradient>
			<path class="st5" d="M67,46.5c-0.6,1.2-1.4,2.5-2.2,3.7h-7.3l1.2-3.7H67L67,46.5z"/>
			<linearGradient id="SVGID_6_" gradientUnits="userSpaceOnUse" x1="70.0779" y1="41.3266" x2="59.2031" y2="41.3266">
				<stop  offset="5.587000e-03" style="stop-color:#BEC0C2"/>
				<stop  offset="1" style="stop-color:#FFFFFF"/>
			</linearGradient>
			<path class="st6" d="M69.4,39.5c-0.2,1.2-0.6,2.4-1,3.7h-9.2l1.2-3.7H69.4L69.4,39.5z"/>
			<linearGradient id="SVGID_7_" gradientUnits="userSpaceOnUse" x1="48.4238" y1="64.496" x2="48.4238" y2="34.3699">
				<stop  offset="5.587000e-03" style="stop-color:#BEC0C2"/>
				<stop  offset="1" style="stop-color:#FFFFFF"/>
			</linearGradient>
			<path class="st7" d="M42.3,56h-9.4l1.5-5.8l5.3,0.1c0.8,0,1.9-0.6,2.1-1.4l2.3-10.2c1-4.2,6.2-7.5,10.5-7.5h9.3l-1.2,5.2
				l-4.9,0.1c-1.1,0-1.5,0.3-1.7,1.1l-2.9,11.1C52,52.8,46.7,56,42.3,56L42.3,56z"/>
		</g>
		<g>
			<path class="st8" d="M34.4,60.8c0,0,7.8,2.6,19.7-2.7C52.2,60.1,40.7,65.7,34.4,60.8z"/>
			<path class="st9" d="M35,61.2c0,0,7.3,2.3,18.6-2.7C52.5,59.5,42.4,65.1,35,61.2z"/>
		</g>
	</g>
</g>
</svg>
