<?xml version="1.0" encoding="utf-8"?>
<!-- Generator: Adobe Illustrator 21.1.0, SVG Export Plug-In . SVG Version: 6.00 Build 0)  -->
<svg version="1.1" id="Слой_1" xmlns="http://www.w3.org/2000/svg" xmlns:xlink="http://www.w3.org/1999/xlink" x="0px" y="0px"
	 viewBox="0 0 186.6 29.1" style="enable-background:new 0 0 186.6 29.1;" xml:space="preserve">
<style type="text/css">
	.st0{fill-rule:evenodd;clip-rule:evenodd;}
</style>
<g>
	<path class="st0" d="M14.7,0H0.1v14.6h1.8V1.8H13C13.6,1,14.1,0.4,14.7,0L14.7,0z M13.3,19.1h14.6V4.5h-1.8v12.8H15
		C14.4,18.2,13.9,18.8,13.3,19.1L13.3,19.1z M14.4,16.5c-1.6,2.6-3.1,2.6-4.9,2.6H0.1v-3.7H3c1.9,0,3.5-1,4.3-2.4l6.3-10.4
		C15.2,0,16.7,0,18.5,0h9.4v3.7H25c-1.9,0-3.5,1-4.3,2.4L14.4,16.5L14.4,16.5z"/>
	<path class="st0" d="M46.9,11.6c0.9,1.1,0.6,3.9-2.1,3.9h-7.6v-2.4h3.4c0.6,0,0.8-0.6,0.4-1.1l-3.2-4.3c-0.9-1.1-0.6-3.9,2.1-3.9
		h7.6v2.4h-3.4c-0.6,0-0.7,0.6-0.3,1.1L46.9,11.6L46.9,11.6z M152.9,11.6c0.9,1.1,0.6,3.9-2.1,3.9h-7.6v-2.4h3.4
		c0.6,0,0.7-0.6,0.4-1.1l-3.2-4.3c-0.9-1.1-0.6-3.9,2.1-3.9h7.6v2.4h-3.4c-0.6,0-0.8,0.6-0.4,1.1L152.9,11.6L152.9,11.6z M51.3,3.7
		h10.4v2.5h-5.3v2.3h5.3v2.3h-5.3V13h5.3v2.5H51.3V3.7L51.3,3.7z M157,3.7h10.4v2.5h-5.3v2.3h5.3v2.3h-5.3V13h5.3v2.5H157V3.7
		L157,3.7z M119.4,3.7h10.4v2.5h-5.3v2.3h5.3v2.3h-5.3V13h5.3v2.5h-10.4V3.7L119.4,3.7z M71.5,3.7h-5.3v11.8h2.4V8.2l4.8,7.3h5.4
		V3.7h-2.4v7.3L71.5,3.7L71.5,3.7z M88.2,3.7h-5.3v11.8h2.4V8.2l4.8,7.3h5.3V3.7H93v7.3L88.2,3.7L88.2,3.7z M134.1,3.7h5.1v11.8
		h-5.1V3.7L134.1,3.7z M100.1,3.7h5.2v4.5h4.1V3.7h5.1v11.8h-5.1v-4.5h-4.1v4.5h-5.2V3.7L100.1,3.7z M179.2,10.8H177v4.7h-5.1V3.7
		h10.6c1.3,0,3.2,1,3.4,3.2c0.1,1.4-0.4,2.6-2.3,3.5l2.6,5.1h-4.6L179.2,10.8L179.2,10.8z M177,6.1h3c0.6,0,1.2,0.5,1.2,1.2l0,0
		c0,0.6-0.5,1.2-1.2,1.2h-3V6.1L177,6.1z"/>
	<path class="st0" d="M55.5,29.1c-0.1,0-0.2,0-0.3-0.1C55.1,29,55.1,29,55,28.9c0-0.1,0-0.1-0.1-0.2c0-0.2,0-0.4,0-0.6
		c0.1-0.2,0.2-0.3,0.3-0.5c0.2-0.2,0.3-0.4,0.5-0.6c0,0,0.1,0,0.1,0c0.1-0.2,0.3-0.3,0.4-0.5c0,0,0.1,0,0.1,0
		c0.1-0.1,0.1-0.1,0.2-0.2c0,0,0-0.1,0-0.1c0.1-0.1,0.3-0.3,0.4-0.4c0.1-0.1,0.2-0.2,0.4-0.3c0,0,0-0.1,0-0.1
		c0.1-0.1,0.1-0.1,0.2-0.2c0-0.1,0.1-0.1,0.1-0.2c0,0,0.1-0.1,0.1-0.1c0.2-0.2,0.3-0.3,0.5-0.5c0,0,0-0.1,0-0.1
		c0.1-0.1,0.2-0.3,0.4-0.4c0-0.1,0-0.1,0-0.2c-0.3,0.1-0.5,0.2-0.8,0.2c-0.1,0-0.1,0.1-0.2,0.1c-0.1,0-0.2,0.1-0.4,0.1
		c-0.2,0.1-0.3,0.1-0.5,0.2c0,0,0,0,0,0.1c-0.1,0-0.2,0.1-0.3,0.1c-0.1,0-0.1,0.1-0.2,0.1c-0.1,0-0.3,0.1-0.4,0.1
		c-0.1,0-0.1,0.1-0.2,0.1c-0.2,0-0.3,0.1-0.5,0.1c0,0-0.1,0.1-0.1,0.1c-0.2,0-0.3,0.1-0.5,0.1c-0.1,0-0.1,0.1-0.2,0.1
		c-0.2,0-0.3,0.1-0.5,0.1c-0.1,0-0.1,0.1-0.2,0.1c-0.2,0-0.5,0.1-0.8,0.1c0,0-0.1,0-0.1,0.1c-0.1,0-0.2,0-0.3,0.1
		c-0.4,0-0.9,0-1.3,0c-0.1,0-0.2,0-0.2-0.1c0,0,0,0,0-0.1c-0.1,0-0.2-0.1-0.3-0.1c-0.1-0.1-0.3-0.2-0.4-0.3
		c-0.1-0.1-0.2-0.2-0.4-0.3c-0.3,0.1-0.7,0.1-1,0.2c0,0,0,0,0,0.1c-0.2,0-0.3,0.1-0.5,0.1c0,0-0.1,0.1-0.1,0.1
		c-0.2,0-0.4,0.1-0.6,0.1c-0.2,0-0.3,0.1-0.5,0.1c-0.4,0-0.9,0-1.3,0c-0.3-0.1-0.6-0.1-1-0.2c0,0,0,0-0.1-0.1
		c-0.1,0-0.3-0.1-0.4-0.1c0,0-0.1-0.1-0.1-0.1c0,0-0.1,0-0.1,0c-0.1-0.1-0.3-0.3-0.4-0.4c-0.1-0.2-0.2-0.4-0.3-0.6c0,0,0-0.1,0-0.1
		c-0.1,0-0.2,0-0.3,0c0,0-0.1,0-0.1,0c0,0-0.1,0.1-0.1,0.1c-0.1,0-0.1,0-0.2,0c0,0-0.1,0.1-0.1,0.1c-0.1,0-0.2,0.1-0.4,0.1
		c-0.2,0.1-0.3,0.1-0.5,0.2c0,0-0.1,0.1-0.1,0.1c-0.1,0-0.2,0.1-0.3,0.1c0,0-0.1,0.1-0.1,0.1c-0.3,0.1-0.6,0.2-0.9,0.3
		c-0.1,0-0.1,0.1-0.2,0.1c-0.1,0-0.2,0-0.3,0c0,0-0.1,0-0.1,0.1c0,0,0,0,0,0.1c-0.2,0-0.3,0.1-0.5,0.1c0,0-0.1,0.1-0.1,0.1
		c-0.4,0-0.7,0.1-1.1,0.1c0,0-0.1,0-0.1,0.1c-1.6,0-3.2,0-4.8,0.1c-2,0-4,0-6.1,0c0,0,0,0-0.1-0.1c-0.3,0-0.6,0.1-1,0.1
		c-0.1,0-0.2,0-0.3,0c0,0-0.1,0-0.1-0.1c-0.4,0-0.9,0-1.3,0c-8.3,0-16.5-0.1-24.8-0.1c0.1,0,0.3-0.1,0.4-0.1c0,0,0.1-0.1,0.1-0.1
		c0.1,0,0.3-0.1,0.4-0.1c0,0,0.1-0.1,0.1-0.1c0.2,0,0.3-0.1,0.5-0.1c0,0,0.1-0.1,0.1-0.1c0.1,0,0.2,0,0.3-0.1c2.4,0,4.8,0,7.2-0.1
		c8.2,0,16.5,0,24.7,0c0.9,0,1.8,0,2.6-0.1c0.1-0.1,0.1-0.2,0.2-0.3c0.1-0.2,0.1-0.3,0.2-0.5c0.1-0.2,0.2-0.3,0.4-0.5
		c0.2-0.1,0.3-0.3,0.5-0.4c0,0,0.1-0.1,0.1-0.1c0.3-0.2,0.6-0.4,1-0.5c0.1,0,0.1,0,0.2,0c0,0,0.1-0.1,0.1-0.1
		c0.2-0.1,0.5-0.2,0.7-0.3c0,0,0.1-0.1,0.1-0.1c0.1,0,0.3-0.1,0.4-0.1c0,0,0,0,0.1-0.1c0.4-0.1,0.7-0.2,1.1-0.3
		c0.1,0,0.1-0.1,0.2-0.1c0.2,0,0.3-0.1,0.5-0.1c0,0,0,0,0.1-0.1c0.4-0.1,0.8-0.1,1.2-0.2c0.5,0,0.9,0,1.4,0c0.1,0,0.2,0.1,0.3,0.1
		c0.1,0,0.3,0,0.4,0.1c0.2-0.1,0.4-0.2,0.6-0.3c0,0,0.1-0.1,0.1-0.1c0.1-0.1,0.3-0.2,0.4-0.3c0.1-0.1,0.2-0.2,0.3-0.3
		c0.1,0,0.1-0.1,0.2-0.1c0.1-0.1,0.1-0.1,0.2-0.2c0.1,0,0.1-0.1,0.2-0.1c0,0,0,0,0-0.1c0,0,0.1,0,0.1,0c0.2-0.2,0.4-0.3,0.6-0.5
		c0.1,0,0.1-0.1,0.2-0.1c0,0,0.1-0.1,0.1-0.1c0.1,0,0.2-0.1,0.2-0.1c0,0,0.1-0.1,0.1-0.1c0.1,0,0.2-0.1,0.3-0.1c0,0,0.1-0.1,0.1-0.1
		c0.1,0,0.2-0.1,0.4-0.1c0,0,0,0,0-0.1c0.1,0,0.2,0,0.3,0c0.1,0.1,0.2,0.1,0.3,0.2c0,0.1,0,0.1,0.1,0.2c0,0.1,0,0.2,0,0.4
		c-0.1,0.1-0.1,0.3-0.2,0.4c-0.1,0.1-0.2,0.2-0.2,0.2c0,0-0.1,0-0.1,0c-0.1,0.1-0.2,0.2-0.3,0.3c-0.2,0.1-0.4,0.2-0.5,0.4
		c-0.2,0.1-0.4,0.2-0.6,0.3c-0.1,0-0.1,0-0.2,0.1c0,0-0.1,0.1-0.1,0.1c-0.3,0.1-0.6,0.3-0.9,0.4c-0.1,0.1-0.3,0.2-0.4,0.3
		c-0.1,0-0.1,0.1-0.2,0.1c0,0-0.1,0.1-0.1,0.1c0,0-0.1,0-0.1,0c0,0-0.1,0.1-0.1,0.1c-0.1,0.1-0.3,0.2-0.4,0.4
		c-0.1,0.1-0.1,0.2-0.2,0.3c-0.1,0.1-0.1,0.1-0.2,0.2c-0.1,0.1-0.1,0.2-0.2,0.2c0,0.1-0.1,0.2-0.1,0.3c0,0.1,0,0.1,0,0.2
		c0,0.1,0.1,0.2,0.1,0.3c0,0,0.1,0,0.1,0c0.1,0.1,0.2,0.2,0.3,0.3c0.1,0,0.2,0,0.3,0.1c0,0,0.1,0.1,0.1,0.1c0.3,0,0.7,0,1.1,0
		c0.4,0,0.9,0,1.3,0c0.1,0,0.2,0,0.4-0.1c0,0,0,0,0-0.1c0.3-0.1,0.7-0.1,1-0.2c0.1,0,0.2-0.1,0.3-0.1c0.1-0.1,0.1-0.2,0.2-0.3
		c0.1-0.1,0.1-0.2,0.2-0.4c0.2-0.2,0.3-0.5,0.5-0.7c0,0,0.1,0,0.1-0.1c0,0,0-0.1,0-0.1c0.1-0.1,0.2-0.2,0.3-0.2c0,0,0.1,0,0.1,0
		c0,0,0.1-0.1,0.1-0.1c0.1-0.1,0.2-0.1,0.4-0.2c0,0,0,0,0-0.1c0.1,0,0.2-0.1,0.2-0.1c0,0,0.1-0.1,0.1-0.1c0.1,0,0.2-0.1,0.3-0.1
		c0,0,0,0,0.1-0.1c0.4-0.1,0.8-0.2,1.2-0.3c0,0,0.1,0,0.1-0.1c0.1,0,0.2,0,0.3-0.1c0.5,0,1.1,0,1.6,0c0.1,0,0.1,0.1,0.2,0.1
		c0.1,0,0.2,0.1,0.3,0.1c0,0.1,0.1,0.1,0.1,0.2c0,0.1,0,0.1,0.1,0.2c0,0.2,0,0.3,0,0.5c-0.1,0.1-0.1,0.2-0.2,0.3
		c-0.2,0.1-0.4,0.3-0.5,0.4c-0.2,0.1-0.4,0.2-0.7,0.3c-0.1,0-0.2,0.1-0.3,0.1c0,0-0.1,0.1-0.1,0.1c-0.1,0-0.2,0-0.2,0
		c0,0-0.1,0.1-0.1,0.1c-0.1,0-0.3,0.1-0.4,0.1c0,0-0.1,0.1-0.1,0.1c-0.2,0.1-0.4,0.1-0.6,0.2c-0.2,0-0.3,0.1-0.5,0.1
		c-0.1,0-0.1,0.1-0.2,0.1c-0.1,0-0.3,0.1-0.4,0.1c0,0.1,0,0.1,0,0.2c0.4,0,0.8,0,1.2,0c0.3,0,0.6-0.1,1-0.1c0,0,0,0,0.1-0.1
		c0.5-0.1,1.1-0.2,1.7-0.3c0.1,0,0.1-0.1,0.2-0.1c0.2,0,0.3-0.1,0.5-0.1c0,0,0,0,0.1-0.1c0.1,0,0.3-0.1,0.4-0.1
		c0.1,0,0.1-0.1,0.2-0.1c0.2,0,0.4-0.1,0.6-0.1c0.1,0,0.1-0.1,0.2-0.1c0.1,0,0.2-0.1,0.3-0.1c0,0,0.1-0.1,0.1-0.1
		c0.2,0,0.3-0.1,0.5-0.1c0,0,0,0,0-0.1c0.1,0,0.3-0.1,0.4-0.1c0.2-0.1,0.4-0.2,0.6-0.4c0.1-0.1,0.2-0.2,0.3-0.3
		c0.1,0,0.1-0.1,0.2-0.1c0.1-0.1,0.2-0.2,0.3-0.3c0,0,0.1,0,0.1,0c0,0,0-0.1,0-0.1c0.3-0.3,0.7-0.5,1-0.8c0,0,0.1-0.1,0.1-0.1
		c0.1-0.1,0.2-0.1,0.3-0.2c0,0,0.1-0.1,0.1-0.1c0.1,0,0.1-0.1,0.2-0.1c0.3-0.2,0.5-0.4,0.8-0.6c0.2-0.1,0.4-0.2,0.7-0.3
		c0.1,0,0.2-0.1,0.2-0.1c0,0,0.1-0.1,0.1-0.1c0.1,0,0.2-0.1,0.3-0.1c0,0,0,0,0-0.1c0.4-0.1,0.8-0.2,1.1-0.3c0.1,0,0.3,0,0.4,0
		c0.1,0,0.2,0,0.3,0c0,0,0.1,0.1,0.1,0.1c0,0.1,0,0.3,0,0.4c-0.2,0.2-0.3,0.4-0.5,0.6c-0.5,0.4-0.9,0.7-1.4,1.1
		c-0.5,0.3-0.9,0.5-1.4,0.8c0,0,0,0.1-0.1,0.1c-0.1,0-0.1,0-0.2,0c0,0-0.1,0.1-0.1,0.1c-0.2,0.1-0.4,0.2-0.6,0.3c0,0,0,0,0,0.1
		c0,0-0.1,0-0.1,0c-0.2,0.1-0.4,0.3-0.6,0.4c0,0,0,0.1,0,0.1c0,0-0.1,0.1-0.1,0.1c0,0,0,0.1,0.1,0.1c0.2,0,0.5,0,0.7,0.1
		c0.4,0,0.7-0.1,1.1-0.1c0.8-0.1,1.6-0.2,2.5-0.3c0,0,0.1,0,0.1-0.1c0.1,0,0.3-0.1,0.4-0.1c0.1-0.1,0.3-0.1,0.4-0.2
		c0.1,0,0.1-0.1,0.2-0.1c0.1,0,0.2-0.1,0.3-0.1c0,0,0,0,0.1-0.1c0.3-0.1,0.5-0.2,0.8-0.3c0.1,0,0.3,0,0.4,0c0,0,0.1,0,0.1,0
		c0,0,0,0.1,0.1,0.1c0,0.1,0,0.2,0,0.3c0,0.1-0.1,0.2-0.1,0.3c0,0-0.1,0-0.1,0c-0.1,0.1-0.2,0.2-0.2,0.2c-0.1,0.1-0.2,0.1-0.2,0.2
		c0,0-0.1,0.1-0.1,0.1c-0.1,0-0.1,0.1-0.2,0.1c-0.2,0.2-0.4,0.3-0.6,0.5c0,0,0,0.1,0,0.1c-0.1,0.1-0.1,0.1-0.2,0.2
		c0,0.1,0,0.3,0,0.4c0.1,0,0.1,0.1,0.2,0.1c0.1,0,0.2,0,0.3,0c0.2,0,0.3-0.1,0.5-0.1c0.3-0.1,0.6-0.3,1-0.4c0,0,0,0,0-0.1
		c0.1,0,0.2-0.1,0.3-0.1c0.2-0.1,0.4-0.2,0.6-0.3c0.1-0.1,0.3-0.2,0.4-0.2c0.1,0,0.2-0.1,0.3-0.1c0,0,0,0,0-0.1
		c0.2-0.1,0.5-0.2,0.8-0.3c0,0,0,0,0-0.1c0.2-0.1,0.5-0.2,0.8-0.3c0,0,0.1-0.1,0.1-0.1c0.1,0,0.2-0.1,0.3-0.1c0,0,0,0,0-0.1
		c0.2-0.1,0.4-0.1,0.6-0.2c0.2,0,0.4,0,0.6,0c0,0.2,0,0.3,0,0.5c-0.2,0.3-0.5,0.6-0.8,0.9c0,0,0,0.1,0,0.1c0,0,0,0-0.1,0
		c0,0.1,0,0.2,0,0.2c0.1,0,0.1,0,0.2,0c0.1,0,0.2-0.1,0.4-0.1c0.2-0.1,0.3-0.1,0.5-0.2c0.3-0.2,0.6-0.3,1-0.5c0,0,0.1-0.1,0.1-0.1
		c0.3-0.1,0.6-0.3,1-0.4c0,0,0.1-0.1,0.1-0.1c0.3-0.1,0.6-0.2,0.9-0.3c0.1,0,0.2-0.1,0.4-0.1c0,0,0,0,0-0.1c0.2,0,0.4-0.1,0.6-0.1
		c0,0,0,0,0-0.1c0.3,0,0.6-0.1,0.9-0.1c0.1,0,0.1,0,0.2,0.1c0,0,0.1,0.1,0.1,0.1c0,0,0,0.1,0.1,0.1c0,0.1,0,0.2,0,0.3
		c-0.2,0.3-0.4,0.6-0.6,0.9c0,0-0.1,0.1-0.1,0.1c-0.1,0.1-0.2,0.2-0.3,0.4c0,0,0,0.1,0,0.1c0,0,0,0-0.1,0c0,0.1,0,0.2-0.1,0.3
		c0,0.1,0.1,0.1,0.1,0.2c0.1,0,0.3,0,0.4,0c0,0,0.1-0.1,0.1-0.1c0.4-0.1,0.7-0.3,1.1-0.4c0,0,0.1-0.1,0.1-0.1
		c0.2-0.1,0.5-0.2,0.7-0.3c0.1,0,0.2-0.1,0.3-0.1c0,0,0.1-0.1,0.1-0.1c0.1,0,0.1,0,0.2,0c0,0,0.1-0.1,0.1-0.1
		c0.3-0.1,0.5-0.2,0.8-0.3c0,0,0.1-0.1,0.1-0.1c0.4-0.2,0.9-0.3,1.3-0.5c0.2,0,0.4,0,0.6,0C84,22,84,22,84.1,22.1c0,0.1,0,0.2,0,0.3
		c-0.1,0.1-0.1,0.2-0.2,0.3c0,0,0,0-0.1,0c0,0,0,0.1,0,0.1c0,0-0.1,0.1-0.1,0.1c-0.2,0.3-0.5,0.5-0.8,0.8c0,0.1,0,0.3,0,0.4
		c0,0,0,0.1,0,0.1c0,0,0.1,0,0.1,0.1c0.2,0,0.5,0,0.7,0c0.1,0,0.1-0.1,0.2-0.1c0.1,0,0.2-0.1,0.3-0.1c0.2-0.1,0.4-0.2,0.6-0.3
		c0.1,0,0.2-0.1,0.3-0.1c0.1,0,0.1-0.1,0.2-0.1c0.1,0,0.2-0.1,0.3-0.1c0,0,0.1-0.1,0.1-0.1c0.2-0.1,0.4-0.2,0.6-0.3
		c0,0,0.1-0.1,0.1-0.1c0.1,0,0.2-0.1,0.2-0.1c0,0,0,0,0-0.1c0.3-0.1,0.5-0.2,0.8-0.3c0,0,0.1-0.1,0.1-0.1c0.1,0,0.1,0,0.2,0
		c0,0,0.1-0.1,0.1-0.1c0.1-0.1,0.2-0.1,0.3-0.2c0.2,0,0.3-0.1,0.5-0.1c0,0,0,0,0.1-0.1c0.1,0,0.2,0,0.3-0.1c0.1,0,0.2,0,0.3,0
		c0.1,0.1,0.2,0.1,0.3,0.2c0,0.1,0,0.1,0.1,0.2c0,0.1,0,0.2,0,0.3c0,0,0,0-0.1,0c0,0,0,0.1,0,0.1c-0.2,0.2-0.4,0.4-0.6,0.7
		c-0.1,0.1-0.2,0.2-0.4,0.3c0,0.1-0.1,0.1-0.1,0.2c0,0.1,0,0.1,0,0.2c0.1,0,0.1,0.1,0.2,0.1c0.2-0.1,0.5-0.1,0.8-0.2c0,0,0,0,0-0.1
		c0.3-0.1,0.6-0.2,0.9-0.3c0,0,0,0,0-0.1c0.1,0,0.2-0.1,0.3-0.1c0,0,0.1-0.1,0.1-0.1c0.3-0.1,0.5-0.2,0.8-0.3c0.1,0,0.1-0.1,0.2-0.1
		c0.1,0,0.2-0.1,0.3-0.1c0,0,0,0,0-0.1c0.4-0.1,0.7-0.2,1.1-0.3c0.2-0.1,0.4-0.2,0.6-0.2c0.3,0,0.7-0.1,1-0.1c0.1,0,0.2,0.1,0.2,0.1
		c0,0.1,0.1,0.1,0.1,0.2c0,0.1-0.1,0.1-0.1,0.2c-0.1,0.1-0.1,0.1-0.2,0.2c-0.1,0-0.1,0.1-0.2,0.1c0,0-0.1,0.1-0.1,0.1
		c-0.3,0.2-0.6,0.4-0.9,0.5c-0.1,0.1-0.2,0.2-0.3,0.4c0,0.1,0,0.2,0,0.4c0,0,0.1,0.1,0.1,0.1c0.3,0,0.5,0,0.8,0
		c0.4-0.1,0.7-0.2,1.1-0.3c0.1,0,0.1-0.1,0.2-0.1c0.1,0,0.2-0.1,0.3-0.1c0,0,0,0,0-0.1c0.1,0,0.2-0.1,0.2-0.1
		c0.4-0.2,0.8-0.4,1.2-0.6c0.1-0.1,0.2-0.1,0.3-0.2c0.1,0,0.2-0.1,0.2-0.1c0,0,0,0,0-0.1c0.3-0.1,0.6-0.3,1-0.4
		c0.1,0,0.2-0.1,0.4-0.1c0,0,0,0,0-0.1c0.3-0.1,0.6-0.2,1-0.3c0.1,0,0.1-0.1,0.2-0.1c0.5-0.1,1-0.2,1.6-0.3c0.2,0,0.4-0.1,0.6-0.1
		c0,0,0.1,0,0.1-0.1c0.3,0,0.6,0,1,0c0.1,0.1,0.3,0.1,0.4,0.2c0.1,0.1,0.1,0.1,0.2,0.2c0.1,0.1,0.1,0.2,0.2,0.2c0,0.1,0,0.3,0,0.4
		c0,0,0,0.1-0.1,0.1c0,0,0,0-0.1,0c-0.1,0.1-0.1,0.3-0.2,0.4c-0.1,0.1-0.2,0.3-0.3,0.4c0,0-0.1,0.1-0.1,0.1c0,0,0,0.1,0,0.1
		c-0.4,0.5-0.8,1-1.3,1.5c-0.2,0.1-0.3,0.3-0.5,0.4c0,0-0.1,0.1-0.1,0.1c-0.3,0.2-0.6,0.4-0.9,0.7c-0.2,0.1-0.4,0.2-0.6,0.4
		c-0.2,0.1-0.4,0.2-0.6,0.3c-0.1,0-0.2,0.1-0.3,0.1c0,0-0.1,0.1-0.1,0.1c-0.3,0.1-0.7,0.2-1,0.3c-0.1,0-0.3,0.1-0.4,0.1
		c0,0,0,0-0.1,0.1c-0.2,0-0.4,0.1-0.6,0.1c0,0,0,0,0,0.1c-0.3,0.1-0.7,0.1-1,0.2c-0.4,0-0.8,0.1-1.2,0.1c-0.8,0-1.6,0-2.5,0
		c-0.2,0-0.3,0-0.5-0.1c-0.2,0-0.4-0.1-0.6-0.1c0,0-0.1-0.1-0.1-0.1c0,0,0-0.1,0-0.1c0.1,0,0.1-0.1,0.2-0.1c0.3,0,0.5-0.1,0.8-0.1
		c0.4,0,0.9-0.1,1.3-0.1c0.4-0.1,0.8-0.1,1.2-0.2c0.2-0.1,0.5-0.1,0.7-0.2c0.1,0,0.2-0.1,0.3-0.1c0.4-0.1,0.9-0.2,1.3-0.3
		c0.2-0.1,0.4-0.1,0.6-0.2c0,0,0,0,0.1-0.1c0.1,0,0.2-0.1,0.3-0.1c0.2-0.1,0.3-0.1,0.5-0.2c0,0,0,0,0-0.1c0.4-0.2,0.8-0.3,1.2-0.5
		c0,0,0,0,0-0.1c0,0,0.1,0,0.1,0c0.1-0.1,0.2-0.1,0.3-0.2c0.1-0.1,0.2-0.1,0.4-0.2c0,0,0.1-0.1,0.1-0.1c0.1,0,0.1-0.1,0.2-0.1
		c0,0,0.1-0.1,0.1-0.1c0.1,0,0.1-0.1,0.2-0.1c0.1-0.1,0.2-0.2,0.2-0.3c0-0.1,0-0.1,0-0.2c-0.1,0-0.3,0-0.4,0.1
		c-0.2,0.1-0.3,0.1-0.5,0.2c-0.1,0-0.2,0.1-0.4,0.1c-0.1,0-0.1,0.1-0.2,0.1c-0.5,0.1-1.1,0.3-1.7,0.4c-0.4,0-0.7,0-1.1,0
		c-0.1,0-0.2,0-0.4,0c-0.1-0.1-0.3-0.2-0.4-0.4c0,0-0.1,0-0.1,0c0,0,0,0,0-0.1c-0.1,0-0.2,0-0.3,0c-0.3,0.1-0.7,0.2-1,0.3
		c0,0,0,0,0,0.1c-0.1,0-0.3,0.1-0.4,0.1c0,0-0.1,0-0.1,0.1c-0.4,0.1-0.7,0.1-1.1,0.2c-0.3,0-0.6,0-1,0c-0.1,0-0.2-0.1-0.3-0.1
		c-0.1-0.1-0.1-0.2-0.2-0.3c-0.1-0.1-0.1-0.3-0.2-0.4c0-0.1,0-0.2,0-0.4c0.1-0.2,0.2-0.4,0.3-0.6c-0.1,0-0.2,0-0.3,0
		c-0.3,0.1-0.5,0.2-0.8,0.3c0,0-0.1,0.1-0.1,0.1c-0.1,0-0.1,0-0.2,0c0,0-0.1,0.1-0.1,0.1c-0.3,0.1-0.5,0.2-0.8,0.3c0,0,0,0,0,0.1
		c-0.1,0-0.1,0-0.2,0c0,0-0.1,0.1-0.1,0.1c-0.2,0.1-0.4,0.2-0.6,0.3c-0.1,0-0.1,0-0.2,0c0,0-0.1,0.1-0.1,0.1c-0.1,0-0.1,0-0.2,0
		c-0.1,0-0.1,0.1-0.2,0.1c-0.3,0-0.5,0-0.8,0c0,0-0.1,0-0.1-0.1c0,0,0-0.1,0-0.1c0,0-0.1,0-0.1,0c-0.1-0.1-0.1-0.2-0.2-0.3
		c0-0.2,0-0.3,0-0.5c0-0.2,0.1-0.3,0.1-0.5c0.1-0.1,0.1-0.2,0.2-0.2c0.1-0.1,0.1-0.1,0.2-0.2c0-0.1,0-0.2,0.1-0.3
		c-0.1,0-0.2,0-0.3,0.1c-0.3,0.1-0.6,0.3-0.9,0.4c-0.2,0.1-0.5,0.3-0.8,0.4c-0.5,0.2-0.9,0.4-1.4,0.6c-0.1,0-0.2,0.1-0.3,0.1
		c0,0-0.1,0.1-0.1,0.1c-0.3,0.1-0.7,0.2-1,0.3c-0.1,0-0.3,0-0.4,0c-0.2-0.1-0.3-0.3-0.5-0.4c-0.1-0.1-0.1-0.2-0.2-0.3
		c0-0.2,0-0.4,0-0.6c0-0.1,0.1-0.2,0.1-0.3c0-0.1,0-0.1,0-0.2c-0.1,0-0.3,0-0.4,0c0,0-0.1,0-0.1,0c0,0,0,0,0,0.1
		c-0.1,0-0.2,0.1-0.3,0.1c0,0-0.1,0.1-0.1,0.1c-0.1,0.1-0.3,0.1-0.4,0.2c0,0,0,0,0,0.1c-0.2,0.1-0.4,0.2-0.6,0.3
		c-0.2,0.1-0.4,0.2-0.6,0.3c0,0-0.1,0.1-0.1,0.1c-0.1,0-0.1,0.1-0.2,0.1c0,0-0.1,0.1-0.1,0.1c-0.2,0.1-0.4,0.2-0.7,0.4
		c-0.1,0-0.2,0.1-0.3,0.1c0,0,0,0,0,0.1c-0.2,0-0.5,0-0.8,0c0,0-0.1,0-0.1-0.1c0,0,0-0.1,0-0.1c0,0-0.1,0-0.1,0
		c-0.1-0.1-0.1-0.2-0.2-0.4c0-0.2,0-0.4,0-0.6c0.1-0.1,0.1-0.3,0.2-0.4c0.1-0.1,0.1-0.2,0.2-0.3c0.1-0.2,0.1-0.4,0.2-0.6
		c-0.2,0-0.4,0-0.6,0.1c0,0,0,0,0,0.1c-0.2,0-0.3,0.1-0.5,0.1c0,0,0,0,0,0.1c-0.2,0.1-0.5,0.2-0.8,0.3c0,0-0.1,0.1-0.1,0.1
		c-0.1,0-0.2,0.1-0.3,0.1c0,0,0,0,0,0.1c-0.1,0-0.2,0.1-0.3,0.1c-0.4,0.3-0.9,0.5-1.4,0.8c-0.1,0-0.2,0.1-0.2,0.1
		c-0.1,0.1-0.2,0.1-0.3,0.2C72.2,25,72,25,71.9,25.1c0,0-0.1,0.1-0.1,0.1c-0.1,0-0.2,0.1-0.3,0.1c-0.1,0-0.3,0-0.4,0
		c-0.1,0-0.1,0-0.2,0c0,0-0.1-0.1-0.1-0.1c0,0-0.1,0-0.1,0c0-0.1-0.1-0.1-0.1-0.2c0-0.1,0-0.2,0-0.4c0.1-0.3,0.2-0.5,0.4-0.8
		c0-0.1,0-0.1,0-0.2c-0.2,0-0.3,0.1-0.5,0.1c-0.1,0.1-0.2,0.1-0.3,0.2c-0.1,0-0.2,0.1-0.3,0.1c0,0-0.1,0.1-0.1,0.1
		c-0.5,0.3-0.9,0.5-1.4,0.8c0,0-0.1,0.1-0.1,0.1c-0.2,0.1-0.5,0.2-0.8,0.3c-0.2,0.1-0.5,0.1-0.7,0.2c-0.2,0-0.5,0-0.7,0
		c0,0,0,0,0-0.1c-0.1,0-0.2-0.1-0.4-0.1c-0.1-0.1-0.2-0.2-0.3-0.3c-0.1-0.1-0.1-0.2-0.2-0.3c0-0.2,0-0.5,0-0.7
		c0-0.1,0.1-0.1,0.1-0.2c0,0,0.1-0.1,0.1-0.1c0-0.1,0-0.3,0-0.4c-0.1,0-0.1-0.1-0.2-0.1c-0.1,0-0.1,0-0.2,0c0,0-0.1,0-0.1,0.1
		c-0.3,0-0.5,0.1-0.8,0.1c-0.1,0-0.2,0.1-0.3,0.1c-1.3,0.1-2.6,0.3-4,0.4c-0.4,0.5-0.8,1-1.2,1.6c-0.3,0.3-0.6,0.7-0.9,1.1
		c-0.1,0.1-0.2,0.2-0.3,0.4c-0.1,0.1-0.1,0.1-0.2,0.2c-0.1,0.1-0.2,0.3-0.3,0.4c-0.2,0.3-0.4,0.7-0.6,1c-0.1,0.2-0.3,0.3-0.4,0.5
		c-0.1,0-0.1,0-0.2,0.1C55.6,29.1,55.6,29.1,55.5,29.1L55.5,29.1z M108.5,25.7c-0.5,0-1-0.1-1.5-0.1c-0.1,0-0.3-0.1-0.4-0.1
		c-0.1,0-0.2-0.1-0.3-0.1c0-0.1-0.1-0.1-0.1-0.2c0-0.1,0.1-0.1,0.1-0.2c0.1-0.1,0.2-0.1,0.2-0.2c0.1-0.1,0.3-0.1,0.4-0.2
		c0.4-0.1,0.9-0.2,1.3-0.3c0.9-0.1,1.8-0.1,2.7-0.2c0.1,0,0.2-0.1,0.3-0.1c0,0,0-0.1,0.1-0.1c-0.1,0-0.2-0.1-0.3-0.1
		c-0.8-0.1-1.5-0.1-2.3-0.2c-0.3,0-0.5-0.1-0.8-0.1c-0.1,0-0.1-0.1-0.2-0.1c0,0-0.1,0-0.1,0c-0.1,0-0.2-0.1-0.2-0.1
		c-0.1-0.1-0.1-0.2-0.2-0.3c0-0.1,0-0.2,0-0.3c0.1-0.1,0.2-0.2,0.3-0.4c0.2-0.1,0.4-0.2,0.6-0.3c0.2-0.1,0.4-0.1,0.6-0.2
		c0.6-0.1,1.1-0.2,1.7-0.3c0.3,0,0.6-0.1,0.9-0.1c0.5,0,1,0,1.6,0c0.2,0,0.4,0.1,0.6,0.1c0.2,0,0.4,0.1,0.5,0.1c0,0,0.1,0.1,0.1,0.1
		c0,0,0.1,0,0.1,0c0.1,0.1,0.1,0.1,0.2,0.2c0,0.1,0,0.2,0,0.3c-0.1,0.1-0.1,0.1-0.2,0.2c-0.1,0-0.1,0.1-0.2,0.1c-0.1,0-0.3,0-0.4,0
		c-0.2-0.1-0.3-0.1-0.5-0.2c-0.4,0-0.8,0-1.2,0c-0.6,0.1-1.3,0.1-2,0.2c-0.2,0-0.3,0.1-0.5,0.1c0,0,0,0.1,0,0.1c0,0,0.1,0.1,0.1,0.1
		c1,0.1,1.9,0.2,2.9,0.3c0.1,0.1,0.3,0.1,0.4,0.2c0.1,0.1,0.3,0.3,0.4,0.4c0.2,0,0.3,0,0.5,0c0.3-0.1,0.7-0.1,1-0.2
		c0.2-0.1,0.4-0.1,0.6-0.2c0.1,0,0.1-0.1,0.2-0.1c0,0,0.1,0,0.1,0c0,0,0.1-0.1,0.1-0.1c0.2-0.1,0.3-0.2,0.5-0.3c0,0,0.1,0,0.1,0
		c0,0,0.1-0.1,0.1-0.1c0.1,0,0.2-0.1,0.3-0.1c0.3-0.1,0.6-0.3,0.9-0.4c0.1,0,0.2-0.1,0.3-0.1c0.1,0,0.1-0.1,0.2-0.1
		c0.4-0.1,0.8-0.2,1.2-0.3c0.4-0.1,0.9-0.1,1.3-0.2c0.6,0,1.1,0,1.7,0c1.5-0.1,2.9-0.2,4.4-0.3c0.2,0,0.4,0,0.7,0.1
		c0,0,0.1,0.1,0.1,0.1c0,0.1,0,0.2,0,0.2c0,0.1-0.1,0.1-0.1,0.2c-0.1,0.1-0.3,0.2-0.4,0.3c-0.4,0.3-0.8,0.5-1.1,0.8
		c0,0-0.1,0.1-0.1,0.1c-0.1,0-0.1,0.1-0.2,0.1c-0.1,0.1-0.3,0.3-0.4,0.4c0,0.1,0,0.2,0,0.3c0,0,0.1,0.1,0.1,0.1c0.1,0,0.1,0,0.2,0.1
		c0.1,0,0.2,0,0.3,0c0.2,0,0.3-0.1,0.5-0.1c0.2-0.1,0.3-0.1,0.5-0.2c0,0,0,0,0-0.1c0.5-0.2,1.1-0.4,1.7-0.7c0.6-0.3,1.3-0.6,2-1
		c0.1-0.1,0.2-0.1,0.3-0.2c0.1-0.1,0.3-0.1,0.4-0.2c0,0,0.1-0.1,0.1-0.1c0.1,0,0.3-0.1,0.4-0.1c0.1,0,0.3,0,0.4,0
		c0,0,0.1,0.1,0.1,0.1c0,0.1,0,0.2,0,0.4c-0.1,0.1-0.1,0.2-0.2,0.3c-0.1,0.1-0.2,0.2-0.3,0.4c-0.1,0.1-0.3,0.2-0.4,0.3
		c0,0-0.1,0.1-0.1,0.1c0,0.2,0,0.3,0,0.5c0.1,0,0.1,0.1,0.2,0.1c0.2,0,0.4,0,0.6,0c0.1,0,0.3-0.1,0.4-0.1c0,0,0,0,0.1-0.1
		c0.2-0.1,0.4-0.1,0.7-0.2c0.9-0.3,1.8-0.7,2.6-1c0.5-0.2,0.9-0.5,1.4-0.8c0.3-0.1,0.6-0.2,0.9-0.3c0.1,0,0.2,0,0.3,0
		c0,0,0.1,0.1,0.1,0.1c0,0.1,0,0.2,0,0.3c-0.1,0.1-0.2,0.2-0.3,0.4c-0.2,0.1-0.3,0.3-0.5,0.4c-0.1,0.1-0.1,0.1-0.2,0.2
		c-0.1,0.1-0.3,0.2-0.4,0.3c0,0-0.1,0.1-0.1,0.1c-0.1,0.1-0.2,0.1-0.2,0.2c0,0-0.1,0.1-0.1,0.1c0,0,0,0.1,0,0.1c0,0,0,0,0.1,0
		c0.1,0,0.2,0,0.3-0.1c0.6-0.2,1.2-0.5,1.8-0.7c0,0,0,0,0-0.1c0.6-0.2,1.1-0.4,1.7-0.7c0.4-0.1,0.9-0.3,1.3-0.4c0.1,0,0.3,0,0.4,0
		c0.1,0,0.1,0.1,0.2,0.1c0,0,0.1,0.1,0.1,0.1c0,0,0,0.1,0.1,0.1c0,0.2,0,0.4,0,0.6c-0.1,0.2-0.3,0.3-0.4,0.5
		c-0.1,0.1-0.2,0.2-0.3,0.3c-0.1,0.1-0.1,0.2-0.2,0.3c0,0.1,0,0.2,0,0.3c0,0,0.1,0.1,0.1,0.1c0.1,0,0.1,0,0.2,0.1c0.3,0,0.6,0,0.9,0
		c0.3-0.1,0.5-0.1,0.8-0.2c0.1,0,0.1-0.1,0.2-0.1c0,0,0,0,0-0.1c0.2-0.1,0.3-0.2,0.5-0.3c0.1-0.1,0.1-0.1,0.2-0.2
		c0,0,0.1-0.1,0.1-0.1c0,0,0.1,0,0.1,0c0,0,0.1-0.1,0.1-0.1c0.2-0.1,0.4-0.2,0.6-0.3c0,0,0,0,0-0.1c0.1,0,0.2-0.1,0.2-0.1
		c0,0,0,0,0-0.1c0.4-0.2,0.7-0.3,1.1-0.5c0.7-0.2,1.3-0.4,2-0.7c0.3-0.1,0.5-0.1,0.8-0.2c0.3,0,0.6-0.1,1-0.1c0.2,0,0.5,0,0.8,0
		c0.2,0,0.3,0.1,0.5,0.1c0.1,0,0.1,0.1,0.2,0.1c0.2,0,0.4,0,0.6,0c0.1-0.1,0.3-0.1,0.4-0.2c0.3-0.2,0.6-0.4,1-0.6
		c0.3-0.2,0.6-0.3,1-0.5c0.2-0.1,0.3-0.1,0.5-0.2c0.2,0,0.3,0,0.5,0c0,0,0.1,0.1,0.1,0.1c0,0.1,0,0.2,0,0.3c0,0.1-0.1,0.1-0.1,0.2
		c-0.1,0.1-0.2,0.2-0.3,0.3c-0.3,0.2-0.7,0.5-1.1,0.7c-1,0.5-2,1.1-3,1.6c-0.1,0.1-0.2,0.1-0.2,0.2c-0.1,0.1-0.2,0.2-0.3,0.3
		c0,0.1-0.1,0.1-0.1,0.2c0,0.2,0.1,0.3,0.1,0.5c0.1,0.1,0.2,0.2,0.3,0.3c0.2,0.1,0.3,0.1,0.5,0.2c1.7,0,3.4,0,5.2,0.1
		c9.2,0,18.4,0,27.6,0c0.5,0.2,1.1,0.4,1.7,0.6c0,0,0,0,0,0.1c-3.1,0-6.2,0-9.3,0c-7.7,0-15.4,0-23.1,0c-1,0-2,0-3.1-0.1
		c-0.2-0.1-0.3-0.1-0.5-0.2c-0.1-0.1-0.3-0.2-0.4-0.3c-0.1-0.1-0.1-0.2-0.2-0.2c-0.1-0.1-0.2-0.1-0.3-0.2c-0.1,0-0.2,0-0.3,0
		c-0.5,0.2-1,0.3-1.5,0.5c-0.2,0.1-0.4,0.1-0.7,0.2c-0.3,0-0.6,0.1-1,0.1c-0.4,0-0.7,0-1.1-0.1c-0.1-0.1-0.3-0.1-0.4-0.2
		c-0.1-0.1-0.3-0.2-0.4-0.4c-0.2,0-0.3,0-0.5,0c-0.1,0.1-0.3,0.1-0.4,0.2c-0.1,0.1-0.2,0.1-0.3,0.2c-0.4,0.1-0.8,0.3-1.2,0.4
		c-0.2,0-0.4,0-0.6,0c-0.2-0.1-0.3-0.1-0.5-0.2c-0.1-0.1-0.2-0.1-0.3-0.2c0,0-0.1-0.1-0.1-0.1c-0.1-0.2-0.2-0.4-0.3-0.6
		c0-0.2,0-0.3,0-0.5c0.1-0.1,0.2-0.2,0.3-0.3c0-0.1,0-0.1,0-0.2c-0.1,0-0.1,0-0.2,0c-0.1,0-0.1,0-0.2,0c-0.4,0.2-0.9,0.3-1.3,0.5
		c-0.2,0.1-0.4,0.2-0.7,0.4c-0.5,0.2-1.1,0.4-1.7,0.7c0,0-0.1,0.1-0.1,0.1c-0.2,0.1-0.5,0.1-0.7,0.2c-0.2,0-0.3,0-0.5,0
		c-0.1,0-0.1-0.1-0.2-0.1c0,0-0.1-0.1-0.1-0.1c0-0.1,0-0.2,0-0.3c0.1-0.1,0.1-0.2,0.2-0.3c0,0,0.1-0.1,0.1-0.1c0,0,0-0.1,0-0.1
		c0.1-0.1,0.1-0.2,0.2-0.3c-0.1,0-0.1,0-0.2,0c-0.1,0.1-0.2,0.1-0.3,0.2c-0.2,0.1-0.5,0.2-0.7,0.3c0,0,0,0,0,0.1
		c-0.7,0.3-1.5,0.5-2.2,0.8c0,0,0,0,0,0.1c-0.2,0-0.4,0.1-0.6,0.1c-0.3,0-0.6,0-0.9,0c-0.2-0.1-0.4-0.1-0.5-0.2c0,0-0.1-0.1-0.1-0.1
		c-0.1-0.2-0.2-0.3-0.3-0.5c-0.1-0.2-0.1-0.3-0.2-0.5c-0.1,0-0.2,0-0.3,0c-0.1,0-0.2,0.1-0.3,0.1c-0.2,0.1-0.4,0.2-0.6,0.3
		c0,0,0,0,0,0.1c-0.2,0.1-0.5,0.3-0.8,0.4c-0.3,0.1-0.5,0.2-0.8,0.3c-0.1,0-0.2,0.1-0.4,0.1c0,0,0,0,0,0.1c-0.2,0.1-0.5,0.1-0.7,0.2
		c-0.3,0-0.6,0-0.9,0c-0.1,0-0.2-0.1-0.4-0.1c-0.1-0.1-0.3-0.2-0.4-0.3c0-0.1-0.1-0.1-0.1-0.2c0-0.1,0-0.1-0.1-0.2
		c0-0.2,0-0.4,0-0.6c0.1-0.1,0.1-0.2,0.2-0.3c0.2-0.3,0.5-0.6,0.7-0.9c0-0.1,0-0.2,0-0.2c-0.7,0-1.4,0-2.2,0c-0.2,0-0.4,0.1-0.6,0.1
		c0,0,0,0.1-0.1,0.1c0,0.3-0.1,0.6-0.1,0.9c-0.1,0.1-0.1,0.2-0.2,0.3c-0.1,0.1-0.1,0.1-0.2,0.2c-0.2,0.1-0.4,0.2-0.6,0.3
		c-0.4,0.2-0.8,0.3-1.2,0.5c-0.3,0.1-0.6,0.1-1,0.2c-0.5,0-1.1,0-1.6,0c-0.2-0.1-0.4-0.1-0.6-0.2c-0.1,0-0.1-0.1-0.2-0.1
		c-0.1-0.3-0.3-0.5-0.4-0.8c-0.2,0-0.3,0-0.5,0c-0.1,0-0.2,0.1-0.3,0.1c-0.5,0.1-0.9,0.2-1.4,0.3c-0.1,0-0.1,0.1-0.2,0.1
		c0,0.1,0,0.1-0.1,0.2c-0.1,0.1-0.1,0.2-0.2,0.3c-0.1,0.1-0.2,0.1-0.3,0.2c-0.3,0.1-0.5,0.2-0.8,0.2c-0.3,0-0.5,0.1-0.8,0.1
		c-0.3,0-0.7,0.1-1,0.1c0,0-0.1,0-0.1,0.1C109.7,25.7,109.1,25.7,108.5,25.7L108.5,25.7z M109.9,24.9
		C109.9,24.9,109.9,24.8,109.9,24.9c0.5-0.1,0.9-0.1,1.4-0.1c0,0-0.1,0.1-0.1,0.1C110.7,24.9,110.3,24.9,109.9,24.9L109.9,24.9z
		 M97.9,24.4c0-0.1,0-0.1,0-0.2c0,0,0.1-0.1,0.1-0.1c0.1-0.1,0.2-0.1,0.3-0.2c0.1,0,0.1,0,0.2-0.1c0,0,0.1-0.1,0.1-0.1
		c0.2-0.1,0.4-0.1,0.7-0.2c0,0,0.1,0,0.1-0.1c0.1,0,0.3-0.1,0.4-0.1c0.1,0,0.1-0.1,0.2-0.1c0.1,0,0.2-0.1,0.4-0.1c0,0,0.1,0,0.1-0.1
		c0.4-0.1,0.8-0.2,1.2-0.3c0.2,0,0.5,0,0.8,0c0,0.1,0,0.1,0,0.2c-0.2,0.1-0.4,0.2-0.5,0.3c-0.1,0-0.2,0.1-0.3,0.1
		c-0.1,0-0.1,0.1-0.2,0.1c-0.3,0.1-0.6,0.2-1,0.3c-0.1,0-0.2,0.1-0.4,0.1c-0.1,0-0.2,0.1-0.3,0.1c-0.2,0-0.3,0.1-0.5,0.1
		c0,0-0.1,0-0.1,0.1C98.7,24.4,98.3,24.4,97.9,24.4L97.9,24.4z M118.1,24.4c-0.2-0.1-0.3-0.1-0.5-0.2c0,0-0.1-0.1-0.1-0.1
		c0-0.1,0-0.3,0-0.4c0.1-0.1,0.2-0.1,0.3-0.2c0.1-0.1,0.2-0.1,0.4-0.2c0.2-0.1,0.4-0.2,0.6-0.2c0.4-0.1,0.9-0.2,1.3-0.3
		c0.3,0,0.5,0,0.8,0c0.1,0,0.1,0.1,0.2,0.1c0,0.1,0,0.2,0,0.4c0,0.1-0.1,0.2-0.1,0.3c-0.1,0.1-0.1,0.1-0.2,0.2
		c-0.3,0.2-0.6,0.3-0.9,0.5c-0.2,0.1-0.5,0.1-0.7,0.2C118.8,24.4,118.4,24.4,118.1,24.4L118.1,24.4z M38.4,24c-0.1,0-0.2,0-0.3-0.1
		c0,0,0-0.1-0.1-0.1c0.1-0.1,0.1-0.1,0.2-0.2c0.2-0.1,0.3-0.2,0.5-0.3c0.1,0,0.2-0.1,0.3-0.1c0,0,0.1-0.1,0.1-0.1
		c0.3-0.1,0.5-0.2,0.8-0.3c0,0,0.1-0.1,0.1-0.1c0.1,0,0.2-0.1,0.3-0.1c0,0,0,0,0-0.1c0.3-0.1,0.7-0.2,1-0.3c0,0,0,0,0.1-0.1
		c0.3,0,0.5-0.1,0.8-0.1c0,0,0.1,0,0.1-0.1c0.3,0,0.5-0.1,0.8-0.1c0.2,0,0.3,0,0.5,0c0,0,0.1,0,0.1,0.1c0,0.1-0.1,0.1-0.1,0.2
		c-0.2,0.1-0.3,0.2-0.5,0.4c-0.1,0-0.1,0-0.2,0c0,0-0.1,0.1-0.1,0.1c-0.1,0.1-0.2,0.1-0.3,0.2c-0.1,0-0.3,0.1-0.4,0.1c0,0,0,0,0,0.1
		c-0.1,0-0.2,0.1-0.3,0.1c0,0-0.1,0.1-0.1,0.1c-0.1,0-0.2,0.1-0.3,0.1c0,0-0.1,0.1-0.1,0.1c-0.2,0-0.3,0.1-0.5,0.1c0,0,0,0,0,0.1
		c-0.2,0-0.3,0.1-0.5,0.1c0,0,0,0,0,0.1c-0.2,0.1-0.5,0.1-0.7,0.2C39.1,23.9,38.7,24,38.4,24L38.4,24z M146.3,24
		c-0.1,0-0.1-0.1-0.2-0.1c0-0.1,0-0.2,0-0.3c0.1-0.1,0.1-0.1,0.2-0.2c0.2-0.1,0.5-0.2,0.7-0.3c0.6-0.2,1.2-0.4,1.8-0.7
		c0.5-0.1,1-0.3,1.5-0.4c0.2,0,0.4,0,0.7,0c0,0.1,0,0.2,0,0.3c-0.1,0.1-0.1,0.2-0.2,0.2c-0.1,0.1-0.2,0.1-0.2,0.2
		c0,0-0.1,0.1-0.1,0.1c-0.2,0.2-0.5,0.3-0.8,0.5c-0.4,0.2-0.8,0.3-1.2,0.5c-0.3,0.1-0.7,0.1-1,0.2C147.1,24,146.7,24,146.3,24
		L146.3,24z M51.2,23.6c0-0.1,0.1-0.2,0.1-0.3c0.1-0.1,0.1-0.1,0.2-0.2c0.1-0.1,0.2-0.1,0.2-0.2c0.1,0,0.2-0.1,0.2-0.1
		c0.3-0.2,0.6-0.3,0.9-0.5c0.1,0,0.3-0.1,0.4-0.1c0,0,0.1-0.1,0.1-0.1c0.2-0.1,0.4-0.1,0.6-0.2c0.2,0,0.4-0.1,0.6-0.1
		c0.1,0,0.3,0,0.4,0c0,0,0.1,0.1,0.1,0.1c0,0.1-0.1,0.1-0.1,0.2c0,0-0.1,0-0.1,0c0,0-0.1,0.1-0.1,0.1c-0.2,0.1-0.5,0.3-0.7,0.4
		c-0.1,0-0.2,0.1-0.3,0.1c0,0,0,0,0,0.1c-0.1,0-0.2,0.1-0.4,0.1c-0.2,0.1-0.4,0.1-0.6,0.2c-0.1,0-0.1,0.1-0.2,0.1
		c-0.1,0-0.2,0.1-0.3,0.1c0,0,0,0,0,0.1c-0.1,0-0.3,0.1-0.4,0.1c-0.1,0-0.2,0.1-0.3,0.1C51.5,23.6,51.4,23.6,51.2,23.6L51.2,23.6z
		 M69.4,20.7c-0.1-0.1-0.2-0.1-0.3-0.2c-0.2-0.2-0.3-0.4-0.5-0.6c-0.1-0.1-0.1-0.1-0.2-0.2c0-0.2,0-0.3,0-0.5c0-0.1,0.1-0.1,0.1-0.2
		c0.1-0.1,0.2-0.2,0.2-0.2c0.2,0,0.3,0,0.5,0c0,0,0.1,0.1,0.1,0.1c0.3,0.1,0.5,0.3,0.8,0.4c0,0,0.1,0,0.1,0c0,0,0,0.1,0,0.1
		c0.1,0.1,0.2,0.1,0.3,0.2c0.1,0,0.1,0,0.2,0.1c0.1,0.1,0.2,0.2,0.4,0.3c0,0.1,0,0.1,0,0.2c0,0.1-0.1,0.1-0.1,0.2
		c-0.1,0.1-0.1,0.1-0.2,0.2c-0.1,0-0.3,0.1-0.4,0.1c0,0,0,0,0,0.1C70,20.6,69.7,20.6,69.4,20.7L69.4,20.7z M84.6,20.4
		c-0.2-0.1-0.4-0.1-0.5-0.2c0,0-0.1-0.1-0.1-0.1c0,0-0.1,0-0.1-0.1c0-0.1-0.1-0.1-0.1-0.2c0-0.1-0.1-0.1-0.1-0.2
		c0,0-0.1-0.1-0.1-0.1c0-0.1,0-0.3,0-0.4c0.1-0.1,0.1-0.2,0.2-0.3c0.1-0.1,0.1-0.1,0.2-0.2c0.1,0,0.1-0.1,0.2-0.1c0.1,0,0.3,0,0.4,0
		c0.1,0.1,0.3,0.2,0.4,0.3c0.1,0.1,0.1,0.2,0.2,0.2c0,0,0.1,0.1,0.1,0.1c0.1,0.1,0.1,0.2,0.2,0.2c0,0.1,0,0.2,0,0.3
		c-0.1,0.1-0.1,0.2-0.2,0.3c-0.1,0.1-0.1,0.2-0.2,0.2c-0.1,0-0.2,0.1-0.3,0.1C84.8,20.4,84.7,20.4,84.6,20.4L84.6,20.4z"/>
</g>
</svg>
