<?xml version="1.0" encoding="utf-8"?>
<!-- Generator: Adobe Illustrator 21.1.0, SVG Export Plug-In . SVG Version: 6.00 Build 0)  -->
<svg version="1.1" id="Capa_1" xmlns="http://www.w3.org/2000/svg" xmlns:xlink="http://www.w3.org/1999/xlink" x="0px" y="0px"
	 viewBox="0 0 1543.8 615.7" style="enable-background:new 0 0 1543.8 615.7;" xml:space="preserve">
<style type="text/css">
	.st0{fill-rule:evenodd;clip-rule:evenodd;}
</style>
<path class="st0" d="M1543.8,463.6h-47.6c6.1-2.2,11.7-5,17-8.4c15.3-9.9,25.1-21.5,29.6-34.6c0.3-1.1,0.6-2.2,1-3.3V463.6
	L1543.8,463.6z M1413.4,463.6h-71.8v-60.9h-58.2v-67h49.5v-58h-49.5V220h52.8v-61h78.4c-2,0.7-4,1.5-5.8,2.3
	c-13.2,5.8-23.6,13.9-31,24c-7.6,10.2-12,20.7-13.5,31.8c-1.4,10.9-2.2,27.4-2.2,49.4v88.9c0,29.9,2.4,52.2,7.3,67.1
	c4.9,14.8,14.9,26.5,30,34.9C1403.7,459.9,1408.4,461.9,1413.4,463.6L1413.4,463.6z M1204.2,463.6H1139V220h47v-61h18.1V463.6
	L1204.2,463.6z M1059.8,463.6h-64v-80.4c0-24.6-0.6-39.7-2-45.1c-1.3-5.5-4.7-11.4-10-17.9c-5.4-6.6-16-11.8-31.7-15.6
	c17.4-1.6,28.9-6.5,34.8-14.7c5.9-8.1,8.9-24,8.9-47.7c0-26.1-4.2-44.9-12.5-56.8c-8.4-11.8-19.2-19.2-32.4-22.1
	c-13.2-2.9-38.5-4.3-76-4.3h138v61h46.9V463.6L1059.8,463.6z M922.2,463.6V362.4c0-16.3-1.4-26.4-3.9-30.3
	c-2.6-3.9-9.4-5.8-20.2-5.8v137.4H922.2L922.2,463.6z M818.9,463.6h-13.5L760,159h58.8V463.6L818.9,463.6z M724.2,463.6h-37.1
	l4.7-54.8h28.4L724.2,463.6L724.2,463.6z M605.1,463.6h-13.7V159h54L605.1,463.6L605.1,463.6z M522.1,463.6h-27.7L522.1,258V463.6
	L522.1,463.6z M445.2,463.6h-29.2v-201L445.2,463.6L445.2,463.6z M449.4,159H488l-18.1,142.3L459,223.7
	C455.6,198.9,452.4,177.3,449.4,159L449.4,159z M1496.9,159h46.9v45.6c-0.5-1.7-0.9-3.2-1.5-4.7c-4.8-13.5-14.8-24.7-29.9-33.8
	C1507.6,163.3,1502.4,160.9,1496.9,159L1496.9,159z M1543.8,291.8h-73.6v-53.1c0-15.4-0.9-25.1-2.6-28.9c-1.7-3.8-5.4-5.8-11.2-5.8
	c-6.6,0-10.7,2.3-12.5,7c-1.7,4.7-2.7,14.7-2.7,30.1v141.5c0,14.8,0.9,24.5,2.7,29c1.8,4.5,5.7,6.8,11.9,6.8c5.9,0,9.8-2.2,11.6-6.8
	c1.8-4.5,2.7-15.1,2.7-31.8v-38.2h73.6V291.8L1543.8,291.8z M718.1,354.9c-4-34.6-8-77.1-12.1-127.8c-8,58.2-13,100.8-15,127.8
	H718.1L718.1,354.9z M898.1,211.1v67.8c8.9,0,15.1-1.2,18.7-3.7c3.6-2.4,5.4-10.4,5.4-23.8v-16.7c0-9.7-1.7-16-5.2-19
	S907.3,211.1,898.1,211.1z"/>
<path class="st0" d="M263.5,159v42.1c38.2,66.8,85.7,127.2,104.4,203.2c18.6,75.7-7.6,163.4-81.5,197.7
	c-12.1,5.6-25.1,9.1-37.5,13.8c26.4-2.7,46.3-3.1,69.6-16.5c95.6-54.9,84.2-184,43.9-270.1c-5-10.7-10.4-21.4-15.6-32V159H263.5z"/>
<path class="st0" d="M310,105.8c5.5,0,10.9-0.2,16.3,0c21,0.9,36.3,10.7,50,26.1c3.2,3.5,4.6,8.6,8.5,11.3
	c16.1,10.9,9.1-18.5,2.5-24.8c-13.2-12.7-26.7-17.9-44.4-18.6c-11.2-0.4-22.7-2-33.7,0C307.4,100.2,309.7,103.8,310,105.8z"/>
<path class="st0" d="M148.8,484c-8.4-2.4-8.6,4.1-7.7,10.9c3.5,25.6,48.7,30.5,68.6,33.6c17.4,2.6,16.7-5.3,3.5-7.9
	c-5.5-1.1-44.9-11.6-46.7-15.3C165.5,503.1,149.5,484.2,148.8,484z"/>
<path class="st0" d="M0,461h274.5c0-26.8-1-57-17.4-79.6c-52.1-71.9-89.1-112-91.5-201.4l-22-17.4H0V461L0,461z M139.8,393.3
	c0-45.6,70.9-45.6,70.9,0S139.8,438.8,139.8,393.3L139.8,393.3z M165.6,180l-22-17.4C145,68.3,203.1,11.4,294.7,0
	C201.8,40.3,167.8,76.8,165.6,180z"/>
</svg>
