<?xml version="1.0" encoding="utf-8"?>
<!-- Generator: Adobe Illustrator 21.1.0, SVG Export Plug-In . SVG Version: 6.00 Build 0)  -->
<svg version="1.1" id="Layer_1" xmlns="http://www.w3.org/2000/svg" xmlns:xlink="http://www.w3.org/1999/xlink" x="0px" y="0px"
	 viewBox="0 0 675.6 111.4" style="enable-background:new 0 0 675.6 111.4;" xml:space="preserve">
<style type="text/css">
	.st0{fill-rule:evenodd;clip-rule:evenodd;fill:#0059A2;}
</style>
<g>
	<path class="st0" d="M145.3,33h11.6v34c0,2.3,0.6,3.9,3.2,3.9c2.2,0,3.1-1.3,3.1-3.9l0-34h11.6v32.9c0,7.7-3.9,13.6-14.8,13.6
		c-9,0-14.7-4.3-14.7-13.6V33L145.3,33z"/>
	<path class="st0" d="M214.8,78.5V44.5h11.1v33.9H214.8L214.8,78.5z M214.8,41.2V33h11.1v8.2H214.8L214.8,41.2z"/>
	<path class="st0" d="M230.2,51.5v-7h3.1v-9.7h10.9v9.7h4.6v7h-4.6v17c0,1.9,1.2,2.9,3,3c0.7,0,1.6,0,1.6,0v7c0,0-5.1,0-6.2,0
		c-5.9,0-9.4-3.2-9.4-8.6V51.5H230.2L230.2,51.5z"/>
	<path class="st0" d="M267.5,57c0-1.6,0-3.4,0-3.9c0-1.4-1.1-2.3-2.4-2.3c-1.4,0-2.4,1.1-2.4,2.4c0,0.4,0,2.2,0,3.9H267.5L267.5,57z
		 M277.6,66.8V68c-0.1,6.8-4,11.5-12.5,11.5c-7.8,0-12.6-4-12.6-11.6V55.1c0-7.7,4.8-11.6,12.6-11.6c8.6,0,12.5,4.7,12.5,11.6v8.7
		h-14.9v6.1c0,1.3,1,2.4,2.4,2.4c1.2,0,2.4-1,2.4-2.4v-3.1H277.6L277.6,66.8z"/>
	<path class="st0" d="M294.5,69.5c0,1.8,1.1,2.6,2.3,2.6c1.1,0,2.4-0.8,2.4-2.5c0,0,0-15.1,0-16.4c0-1.7-1.3-2.5-2.4-2.5
		c-1.2,0-2.4,0.8-2.4,2.6C294.5,55.1,294.5,69.5,294.5,69.5L294.5,69.5z M309.9,33v45.5h-9.4l-0.2-2.6h-0.2
		c-0.6,0.9-2.8,3.7-7.6,3.7c-5.6,0-8.6-3.9-8.6-9.6c0,0,0-13.3,0-17c0-5.8,3.4-9.5,8.5-9.5c4,0,6.1,1.8,6.8,2.4h0.1V33H309.9
		L309.9,33z"/>
	<path class="st0" d="M191.1,44.5l0.2,3h0.2c1-1.4,3.6-4.1,8-4.1c5.6,0,8.5,4,8.5,9c0,3.7,0,26,0,26h-10.9c0,0,0-21.9,0-23.8
		c0-1.8-1.1-2.7-2.3-2.7c-1.1,0-2.4,0.9-2.4,2.6c0,1.3,0,23.9,0,23.9h-10.9v-34H191.1L191.1,44.5z"/>
	<polygon class="st0" points="329.2,33 356.9,33 356.9,42.1 349,42.1 349,78.5 336.9,78.5 336.9,42.1 329.2,42.1 329.2,33 	"/>
	<polygon class="st0" points="517.4,78.5 517.4,33 528.6,33 528.6,78.5 517.4,78.5 	"/>
	<path class="st0" d="M600.4,78.5V44.6h11.1v33.9H600.4L600.4,78.5z M600.4,41.2V33h11.1v8.2H600.4L600.4,41.2z"/>
	<path class="st0" d="M402.1,65.4c0,2.2,0,4.4,0,4.4c0,1.4-1.1,2.2-2.3,2.2c-1.4,0-2.3-1-2.3-2.3c0,0,0-14.9,0-16.6
		c0-1.3,0.9-2.3,2.3-2.3c1.2,0,2.3,0.9,2.3,2.2c0,0.6,0,2.8,0,4h10.9v-2.1c0-7-4.6-11.6-13.2-11.6c-7.8,0-13.2,4-13.2,11.6v12.7
		c0,7.7,5.4,11.6,13.2,11.6c8.6,0,13.2-4.7,13.2-11.6v-2.5H402.1L402.1,65.4z"/>
	<path class="st0" d="M370.5,57c0-1.6,0-3.4,0-3.9c0-1.4-1.1-2.3-2.4-2.3c-1.4,0-2.4,1.1-2.4,2.4c0,0.4,0,2.2,0,3.9H370.5L370.5,57z
		 M380.6,66.8V68c-0.1,6.8-4,11.5-12.5,11.5c-7.8,0-12.6-4-12.6-11.6V55.2c0-7.7,4.8-11.6,12.6-11.6c8.6,0,12.5,4.7,12.5,11.6v8.7
		h-14.9v6.1c0,1.3,1,2.4,2.4,2.4c1.2,0,2.4-1,2.4-2.4v-3.1H380.6L380.6,66.8z"/>
	<path class="st0" d="M632.9,57c0-1.6,0-3.4,0-3.9c0-1.4-1.1-2.3-2.4-2.3c-1.4,0-2.4,1.1-2.4,2.4c0,0.4,0,2.2,0,3.9H632.9L632.9,57z
		 M643,66.8V68c-0.1,6.8-4,11.5-12.5,11.5c-7.8,0-12.6-4-12.6-11.6V55.2c0-7.7,4.8-11.6,12.6-11.6c8.6,0,12.5,4.7,12.5,11.6v8.7
		h-14.9v6.1c0,1.3,1,2.4,2.4,2.4c1.2,0,2.4-1,2.4-2.4v-3.1H643L643,66.8z"/>
	<path class="st0" d="M673.8,55.4h-10c0,0,0-1.6,0-2.1c0-1.5-0.9-2.9-2.8-2.9c-2,0-2.8,1.1-2.8,2.2c0,2.5,3.8,3.9,7.6,5.7
		c4.8,2.3,8.9,4.6,8.9,10.3c0,7.2-5.9,10.8-13.7,10.8c-8.5,0-13.2-4.3-13.2-11.5v-1.3h10c0,0,0,2.2,0,2.7c0,1.7,1,3.1,3.2,3.1
		c1.8,0,2.9-1.2,2.9-2.7c0-2.2-2.1-3.6-6.5-5.4c-6-2.4-9-5-9-10.7c0-7.1,6-10.2,12.6-10.2c7,0,12.7,3.1,12.7,11V55.4L673.8,55.4z"/>
	<path class="st0" d="M577.9,68.2c0,1.8,1.1,2.6,2.4,2.6c1.1,0,2.4-0.8,2.4-2.5c0-1.3,0-14.8,0-14.8c0-1.7-1.3-2.5-2.4-2.5
		c-1.3,0-2.3,0.8-2.3,2.6C577.9,53.5,577.9,66.4,577.9,68.2L577.9,68.2z M578,79.8v0.7c0,1.3,0.9,2.3,2.3,2.3c1.2,0,2.3-0.8,2.3-2.2
		v-5.6h-0.1c-1.2,1-3.4,2.3-6.8,2.3c-5.4,0-8.4-3.5-8.4-9.3c0-3.7,0-15,0-15c0-5.4,3-9.5,8.6-9.5c5,0,7,2.9,7.6,3.7h0.2l0.2-2.6h9.4
		v33.8c0,7-3.4,11.6-13,11.6c-8.4,0-12.9-3.7-13-10.1H578L578,79.8z"/>
	<path class="st0" d="M485.1,68c0,7.7,5.3,11.6,13.1,11.6c8.6,0,13.1-4.7,13.1-11.6V55.3c0-7-4.5-11.6-13.1-11.6
		c-7.8,0-13.1,4-13.1,11.6V68L485.1,68z M495.7,53.4c0-1.3,1.1-2.4,2.5-2.4c1.2,0,2.5,0.9,2.5,2.3c0,2.3,0,16.6,0,16.6
		c0,1.4-1.3,2.3-2.5,2.3c-1.4,0-2.5-1.1-2.5-2.4C495.7,69.9,495.7,55,495.7,53.4L495.7,53.4z"/>
	<path class="st0" d="M534.8,67.9c0,7.7,5.3,11.6,13.1,11.6c8.6,0,13.1-4.7,13.1-11.6V55.2c0-7-4.5-11.6-13.1-11.6
		c-7.8,0-13.1,4-13.1,11.6V67.9L534.8,67.9z M545.5,53.2c0-1.3,1.1-2.4,2.5-2.4c1.2,0,2.5,0.9,2.5,2.3c0,2.3,0,16.6,0,16.6
		c0,1.4-1.3,2.3-2.5,2.3c-1.4,0-2.5-1.1-2.5-2.4C545.5,69.8,545.5,54.9,545.5,53.2L545.5,53.2z"/>
	<path class="st0" d="M429.7,33v13.6h0.1c1.1-1.3,3.6-3.1,7.1-3.1c6,0,8.5,4.1,8.5,9.1c0,3.7,0,25.9,0,25.9h-10.9c0,0,0-21.9,0-23.8
		c0-1.8-1.1-2.7-2.3-2.7c-1.1,0-2.4,0.9-2.4,2.6c0,1.3,0,23.9,0,23.9h-10.9V33H429.7L429.7,33z"/>
	<path class="st0" d="M462.1,44.5l0.2,3h0.2c1-1.4,3.6-4.1,8-4.1c5.6,0,8.5,4,8.5,9c0,3.7,0,26,0,26h-10.9c0,0,0-21.9,0-23.8
		c0-1.8-1.1-2.7-2.3-2.7c-1.1,0-2.4,0.9-2.4,2.6c0,1.3,0,23.9,0,23.9h-10.9v-34H462.1L462.1,44.5z"/>
	<path class="st0" d="M58.5,0.1c-0.9-0.1-2.1-0.1-3-0.1c-0.8,0-2,0-2.8,0.1l0.3,34.3c0.8-0.1,1.7-0.2,2.6-0.2c0.9,0,1.7,0.1,2.6,0.2
		L58.5,0.1L58.5,0.1z M58.8,34.5c1.7,0.2,3.3,0.7,4.8,1.3l9.3-32.9c-1.5-0.6-3.7-1.2-5.3-1.5L58.8,34.5L58.8,34.5z M64.4,36.1
		c1.4,0.7,2.8,1.5,4.1,2.4L86.2,9.3c-1.3-0.9-3.1-2.1-4.6-2.7L64.4,36.1L64.4,36.1z M97.3,18.9c-0.9-1.1-2.3-2.6-3.4-3.5L69.5,39.3
		c1.1,0.9,2.1,2,3,3.1L97.3,18.9L97.3,18.9z M73.7,44.2c0.6,0.9,1.1,1.9,1.5,2.9l30-16.3c-0.5-1.1-1.3-2.6-2-3.6L73.7,44.2
		L73.7,44.2z M76.8,52.3c-0.2-1.1-0.4-2.1-0.7-3.1l33.1-8.4c0.4,1,0.7,2.6,0.9,3.6L76.8,52.3L76.8,52.3z M76.1,107.4l-3.6-13.1
		l0.4-0.2l7.2,11.5c3.5-1.6,7-3.8,9.8-6.2l-6.5-10.5l0.4-0.3l9.3,8.2c3.1-2.6,6-6,8.1-9.2L92.6,80l0.3-0.4l10.4,4.7
		c2.3-3.6,4.2-7.7,5.3-11.9l-9.4-4.4l0.1-0.5l10.3,1.2c1.1-4.1,1.6-8.6,1.6-13.1H77C77,67.5,67.4,77,55.6,77
		c-11.8,0-21.4-9.6-21.4-21.4c0-10.8,8-19.8,18.5-21.2L44,1.2c-1.8,0.3-4.2,0.9-5.9,1.6l8.6,31.1l-0.5,0.2l-16-28
		c-1.9,0.8-4.1,2.1-5.7,3.3l15.8,26.1l-0.4,0.3L18.4,14.3c-1.6,1.3-3.5,3.2-4.7,4.8L34.6,39l-0.3,0.4L9.2,24.9
		c-1.4,1.8-2.7,4.3-3.6,6.3l24,13.2l-0.2,0.5L2.9,37.5c-0.9,2.2-1.6,5.1-2,7.5l25.2,6.2L26,51.6l-26,0c-0.1,1.3-0.2,2.8-0.2,4.1
		c0,1.2,0.1,2.7,0.2,3.9l24.4-0.2l0,0.5L0.8,65.8c0.4,2.8,1.2,5.6,2.2,8.2l22-6l0.2,0.4l-20,11.1c1.2,2.7,2.7,5.2,4.4,7.6l18.1-10.5
		L28,77L13,91.6c1.9,2.4,4.1,4.5,6.4,6.5l13.5-13.4l0.4,0.3l-9.6,16.4c2.5,1.9,5.3,3.5,8.2,4.8l8.7-14.9l0.5,0.2L36.5,108
		c3,1.2,6.2,2,9.5,2.5l4.2-15.4l0.5,0.1l0.1,16c1.5,0.1,3.1,0.3,4.7,0.3c1.9,0,3.8-0.2,5.6-0.4l0-14.8l0.5-0.1l4.1,14.2
		C69.4,109.8,73,108.7,76.1,107.4L76.1,107.4L76.1,107.4z"/>
</g>
</svg>
